ultracondensed-black.ufo
<glyph name="exclam" format="2">
  <advance height="1920" width="400"/>
  <unicode hex="0021"/>
  <outline>
    <contour>
      <point x="315.0" y="0.0" type="curve" smooth="yes"/>
      <point x="85.0" y="0.0" type="line" smooth="yes"/>
      <point x="78.0" y="0.0"/>
      <point x="75.0" y="3.0"/>
      <point x="75.0" y="10.0" type="curve" smooth="yes"/>
      <point x="75.0" y="350.0" type="line" smooth="yes"/>
      <point x="75.0" y="357.0"/>
      <point x="78.0" y="360.0"/>
      <point x="85.0" y="360.0" type="curve" smooth="yes"/>
      <point x="315.0" y="360.0" type="line" smooth="yes"/>
      <point x="322.0" y="360.0"/>
      <point x="325.0" y="357.0"/>
      <point x="325.0" y="350.0" type="curve" smooth="yes"/>
      <point x="325.0" y="10.0" type="line" smooth="yes"/>
      <point x="325.0" y="3.0"/>
      <point x="322.0" y="0.0"/>
    </contour>
    <contour>
      <point x="45.0" y="950.0" type="curve" smooth="yes"/>
      <point x="45.0" y="1440.0" type="line" smooth="yes"/>
      <point x="45.0" y="1447.0"/>
      <point x="48.0" y="1450.0"/>
      <point x="55.0" y="1450.0" type="curve" smooth="yes"/>
      <point x="345.0" y="1450.0" type="line" smooth="yes"/>
      <point x="352.0" y="1450.0"/>
      <point x="355.0" y="1447.0"/>
      <point x="355.0" y="1440.0" type="curve" smooth="yes"/>
      <point x="355.0" y="950.0" type="line" smooth="yes"/>
      <point x="355.0" y="943.0"/>
      <point x="354.817382812" y="936.903320312"/>
      <point x="354.0" y="930.0" type="curve" smooth="yes"/>
      <point x="256.0" y="510.0" type="line" smooth="yes"/>
      <point x="255.182617188" y="503.096679688"/>
      <point x="252.0" y="500.0"/>
      <point x="245.0" y="500.0" type="curve" smooth="yes"/>
      <point x="155.0" y="500.0" type="line" smooth="yes"/>
      <point x="148.0" y="500.0"/>
      <point x="144.817382812" y="503.096679688"/>
      <point x="144.0" y="510.0" type="curve" smooth="yes"/>
      <point x="46.0" y="930.0" type="line" smooth="yes"/>
      <point x="45.1826171875" y="936.903320312"/>
      <point x="45.0" y="943.0"/>
    </contour>
  </outline>
</glyph>
<glyph name="numbersign" format="2">
  <advance height="1920" width="805"/>
  <unicode hex="0023"/>
  <outline>
    <contour>
      <point x="5.0" y="545.0" type="curve" smooth="yes"/>
      <point x="760.0" y="545.0" type="line" smooth="yes"/>
      <point x="763.5" y="545.0"/>
      <point x="765.0" y="543.5"/>
      <point x="765.0" y="540.0" type="curve" smooth="yes"/>
      <point x="765.0" y="395.0" type="line" smooth="yes"/>
      <point x="765.0" y="391.5"/>
      <point x="764.0" y="390.0"/>
      <point x="760.0" y="390.0" type="curve" smooth="yes"/>
      <point x="5.0" y="390.0" type="line" smooth="yes"/>
      <point x="1.5" y="390.0"/>
      <point x="0.0" y="391.5"/>
      <point x="0.0" y="395.0" type="curve" smooth="yes"/>
      <point x="0.0" y="540.0" type="line" smooth="yes"/>
      <point x="0.0" y="543.5"/>
      <point x="1.5" y="545.0"/>
    </contour>
    <contour>
      <point x="45.0" y="1050.0" type="curve" smooth="yes"/>
      <point x="800.0" y="1050.0" type="line" smooth="yes"/>
      <point x="803.5" y="1050.0"/>
      <point x="805.0" y="1048.5"/>
      <point x="805.0" y="1045.0" type="curve" smooth="yes"/>
      <point x="805.0" y="900.0" type="line" smooth="yes"/>
      <point x="805.0" y="896.5"/>
      <point x="803.5" y="895.0"/>
      <point x="800.0" y="895.0" type="curve" smooth="yes"/>
      <point x="45.0" y="895.0" type="line" smooth="yes"/>
      <point x="41.5" y="895.0"/>
      <point x="40.0" y="896.5"/>
      <point x="40.0" y="900.0" type="curve" smooth="yes"/>
      <point x="40.0" y="1045.0" type="line" smooth="yes"/>
      <point x="40.0" y="1048.5"/>
      <point x="41.5" y="1050.0"/>
    </contour>
    <contour>
      <point x="515.0" y="1400.0" type="curve" smooth="yes"/>
      <point x="730.0" y="1400.0" type="line" smooth="yes"/>
      <point x="735.0" y="1400.0"/>
      <point x="735.0" y="1398.5"/>
      <point x="734.0" y="1395.0" type="curve" smooth="yes"/>
      <point x="571.0" y="5.0" type="line" smooth="yes"/>
      <point x="570.0" y="1.5"/>
      <point x="570.0" y="0.0"/>
      <point x="565.0" y="0.0" type="curve" smooth="yes"/>
      <point x="350.0" y="0.0" type="line" smooth="yes"/>
      <point x="345.0" y="0.0"/>
      <point x="345.0" y="1.5"/>
      <point x="346.0" y="5.0" type="curve" smooth="yes"/>
      <point x="509.0" y="1395.0" type="line" smooth="yes"/>
      <point x="510.0" y="1398.5"/>
      <point x="510.0" y="1400.0"/>
    </contour>
    <contour>
      <point x="230.0" y="1400.0" type="curve" smooth="yes"/>
      <point x="445.0" y="1400.0" type="line" smooth="yes"/>
      <point x="448.5" y="1400.0"/>
      <point x="450.0" y="1398.5"/>
      <point x="449.0" y="1395.0" type="curve" smooth="yes"/>
      <point x="286.0" y="5.0" type="line" smooth="yes"/>
      <point x="285.0" y="1.5"/>
      <point x="283.5" y="0.0"/>
      <point x="280.0" y="0.0" type="curve" smooth="yes"/>
      <point x="65.0" y="0.0" type="line" smooth="yes"/>
      <point x="61.5" y="0.0"/>
      <point x="60.0" y="1.5"/>
      <point x="61.0" y="5.0" type="curve" smooth="yes"/>
      <point x="224.0" y="1395.0" type="line" smooth="yes"/>
      <point x="225.0" y="1398.5"/>
      <point x="226.5" y="1400.0"/>
    </contour>
  </outline>
</glyph>
<glyph name="dollar" format="2">
  <advance height="1920" width="564"/>
  <unicode hex="0024"/>
  <outline>
    <contour>
      <point x="14.0" y="488.0" type="curve" smooth="yes"/>
      <point x="200.0" y="488.0" type="line" smooth="yes"/>
      <point x="201.0" y="488.0"/>
      <point x="204.0" y="487.0"/>
      <point x="204.0" y="480.0" type="curve" smooth="yes"/>
      <point x="204.0" y="320.0" type="line" smooth="yes"/>
      <point x="204.0" y="206.0"/>
      <point x="204.0" y="155.0"/>
      <point x="274.0" y="155.0" type="curve" smooth="yes"/>
      <point x="328.0" y="155.0"/>
      <point x="344.0" y="217.0"/>
      <point x="344.0" y="338.0" type="curve" smooth="yes"/>
      <point x="344.0" y="462.0"/>
      <point x="312.666992188" y="561.213867188"/>
      <point x="234.0" y="644.0" type="curve" smooth="yes"/>
      <point x="98.001953125" y="787.119140625"/>
      <point x="12.0" y="875.0"/>
      <point x="12.0" y="1123.0" type="curve" smooth="yes"/>
      <point x="12.0" y="1303.0"/>
      <point x="83.0" y="1435.0"/>
      <point x="264.0" y="1435.0" type="curve" smooth="yes"/>
      <point x="446.0" y="1435.0"/>
      <point x="520.0" y="1336.0"/>
      <point x="520.0" y="1121.0" type="curve" smooth="yes"/>
      <point x="520.0" y="971.0" type="line" smooth="yes"/>
      <point x="520.0" y="964.0"/>
      <point x="517.0" y="963.0"/>
      <point x="514.0" y="963.0" type="curve" smooth="yes"/>
      <point x="350.0" y="963.0" type="line" smooth="yes"/>
      <point x="347.0" y="963.0"/>
      <point x="344.0" y="964.0"/>
      <point x="344.0" y="971.0" type="curve" smooth="yes"/>
      <point x="344.0" y="1131.0" type="line" smooth="yes"/>
      <point x="344.0" y="1206.0"/>
      <point x="327.0" y="1265.0"/>
      <point x="269.0" y="1265.0" type="curve" smooth="yes"/>
      <point x="233.0" y="1265.0"/>
      <point x="210.0" y="1203.0"/>
      <point x="210.0" y="1113.0" type="curve" smooth="yes"/>
      <point x="210.0" y="1062.0"/>
      <point x="215.034179688" y="911.638671875"/>
      <point x="328.0" y="812.0" type="curve" smooth="yes"/>
      <point x="464.47265625" y="691.627929688"/>
      <point x="554.0" y="597.0"/>
      <point x="554.0" y="348.0" type="curve" smooth="yes"/>
      <point x="554.0" y="71.0"/>
      <point x="464.0" y="-35.0"/>
      <point x="264.0" y="-35.0" type="curve" smooth="yes"/>
      <point x="80.0" y="-35.0"/>
      <point x="10.0" y="63.0"/>
      <point x="10.0" y="319.0" type="curve" smooth="yes"/>
      <point x="10.0" y="479.0" type="line" smooth="yes"/>
      <point x="10.0" y="486.0"/>
      <point x="13.0" y="488.0"/>
    </contour>
    <contour>
      <point x="255.0" y="1590.0" type="curve" smooth="yes"/>
      <point x="285.0" y="1590.0" type="line" smooth="yes"/>
      <point x="289.0" y="1590.0"/>
      <point x="290.0" y="1587.0"/>
      <point x="290.0" y="1580.0" type="curve" smooth="yes"/>
      <point x="290.0" y="-180.0" type="line" smooth="yes"/>
      <point x="290.0" y="-187.0"/>
      <point x="289.0" y="-190.0"/>
      <point x="285.0" y="-190.0" type="curve" smooth="yes"/>
      <point x="255.0" y="-190.0" type="line" smooth="yes"/>
      <point x="251.0" y="-190.0"/>
      <point x="250.0" y="-187.0"/>
      <point x="250.0" y="-180.0" type="curve" smooth="yes"/>
      <point x="250.0" y="1580.0" type="line" smooth="yes"/>
      <point x="250.0" y="1587.0"/>
      <point x="251.0" y="1590.0"/>
    </contour>
  </outline>
</glyph>
<glyph name="ampersand" format="2">
  <advance height="1920" width="851"/>
  <unicode hex="0026"/>
  <outline>
    <contour>
      <point x="515.0" y="5.0" type="curve" smooth="yes"/>
      <point x="193.0" y="1034.0" type="line" smooth="yes"/>
      <point x="164.143554688" y="1132.32617188"/>
      <point x="153.0" y="1201.0"/>
      <point x="153.0" y="1257.0" type="curve" smooth="yes"/>
      <point x="153.0" y="1342.0"/>
      <point x="213.0" y="1417.0"/>
      <point x="387.0" y="1417.0" type="curve" smooth="yes"/>
      <point x="575.0" y="1417.0"/>
      <point x="634.0" y="1336.0"/>
      <point x="634.0" y="1221.0" type="curve" smooth="yes"/>
      <point x="634.0" y="1077.0"/>
      <point x="458.618164062" y="942.092773438"/>
      <point x="348.0" y="885.0" type="curve" smooth="yes"/>
      <point x="286.0" y="853.0"/>
      <point x="255.0" y="763.0"/>
      <point x="255.0" y="691.0" type="curve" smooth="yes"/>
      <point x="255.0" y="641.0"/>
      <point x="261.522783653" y="616.678358069"/>
      <point x="284.0" y="546.0" type="curve" smooth="yes"/>
      <point x="379.0" y="246.0" type="line" smooth="yes"/>
      <point x="390.729888384" y="208.958247207"/>
      <point x="402.0" y="198.0"/>
      <point x="423.0" y="198.0" type="curve" smooth="yes"/>
      <point x="544.0" y="198.0"/>
      <point x="616.0" y="540.0"/>
      <point x="655.0" y="637.0" type="curve" smooth="yes"/>
      <point x="656.0" y="639.0"/>
      <point x="658.0" y="641.0"/>
      <point x="662.0" y="641.0" type="curve" smooth="yes"/>
      <point x="847.0" y="641.0" type="line" smooth="yes"/>
      <point x="851.0" y="641.0"/>
      <point x="852.0" y="639.0"/>
      <point x="850.0" y="635.0" type="curve" smooth="yes"/>
      <point x="752.0" y="430.0"/>
      <point x="539.0" y="-17.0"/>
      <point x="335.0" y="-17.0" type="curve" smooth="yes"/>
      <point x="207.0" y="-17.0"/>
      <point x="173.092191191" y="58.1255834293"/>
      <point x="121.0" y="210.0" type="curve" smooth="yes"/>
      <point x="50.0" y="417.0" type="line" smooth="yes"/>
      <point x="19.4674541284" y="504.896722964"/>
      <point x="10.0" y="583.0"/>
      <point x="10.0" y="651.0" type="curve" smooth="yes"/>
      <point x="10.0" y="775.0"/>
      <point x="119.52734375" y="907.689453125"/>
      <point x="313.0" y="988.0" type="curve" smooth="yes"/>
      <point x="426.284179688" y="1035.02441406"/>
      <point x="457.0" y="1180.0"/>
      <point x="457.0" y="1230.0" type="curve" smooth="yes"/>
      <point x="457.0" y="1262.0"/>
      <point x="439.0" y="1275.0"/>
      <point x="421.0" y="1275.0" type="curve" smooth="yes"/>
      <point x="403.0" y="1275.0"/>
      <point x="389.0" y="1258.0"/>
      <point x="389.0" y="1231.0" type="curve" smooth="yes"/>
      <point x="389.0" y="1207.0"/>
      <point x="403.649414062" y="1155.45996094"/>
      <point x="418.0" y="1105.0" type="curve" smooth="yes"/>
      <point x="770.0" y="5.0" type="line" smooth="yes"/>
      <point x="772.0" y="1.0"/>
      <point x="772.0" y="0.0"/>
      <point x="768.0" y="0.0" type="curve" smooth="yes"/>
      <point x="523.0" y="0.0" type="line" smooth="yes"/>
      <point x="519.0" y="0.0"/>
      <point x="517.0" y="1.0"/>
    </contour>
  </outline>
</glyph>
<glyph name="quotesingle" format="2">
  <advance height="1920" width="360"/>
  <unicode hex="0027"/>
  <outline>
    <contour>
      <point x="210.0" y="830.0" type="curve" smooth="yes"/>
      <point x="140.0" y="830.0" type="line" smooth="yes"/>
      <point x="133.0" y="830.0"/>
      <point x="129.159179688" y="833.197265625"/>
      <point x="128.0" y="840.0" type="curve" smooth="yes"/>
      <point x="72.0" y="1160.0" type="line" smooth="yes"/>
      <point x="70.8408203125" y="1166.80273438"/>
      <point x="70.0" y="1173.0"/>
      <point x="70.0" y="1180.0" type="curve" smooth="yes"/>
      <point x="70.0" y="1410.0" type="line" smooth="yes"/>
      <point x="70.0" y="1417.0"/>
      <point x="73.0" y="1420.0"/>
      <point x="80.0" y="1420.0" type="curve" smooth="yes"/>
      <point x="280.0" y="1420.0" type="line" smooth="yes"/>
      <point x="287.0" y="1420.0"/>
      <point x="290.0" y="1417.0"/>
      <point x="290.0" y="1410.0" type="curve" smooth="yes"/>
      <point x="290.0" y="1180.0" type="line" smooth="yes"/>
      <point x="290.0" y="1173.0"/>
      <point x="289.159179688" y="1166.80273438"/>
      <point x="288.0" y="1160.0" type="curve" smooth="yes"/>
      <point x="222.0" y="840.0" type="line" smooth="yes"/>
      <point x="220.840820312" y="833.197265625"/>
      <point x="217.0" y="830.0"/>
    </contour>
  </outline>
</glyph>
<glyph name="parenright" format="2">
  <advance height="2048" width="332"/>
  <unicode hex="0029"/>
  <outline>
    <contour>
      <point x="322.0" y="22.0" type="line" smooth="yes"/>
      <point x="322.0" y="-180.0"/>
      <point x="237.0" y="-340.0"/>
      <point x="22.0" y="-368.0" type="curve" smooth="yes"/>
      <point x="18.0" y="-369.0"/>
      <point x="17.0" y="-368.0"/>
      <point x="17.0" y="-364.0" type="curve" smooth="yes"/>
      <point x="17.0" y="-254.0" type="line" smooth="yes"/>
      <point x="17.0" y="-251.0"/>
      <point x="19.0" y="-249.0"/>
      <point x="22.0" y="-247.0" type="curve" smooth="yes"/>
      <point x="71.0" y="-221.0"/>
      <point x="84.0" y="-163.0"/>
      <point x="84.0" y="37.0" type="curve" smooth="yes"/>
      <point x="84.0" y="1213.0" type="line" smooth="yes"/>
      <point x="84.0" y="1413.0"/>
      <point x="71.0" y="1471.0"/>
      <point x="22.0" y="1497.0" type="curve" smooth="yes"/>
      <point x="19.0" y="1499.0"/>
      <point x="17.0" y="1501.0"/>
      <point x="17.0" y="1504.0" type="curve" smooth="yes"/>
      <point x="17.0" y="1614.0" type="line" smooth="yes"/>
      <point x="17.0" y="1618.0"/>
      <point x="18.0" y="1619.0"/>
      <point x="22.0" y="1618.0" type="curve" smooth="yes"/>
      <point x="237.0" y="1590.0"/>
      <point x="322.0" y="1430.0"/>
      <point x="322.0" y="1228.0" type="curve" smooth="yes"/>
    </contour>
  </outline>
</glyph>
<glyph name="asterisk" format="2">
  <advance height="2048" width="644"/>
  <unicode hex="002A"/>
  <outline>
    <contour>
      <point x="328.0" y="1204.0" type="line"/>
      <point x="316.0" y="1236.0" type="line"/>
      <point x="475.0" y="1393.0" type="line" smooth="yes"/>
      <point x="478.0" y="1395.0"/>
      <point x="481.0" y="1396.0"/>
      <point x="485.0" y="1396.0" type="curve" smooth="yes"/>
      <point x="568.0" y="1419.0" type="line" smooth="yes"/>
      <point x="572.0" y="1419.0"/>
      <point x="573.0" y="1419.0"/>
      <point x="574.0" y="1415.0" type="curve" smooth="yes"/>
      <point x="641.0" y="1210.0" type="line" smooth="yes"/>
      <point x="642.0" y="1206.0"/>
      <point x="640.0" y="1206.0"/>
      <point x="637.0" y="1204.0" type="curve" smooth="yes"/>
      <point x="558.0" y="1174.0" type="line" smooth="yes"/>
      <point x="555.0" y="1172.0"/>
      <point x="552.0" y="1171.0"/>
      <point x="548.0" y="1171.0" type="curve" smooth="yes"/>
    </contour>
    <contour>
      <point x="307.0" y="1210.0" type="line"/>
      <point x="335.0" y="1231.0" type="line"/>
      <point x="533.0" y="1128.0" type="line" smooth="yes"/>
      <point x="535.0" y="1126.0"/>
      <point x="537.0" y="1123.0"/>
      <point x="539.0" y="1120.0" type="curve" smooth="yes"/>
      <point x="586.0" y="1048.0" type="line" smooth="yes"/>
      <point x="588.0" y="1045.0"/>
      <point x="588.0" y="1043.0"/>
      <point x="585.0" y="1041.0" type="curve" smooth="yes"/>
      <point x="411.0" y="914.0" type="line" smooth="yes"/>
      <point x="408.0" y="912.0"/>
      <point x="405.0" y="914.0"/>
      <point x="403.0" y="916.0" type="curve" smooth="yes"/>
      <point x="350.0" y="982.0" type="line" smooth="yes"/>
      <point x="348.0" y="984.0"/>
      <point x="346.0" y="987.0"/>
      <point x="344.0" y="990.0" type="curve" smooth="yes"/>
    </contour>
    <contour>
      <point x="308.0" y="1230.0" type="line"/>
      <point x="336.0" y="1210.0" type="line"/>
      <point x="299.0" y="990.0" type="line" smooth="yes"/>
      <point x="297.0" y="987.0"/>
      <point x="295.0" y="984.0"/>
      <point x="293.0" y="982.0" type="curve" smooth="yes"/>
      <point x="240.0" y="915.0" type="line" smooth="yes"/>
      <point x="238.0" y="913.0"/>
      <point x="236.0" y="912.0"/>
      <point x="233.0" y="914.0" type="curve" smooth="yes"/>
      <point x="59.0" y="1040.0" type="line" smooth="yes"/>
      <point x="56.0" y="1042.0"/>
      <point x="55.0" y="1045.0"/>
      <point x="57.0" y="1048.0" type="curve" smooth="yes"/>
      <point x="104.0" y="1119.0" type="line" smooth="yes"/>
      <point x="106.0" y="1122.0"/>
      <point x="108.0" y="1125.0"/>
      <point x="110.0" y="1127.0" type="curve" smooth="yes"/>
    </contour>
    <contour>
      <point x="327.0" y="1236.0" type="line"/>
      <point x="316.0" y="1203.0" type="line"/>
      <point x="95.0" y="1170.0" type="line" smooth="yes"/>
      <point x="91.0" y="1170.0"/>
      <point x="89.0" y="1172.0"/>
      <point x="86.0" y="1174.0" type="curve" smooth="yes"/>
      <point x="6.0" y="1204.0" type="line" smooth="yes"/>
      <point x="3.0" y="1206.0"/>
      <point x="2.0" y="1206.0"/>
      <point x="3.0" y="1210.0" type="curve" smooth="yes"/>
      <point x="69.0" y="1414.0" type="line" smooth="yes"/>
      <point x="70.0" y="1418.0"/>
      <point x="72.0" y="1418.0"/>
      <point x="76.0" y="1418.0" type="curve" smooth="yes"/>
      <point x="158.0" y="1396.0" type="line" smooth="yes"/>
      <point x="162.0" y="1396.0"/>
      <point x="164.0" y="1394.0"/>
      <point x="167.0" y="1392.0" type="curve" smooth="yes"/>
    </contour>
    <contour>
      <point x="339.0" y="1220.0" type="line"/>
      <point x="304.0" y="1220.0" type="line"/>
      <point x="205.0" y="1420.0" type="line" smooth="yes"/>
      <point x="205.0" y="1424.0"/>
      <point x="205.0" y="1426.0"/>
      <point x="205.0" y="1430.0" type="curve" smooth="yes"/>
      <point x="209.0" y="1515.0" type="line" smooth="yes"/>
      <point x="209.0" y="1519.0"/>
      <point x="210.0" y="1520.0"/>
      <point x="214.0" y="1520.0" type="curve" smooth="yes"/>
      <point x="429.0" y="1520.0" type="line" smooth="yes"/>
      <point x="433.0" y="1520.0"/>
      <point x="435.0" y="1519.0"/>
      <point x="435.0" y="1515.0" type="curve" smooth="yes"/>
      <point x="439.0" y="1430.0" type="line" smooth="yes"/>
      <point x="439.0" y="1426.0"/>
      <point x="439.0" y="1424.0"/>
      <point x="439.0" y="1420.0" type="curve" smooth="yes"/>
    </contour>
  </outline>
</glyph>
<glyph name="plus" format="2">
  <advance height="1920" width="520"/>
  <unicode hex="002B"/>
  <outline>
    <contour>
      <point x="22.0" y="602.0" type="curve" smooth="yes"/>
      <point x="22.0" y="770.0" type="line" smooth="yes"/>
      <point x="22.0" y="774.0"/>
      <point x="24.0" y="775.0"/>
      <point x="28.0" y="775.0" type="curve" smooth="yes"/>
      <point x="492.0" y="775.0" type="line" smooth="yes"/>
      <point x="496.0" y="775.0"/>
      <point x="498.0" y="774.0"/>
      <point x="498.0" y="770.0" type="curve" smooth="yes"/>
      <point x="498.0" y="602.0" type="line" smooth="yes"/>
      <point x="498.0" y="598.0"/>
      <point x="496.0" y="598.0"/>
      <point x="492.0" y="598.0" type="curve" smooth="yes"/>
      <point x="28.0" y="598.0" type="line" smooth="yes"/>
      <point x="24.0" y="598.0"/>
      <point x="22.0" y="598.0"/>
    </contour>
    <contour>
      <point x="178.0" y="935.0" type="curve" smooth="yes"/>
      <point x="342.0" y="935.0" type="line" smooth="yes"/>
      <point x="346.0" y="935.0"/>
      <point x="348.0" y="934.0"/>
      <point x="348.0" y="930.0" type="curve" smooth="yes"/>
      <point x="348.0" y="430.0" type="line" smooth="yes"/>
      <point x="348.0" y="426.0"/>
      <point x="346.0" y="425.0"/>
      <point x="342.0" y="425.0" type="curve" smooth="yes"/>
      <point x="178.0" y="425.0" type="line" smooth="yes"/>
      <point x="174.0" y="425.0"/>
      <point x="172.0" y="426.0"/>
      <point x="172.0" y="430.0" type="curve" smooth="yes"/>
      <point x="172.0" y="930.0" type="line" smooth="yes"/>
      <point x="172.0" y="934.0"/>
      <point x="174.0" y="935.0"/>
    </contour>
  </outline>
</glyph>
<glyph name="comma" format="2">
  <advance height="1920" width="400"/>
  <unicode hex="002C"/>
  <outline>
    <contour>
      <point x="93.0" y="-310.0" type="curve" smooth="yes"/>
      <point x="57.0" y="-310.0" type="line" smooth="yes"/>
      <point x="50.0" y="-310.0"/>
      <point x="46.5590180776" y="-307.646626494"/>
      <point x="50.0" y="-300.0" type="curve" smooth="yes"/>
      <point x="175.0" y="0.0" type="line"/>
      <point x="85.0" y="0.0" type="line" smooth="yes"/>
      <point x="76.4794921875" y="0.0"/>
      <point x="75.0" y="1.404296875"/>
      <point x="75.0" y="10.0" type="curve" smooth="yes"/>
      <point x="75.0" y="350.0" type="line" smooth="yes"/>
      <point x="75.0" y="357.0"/>
      <point x="78.0" y="360.0"/>
      <point x="85.0" y="360.0" type="curve" smooth="yes"/>
      <point x="315.0" y="360.0" type="line" smooth="yes"/>
      <point x="322.0" y="360.0"/>
      <point x="325.0" y="357.0"/>
      <point x="325.0" y="350.0" type="curve" smooth="yes"/>
      <point x="325.0" y="20.0" type="line" smooth="yes"/>
      <point x="325.0" y="13.0"/>
      <point x="324.279899046" y="8.56199845291"/>
      <point x="319.0" y="0.0" type="curve" smooth="yes"/>
      <point x="114.0" y="-300.0" type="line" smooth="yes"/>
      <point x="109.061523438" y="-308.140625"/>
      <point x="101.0" y="-310.0"/>
    </contour>
  </outline>
</glyph>
<glyph name="hyphen" format="2">
  <advance height="1920" width="285"/>
  <unicode hex="002D"/>
  <outline>
    <contour>
      <point x="20.0" y="528.75" type="curve" smooth="yes"/>
      <point x="20.0" y="696.25" type="line" smooth="yes"/>
      <point x="20.0" y="699.75"/>
      <point x="21.5" y="701.25"/>
      <point x="25.0" y="701.25" type="curve" smooth="yes"/>
      <point x="260.0" y="701.25" type="line" smooth="yes"/>
      <point x="263.5" y="701.25"/>
      <point x="265.0" y="699.75"/>
      <point x="265.0" y="696.25" type="curve" smooth="yes"/>
      <point x="265.0" y="528.75" type="line" smooth="yes"/>
      <point x="265.0" y="525.25"/>
      <point x="263.5" y="523.75"/>
      <point x="260.0" y="523.75" type="curve" smooth="yes"/>
      <point x="25.0" y="523.75" type="line" smooth="yes"/>
      <point x="21.5" y="523.75"/>
      <point x="20.0" y="525.25"/>
    </contour>
  </outline>
</glyph>
<glyph name="period" format="2">
  <advance height="1920" width="400"/>
  <unicode hex="002E"/>
  <outline>
    <contour>
      <point x="315.0" y="0.0" type="curve" smooth="yes"/>
      <point x="85.0" y="0.0" type="line" smooth="yes"/>
      <point x="78.0" y="0.0"/>
      <point x="75.0" y="3.0"/>
      <point x="75.0" y="10.0" type="curve" smooth="yes"/>
      <point x="75.0" y="350.0" type="line" smooth="yes"/>
      <point x="75.0" y="357.0"/>
      <point x="78.0" y="360.0"/>
      <point x="85.0" y="360.0" type="curve" smooth="yes"/>
      <point x="315.0" y="360.0" type="line" smooth="yes"/>
      <point x="322.0" y="360.0"/>
      <point x="325.0" y="357.0"/>
      <point x="325.0" y="350.0" type="curve" smooth="yes"/>
      <point x="325.0" y="10.0" type="line" smooth="yes"/>
      <point x="325.0" y="3.0"/>
      <point x="322.0" y="0.0"/>
    </contour>
  </outline>
</glyph>
<glyph name="slash" format="2">
  <advance height="2048" width="520"/>
  <unicode hex="002F"/>
  <outline>
    <contour>
      <point x="498.0" y="1395.0" type="curve" smooth="yes"/>
      <point x="190.0" y="-95.0" type="line" smooth="yes"/>
      <point x="188.0" y="-99.0"/>
      <point x="186.0" y="-100.0"/>
      <point x="182.0" y="-100.0" type="curve" smooth="yes"/>
      <point x="12.0" y="-100.0" type="line" smooth="yes"/>
      <point x="8.0" y="-100.0"/>
      <point x="8.0" y="-99.0"/>
      <point x="10.0" y="-95.0" type="curve" smooth="yes"/>
      <point x="318.0" y="1395.0" type="line" smooth="yes"/>
      <point x="320.0" y="1399.0"/>
      <point x="322.0" y="1400.0"/>
      <point x="325.0" y="1400.0" type="curve" smooth="yes"/>
      <point x="495.0" y="1400.0" type="line" smooth="yes"/>
      <point x="499.0" y="1400.0"/>
      <point x="500.0" y="1399.0"/>
    </contour>
  </outline>
</glyph>
<glyph name="one" format="2">
  <advance height="1920" width="320"/>
  <unicode hex="0031"/>
  <outline>
    <contour>
      <point x="43.0" y="1362.0" type="curve" smooth="yes"/>
      <point x="114.0" y="1363.0"/>
      <point x="139.0" y="1384.0"/>
      <point x="144.0" y="1420.0" type="curve" smooth="yes"/>
      <point x="145.0" y="1424.0"/>
      <point x="147.0" y="1425.0"/>
      <point x="150.0" y="1425.0" type="curve" smooth="yes"/>
      <point x="278.0" y="1425.0" type="line" smooth="yes"/>
      <point x="282.0" y="1425.0"/>
      <point x="282.0" y="1424.0"/>
      <point x="282.0" y="1420.0" type="curve" smooth="yes"/>
      <point x="282.0" y="5.0" type="line" smooth="yes"/>
      <point x="282.0" y="1.0"/>
      <point x="282.0" y="0.0"/>
      <point x="278.0" y="0.0" type="curve" smooth="yes"/>
      <point x="42.0" y="0.0" type="line" smooth="yes"/>
      <point x="38.0" y="0.0"/>
      <point x="38.0" y="1.0"/>
      <point x="38.0" y="5.0" type="curve" smooth="yes"/>
      <point x="38.0" y="1357.0" type="line" smooth="yes"/>
      <point x="38.0" y="1360.0"/>
      <point x="39.0" y="1362.0"/>
    </contour>
  </outline>
</glyph>
<glyph name="two" format="2">
  <advance height="1920" width="580"/>
  <unicode hex="0032"/>
  <outline>
    <contour>
      <point x="15.0" y="30.0" type="line" smooth="yes"/>
      <point x="15.0" y="502.0"/>
      <point x="308.0" y="588.0"/>
      <point x="308.0" y="937.0" type="curve" smooth="yes"/>
      <point x="308.0" y="1159.0" type="line" smooth="yes"/>
      <point x="308.0" y="1219.0"/>
      <point x="305.0" y="1243.0"/>
      <point x="287.0" y="1243.0" type="curve" smooth="yes"/>
      <point x="270.0" y="1243.0"/>
      <point x="268.0" y="1217.0"/>
      <point x="268.0" y="1161.0" type="curve" smooth="yes"/>
      <point x="268.0" y="817.0" type="line" smooth="yes"/>
      <point x="268.0" y="813.0"/>
      <point x="266.0" y="812.0"/>
      <point x="262.0" y="812.0" type="curve" smooth="yes"/>
      <point x="32.0" y="812.0" type="line" smooth="yes"/>
      <point x="28.0" y="812.0"/>
      <point x="28.0" y="813.0"/>
      <point x="28.0" y="817.0" type="curve" smooth="yes"/>
      <point x="28.0" y="1131.0" type="line" smooth="yes"/>
      <point x="28.0" y="1298.0"/>
      <point x="102.0" y="1417.0"/>
      <point x="300.0" y="1417.0" type="curve" smooth="yes"/>
      <point x="464.0" y="1417.0"/>
      <point x="548.0" y="1311.0"/>
      <point x="548.0" y="1151.0" type="curve" smooth="yes"/>
      <point x="548.0" y="999.0" type="line" smooth="yes"/>
      <point x="548.0" y="591.0"/>
      <point x="260.0" y="416.0"/>
      <point x="260.0" y="190.0" type="curve" smooth="yes"/>
      <point x="260.0" y="185.0" type="line"/>
      <point x="560.0" y="185.0" type="line" smooth="yes"/>
      <point x="564.0" y="185.0"/>
      <point x="565.0" y="184.0"/>
      <point x="565.0" y="180.0" type="curve" smooth="yes"/>
      <point x="565.0" y="5.0" type="line" smooth="yes"/>
      <point x="565.0" y="1.0"/>
      <point x="564.0" y="0.0"/>
      <point x="560.0" y="0.0" type="curve" smooth="yes"/>
      <point x="20.0" y="0.0" type="line" smooth="yes"/>
      <point x="16.0" y="0.0"/>
      <point x="15.0" y="1.0"/>
      <point x="15.0" y="5.0" type="curve" smooth="yes"/>
    </contour>
  </outline>
</glyph>
<glyph name="three" format="2">
  <advance height="1920" width="576"/>
  <unicode hex="0033"/>
  <outline>
    <contour>
      <point x="26.0" y="457.0" type="curve" smooth="yes"/>
      <point x="261.0" y="457.0" type="line" smooth="yes"/>
      <point x="265.0" y="457.0"/>
      <point x="266.0" y="455.0"/>
      <point x="266.0" y="451.0" type="curve" smooth="yes"/>
      <point x="266.0" y="264.0" type="line" smooth="yes"/>
      <point x="266.0" y="204.0"/>
      <point x="266.0" y="158.0"/>
      <point x="290.0" y="158.0" type="curve" smooth="yes"/>
      <point x="314.0" y="158.0"/>
      <point x="314.0" y="196.0"/>
      <point x="314.0" y="261.0" type="curve" smooth="yes"/>
      <point x="314.0" y="544.0" type="line" smooth="yes"/>
      <point x="314.0" y="589.0"/>
      <point x="309.0" y="620.0"/>
      <point x="261.0" y="620.0" type="curve" smooth="yes"/>
      <point x="221.0" y="620.0" type="line" smooth="yes"/>
      <point x="217.0" y="620.0"/>
      <point x="216.0" y="621.0"/>
      <point x="216.0" y="625.0" type="curve" smooth="yes"/>
      <point x="216.0" y="790.0" type="line" smooth="yes"/>
      <point x="216.0" y="794.0"/>
      <point x="217.0" y="795.0"/>
      <point x="221.0" y="795.0" type="curve" smooth="yes"/>
      <point x="251.0" y="795.0" type="line" smooth="yes"/>
      <point x="294.0" y="795.0"/>
      <point x="306.0" y="816.0"/>
      <point x="306.0" y="856.0" type="curve" smooth="yes"/>
      <point x="306.0" y="1154.0" type="line" smooth="yes"/>
      <point x="306.0" y="1214.0"/>
      <point x="303.0" y="1241.0"/>
      <point x="281.0" y="1241.0" type="curve" smooth="yes"/>
      <point x="260.0" y="1241.0"/>
      <point x="258.0" y="1206.0"/>
      <point x="258.0" y="1155.0" type="curve" smooth="yes"/>
      <point x="258.0" y="957.0" type="line" smooth="yes"/>
      <point x="258.0" y="953.0"/>
      <point x="258.0" y="952.0"/>
      <point x="254.0" y="952.0" type="curve" smooth="yes"/>
      <point x="24.0" y="952.0" type="line" smooth="yes"/>
      <point x="20.0" y="952.0"/>
      <point x="18.0" y="953.0"/>
      <point x="18.0" y="957.0" type="curve" smooth="yes"/>
      <point x="18.0" y="1185.0" type="line" smooth="yes"/>
      <point x="18.0" y="1302.0"/>
      <point x="82.0" y="1417.0"/>
      <point x="286.0" y="1417.0" type="curve" smooth="yes"/>
      <point x="490.0" y="1417.0"/>
      <point x="554.0" y="1297.0"/>
      <point x="554.0" y="1182.0" type="curve" smooth="yes"/>
      <point x="554.0" y="919.0" type="line" smooth="yes"/>
      <point x="554.0" y="754.0"/>
      <point x="459.0" y="700.0"/>
      <point x="281.0" y="700.0" type="curve"/>
      <point x="291.0" y="725.0" type="line"/>
      <point x="469.0" y="725.0"/>
      <point x="558.0" y="676.0"/>
      <point x="558.0" y="501.0" type="curve" smooth="yes"/>
      <point x="558.0" y="264.0" type="line" smooth="yes"/>
      <point x="558.0" y="94.0"/>
      <point x="489.0" y="-18.0"/>
      <point x="261.0" y="-18.0" type="curve" smooth="yes"/>
      <point x="65.0" y="-18.0"/>
      <point x="21.0" y="85.0"/>
      <point x="21.0" y="234.0" type="curve" smooth="yes"/>
      <point x="21.0" y="451.0" type="line" smooth="yes"/>
      <point x="21.0" y="455.0"/>
      <point x="22.0" y="457.0"/>
    </contour>
  </outline>
</glyph>
<glyph name="four" format="2">
  <advance height="1920" width="575"/>
  <unicode hex="0034"/>
  <outline>
    <contour>
      <point x="575.0" y="495.0" type="curve" smooth="yes"/>
      <point x="575.0" y="330.0" type="line" smooth="yes"/>
      <point x="575.0" y="326.0"/>
      <point x="574.0" y="325.0"/>
      <point x="570.0" y="325.0" type="curve" smooth="yes"/>
      <point x="480.0" y="325.0" type="line"/>
      <point x="480.0" y="5.0" type="line" smooth="yes"/>
      <point x="480.0" y="1.0"/>
      <point x="479.0" y="0.0"/>
      <point x="475.0" y="0.0" type="curve" smooth="yes"/>
      <point x="240.0" y="0.0" type="line" smooth="yes"/>
      <point x="236.0" y="0.0"/>
      <point x="235.0" y="1.0"/>
      <point x="235.0" y="5.0" type="curve" smooth="yes"/>
      <point x="235.0" y="325.0" type="line"/>
      <point x="15.0" y="325.0" type="line" smooth="yes"/>
      <point x="11.0" y="325.0"/>
      <point x="10.0" y="326.0"/>
      <point x="10.0" y="330.0" type="curve" smooth="yes"/>
      <point x="10.0" y="545.0" type="line" smooth="yes"/>
      <point x="10.0" y="549.0"/>
      <point x="12.4388140609" y="560.500748856"/>
      <point x="14.0" y="565.0" type="curve" smooth="yes"/>
      <point x="222.0" y="1395.0" type="line" smooth="yes"/>
      <point x="224.0" y="1398.0"/>
      <point x="226.0" y="1400.0"/>
      <point x="230.0" y="1400.0" type="curve" smooth="yes"/>
      <point x="475.0" y="1400.0" type="line" smooth="yes"/>
      <point x="479.0" y="1400.0"/>
      <point x="480.0" y="1399.0"/>
      <point x="480.0" y="1395.0" type="curve" smooth="yes"/>
      <point x="480.0" y="500.0" type="line"/>
      <point x="570.0" y="500.0" type="line" smooth="yes"/>
      <point x="574.0" y="500.0"/>
      <point x="575.0" y="499.0"/>
    </contour>
    <contour>
      <point x="240.0" y="500.0" type="line"/>
      <point x="240.0" y="1000.0" type="line"/>
      <point x="142.0" y="500.0" type="line"/>
    </contour>
  </outline>
</glyph>
<glyph name="five" format="2">
  <advance height="1920" width="600"/>
  <unicode hex="0035"/>
  <outline>
    <contour>
      <point x="35.0" y="364.0" type="curve" smooth="yes"/>
      <point x="260.0" y="364.0" type="line" smooth="yes"/>
      <point x="263.0" y="364.0"/>
      <point x="265.0" y="362.162122344"/>
      <point x="265.0" y="359.0" type="curve" smooth="yes"/>
      <point x="265.0" y="180.0"/>
      <point x="274.0" y="152.0"/>
      <point x="298.0" y="152.0" type="curve" smooth="yes"/>
      <point x="327.0" y="152.0"/>
      <point x="330.0" y="193.0"/>
      <point x="330.0" y="379.0" type="curve" smooth="yes"/>
      <point x="330.0" y="631.0" type="line" smooth="yes"/>
      <point x="330.0" y="721.0"/>
      <point x="328.0" y="753.0"/>
      <point x="306.0" y="753.0" type="curve" smooth="yes"/>
      <point x="280.0" y="753.0"/>
      <point x="279.0" y="713.0"/>
      <point x="278.0" y="558.0" type="curve" smooth="yes"/>
      <point x="277.965261085" y="552.615468197"/>
      <point x="273.0" y="553.0"/>
      <point x="270.0" y="553.0" type="curve" smooth="yes"/>
      <point x="45.0" y="553.0" type="line" smooth="yes"/>
      <point x="41.0" y="553.0"/>
      <point x="39.0" y="553.0"/>
      <point x="40.0" y="557.0" type="curve" smooth="yes"/>
      <point x="95.0" y="1395.0" type="line" smooth="yes"/>
      <point x="96.0" y="1398.0"/>
      <point x="96.0" y="1400.0"/>
      <point x="100.0" y="1400.0" type="curve" smooth="yes"/>
      <point x="540.0" y="1400.0" type="line" smooth="yes"/>
      <point x="544.0" y="1400.0"/>
      <point x="546.0" y="1399.0"/>
      <point x="546.0" y="1395.0" type="curve" smooth="yes"/>
      <point x="546.0" y="1322.0" type="line" smooth="yes"/>
      <point x="546.0" y="1262.0"/>
      <point x="520.0" y="1225.0"/>
      <point x="410.0" y="1225.0" type="curve" smooth="yes"/>
      <point x="283.0" y="1225.0" type="line"/>
      <point x="240.0" y="694.0" type="line"/>
      <point x="229.0" y="694.0" type="line"/>
      <point x="236.0" y="866.0"/>
      <point x="290.0" y="929.0"/>
      <point x="400.0" y="929.0" type="curve" smooth="yes"/>
      <point x="520.0" y="929.0"/>
      <point x="575.0" y="865.0"/>
      <point x="575.0" y="651.0" type="curve" smooth="yes"/>
      <point x="575.0" y="379.0" type="line" smooth="yes"/>
      <point x="575.0" y="85.0"/>
      <point x="483.0" y="-18.0"/>
      <point x="278.0" y="-18.0" type="curve" smooth="yes"/>
      <point x="111.0" y="-18.0"/>
      <point x="38.0" y="55.0"/>
      <point x="30.0" y="359.0" type="curve" smooth="yes"/>
      <point x="29.8947783835" y="362.998421429"/>
      <point x="31.0" y="364.0"/>
    </contour>
  </outline>
</glyph>
<glyph name="seven" format="2">
  <advance height="1920" width="521"/>
  <unicode hex="0037"/>
  <outline>
    <contour>
      <point x="529.685827628" y="1395.0" type="curve" smooth="yes"/>
      <point x="339.685827628" y="5.0" type="line" smooth="yes"/>
      <point x="339.041131077" y="0.283535758593"/>
      <point x="336.718842161" y="0.0"/>
      <point x="331.685827628" y="0.0" type="curve" smooth="yes"/>
      <point x="77.685827628" y="0.0" type="line" smooth="yes"/>
      <point x="72.7732319985" y="0.0"/>
      <point x="72.872985911" y="1.1023573404"/>
      <point x="73.685827628" y="5.0" type="curve" smooth="yes"/>
      <point x="317.685827628" y="1175.0" type="line"/>
      <point x="41.685827628" y="1175.0" type="line" smooth="yes"/>
      <point x="37.8999364758" y="1175.0"/>
      <point x="37.685827628" y="1175.54710885"/>
      <point x="37.685827628" y="1180.0" type="curve" smooth="yes"/>
      <point x="37.685827628" y="1395.0" type="line" smooth="yes"/>
      <point x="37.685827628" y="1399.45289115"/>
      <point x="37.8999364758" y="1400.0"/>
      <point x="41.685827628" y="1400.0" type="curve" smooth="yes"/>
      <point x="525.685546875" y="1400.0" type="line" smooth="yes"/>
      <point x="529.646484375" y="1400.0"/>
      <point x="530.202385528" y="1398.77902885"/>
    </contour>
  </outline>
</glyph>
<glyph name="less" format="2">
  <advance height="1920" width="505"/>
  <unicode hex="003C"/>
  <outline>
    <contour>
      <point x="406.0" y="343.0" type="curve" smooth="yes"/>
      <point x="20.0" y="522.0" type="line" smooth="yes"/>
      <point x="16.0" y="524.0"/>
      <point x="16.0" y="526.0"/>
      <point x="16.0" y="530.0" type="curve" smooth="yes"/>
      <point x="16.0" y="670.0" type="line" smooth="yes"/>
      <point x="16.0" y="674.0"/>
      <point x="16.0" y="676.0"/>
      <point x="20.0" y="678.0" type="curve" smooth="yes"/>
      <point x="406.0" y="857.0" type="line" smooth="yes"/>
      <point x="410.0" y="859.0"/>
      <point x="410.0" y="859.0"/>
      <point x="410.0" y="855.0" type="curve" smooth="yes"/>
      <point x="410.0" y="675.0" type="line" smooth="yes"/>
      <point x="410.0" y="671.0"/>
      <point x="410.0" y="669.0"/>
      <point x="406.0" y="667.0" type="curve" smooth="yes"/>
      <point x="184.0" y="600.0" type="line"/>
      <point x="406.0" y="533.0" type="line" smooth="yes"/>
      <point x="410.0" y="531.0"/>
      <point x="410.0" y="529.0"/>
      <point x="410.0" y="525.0" type="curve" smooth="yes"/>
      <point x="410.0" y="345.0" type="line" smooth="yes"/>
      <point x="410.0" y="341.0"/>
      <point x="410.0" y="341.0"/>
    </contour>
  </outline>
</glyph>
<glyph name="equal" format="2">
  <advance height="1920" width="590"/>
  <unicode hex="003D"/>
  <outline>
    <contour>
      <point x="75.0" y="296.0" type="curve" smooth="yes"/>
      <point x="75.0" y="464.0" type="line" smooth="yes"/>
      <point x="75.0" y="468.0"/>
      <point x="76.0" y="469.0"/>
      <point x="80.0" y="469.0" type="curve" smooth="yes"/>
      <point x="510.0" y="469.0" type="line" smooth="yes"/>
      <point x="514.0" y="469.0"/>
      <point x="515.0" y="468.0"/>
      <point x="515.0" y="464.0" type="curve" smooth="yes"/>
      <point x="515.0" y="296.0" type="line" smooth="yes"/>
      <point x="515.0" y="292.0"/>
      <point x="514.0" y="291.0"/>
      <point x="510.0" y="291.0" type="curve" smooth="yes"/>
      <point x="80.0" y="291.0" type="line" smooth="yes"/>
      <point x="76.0" y="291.0"/>
      <point x="75.0" y="292.0"/>
    </contour>
    <contour>
      <point x="75.0" y="531.0" type="curve" smooth="yes"/>
      <point x="75.0" y="699.0" type="line" smooth="yes"/>
      <point x="75.0" y="703.0"/>
      <point x="76.0" y="704.0"/>
      <point x="80.0" y="704.0" type="curve" smooth="yes"/>
      <point x="510.0" y="704.0" type="line" smooth="yes"/>
      <point x="514.0" y="704.0"/>
      <point x="515.0" y="703.0"/>
      <point x="515.0" y="699.0" type="curve" smooth="yes"/>
      <point x="515.0" y="531.0" type="line" smooth="yes"/>
      <point x="515.0" y="527.0"/>
      <point x="514.0" y="526.0"/>
      <point x="510.0" y="526.0" type="curve" smooth="yes"/>
      <point x="80.0" y="526.0" type="line" smooth="yes"/>
      <point x="76.0" y="526.0"/>
      <point x="75.0" y="527.0"/>
    </contour>
  </outline>
</glyph>
<glyph name="at" format="2">
  <advance height="1920" width="935"/>
  <unicode hex="0040"/>
  <outline>
    <contour>
      <point x="522.0" y="199.0" type="line"/>
      <point x="522.0" y="54.0"/>
      <point x="534.0" y="-17.0"/>
      <point x="400.0" y="-17.0" type="curve" smooth="yes"/>
      <point x="292.0" y="-17.0"/>
      <point x="208.0" y="41.0"/>
      <point x="208.0" y="211.0" type="curve" smooth="yes"/>
      <point x="208.0" y="838.0" type="line" smooth="yes"/>
      <point x="208.0" y="998.0"/>
      <point x="298.0" y="1067.0"/>
      <point x="416.0" y="1067.0" type="curve" smooth="yes"/>
      <point x="544.0" y="1067.0"/>
      <point x="552.0" y="996.0"/>
      <point x="552.0" y="851.0" type="curve"/>
      <point x="478.0" y="841.0" type="line"/>
      <point x="478.0" y="891.0"/>
      <point x="476.0" y="921.0"/>
      <point x="453.0" y="921.0" type="curve" smooth="yes"/>
      <point x="429.0" y="921.0"/>
      <point x="428.0" y="901.0"/>
      <point x="428.0" y="851.0" type="curve" smooth="yes"/>
      <point x="428.0" y="199.0" type="line" smooth="yes"/>
      <point x="428.0" y="149.0"/>
      <point x="429.0" y="128.0"/>
      <point x="453.0" y="128.0" type="curve" smooth="yes"/>
      <point x="476.0" y="128.0"/>
      <point x="478.0" y="159.0"/>
      <point x="478.0" y="209.0" type="curve"/>
    </contour>
    <contour>
      <point x="616.0" y="-324.0" type="curve" smooth="yes"/>
      <point x="582.0" y="-354.0"/>
      <point x="522.0" y="-377.0"/>
      <point x="442.0" y="-377.0" type="curve" smooth="yes"/>
      <point x="124.0" y="-377.0"/>
      <point x="50.0" y="-191.0"/>
      <point x="50.0" y="49.0" type="curve" smooth="yes"/>
      <point x="50.0" y="990.0" type="line" smooth="yes"/>
      <point x="50.0" y="1245.0"/>
      <point x="214.0" y="1417.0"/>
      <point x="482.0" y="1417.0" type="curve" smooth="yes"/>
      <point x="786.0" y="1417.0"/>
      <point x="885.0" y="1212.0"/>
      <point x="885.0" y="1016.0" type="curve" smooth="yes"/>
      <point x="885.0" y="235.0" type="line" smooth="yes"/>
      <point x="885.0" y="55.0"/>
      <point x="799.0" y="-17.0"/>
      <point x="685.0" y="-17.0" type="curve" smooth="yes"/>
      <point x="581.0" y="-17.0"/>
      <point x="478.0" y="55.0"/>
      <point x="478.0" y="165.0" type="curve" smooth="yes"/>
      <point x="478.0" y="961.0" type="line"/>
      <point x="619.0" y="1061.0" type="line" smooth="yes"/>
      <point x="622.412109375" y="1063.41992188"/>
      <point x="627.0" y="1067.0"/>
      <point x="631.0" y="1067.0" type="curve" smooth="yes"/>
      <point x="692.0" y="1067.0" type="line" smooth="yes"/>
      <point x="696.0" y="1067.0"/>
      <point x="698.0" y="1065.0"/>
      <point x="698.0" y="1061.0" type="curve" smooth="yes"/>
      <point x="698.0" y="231.0" type="line" smooth="yes"/>
      <point x="698.0" y="134.0"/>
      <point x="711.0" y="103.0"/>
      <point x="745.0" y="103.0" type="curve" smooth="yes"/>
      <point x="773.0" y="103.0"/>
      <point x="795.0" y="135.0"/>
      <point x="795.0" y="235.0" type="curve" smooth="yes"/>
      <point x="795.0" y="1016.0" type="line" smooth="yes"/>
      <point x="795.0" y="1186.0"/>
      <point x="706.0" y="1347.0"/>
      <point x="482.0" y="1347.0" type="curve" smooth="yes"/>
      <point x="278.0" y="1347.0"/>
      <point x="145.0" y="1206.0"/>
      <point x="145.0" y="996.0" type="curve" smooth="yes"/>
      <point x="145.0" y="45.0" type="line" smooth="yes"/>
      <point x="145.0" y="-145.0"/>
      <point x="184.0" y="-307.0"/>
      <point x="442.0" y="-307.0" type="curve" smooth="yes"/>
      <point x="498.0" y="-307.0"/>
      <point x="554.0" y="-287.0"/>
      <point x="590.0" y="-259.0" type="curve" smooth="yes"/>
      <point x="594.0" y="-256.0"/>
      <point x="596.0" y="-257.0"/>
      <point x="597.0" y="-261.0" type="curve" smooth="yes"/>
      <point x="618.0" y="-315.0" type="line" smooth="yes"/>
      <point x="619.0" y="-319.0"/>
      <point x="619.0" y="-321.0"/>
    </contour>
  </outline>
</glyph>
<glyph name="A" format="2">
  <advance height="960" width="562"/>
  <unicode hex="0041"/>
  <anchor x="251.0" y="0.0" name="bottom"/>
  <anchor x="424.0" y="0.0" name="ogonek"/>
  <anchor x="286.0" y="1400.0" name="top"/>
  <outline>
    <contour>
      <point x="144.0" y="520.0" type="line"/>
      <point x="359.0" y="520.0" type="line"/>
      <point x="359.0" y="395.0" type="line"/>
      <point x="144.0" y="395.0" type="line"/>
    </contour>
    <contour>
      <point x="270.0" y="1089.0" type="line"/>
      <point x="190.0" y="5.0" type="line" smooth="yes"/>
      <point x="189.0" y="3.0"/>
      <point x="188.0" y="0.0"/>
      <point x="184.0" y="0.0" type="curve" smooth="yes"/>
      <point x="-6.0" y="0.0" type="line" smooth="yes"/>
      <point x="-8.0" y="0.0"/>
      <point x="-12.0" y="0.0"/>
      <point x="-10.0" y="5.0" type="curve" smooth="yes"/>
      <point x="140.0" y="1395.0" type="line" smooth="yes"/>
      <point x="142.0" y="1399.0"/>
      <point x="144.0" y="1400.0"/>
      <point x="146.0" y="1400.0" type="curve" smooth="yes"/>
      <point x="436.0" y="1400.0" type="line" smooth="yes"/>
      <point x="439.0" y="1400.0"/>
      <point x="442.0" y="1399.0"/>
      <point x="443.0" y="1395.0" type="curve" smooth="yes"/>
      <point x="577.0" y="5.0" type="line" smooth="yes"/>
      <point x="577.0" y="4.0"/>
      <point x="579.0" y="0.0"/>
      <point x="574.0" y="0.0" type="curve" smooth="yes"/>
      <point x="324.0" y="0.0" type="line" smooth="yes"/>
      <point x="322.0" y="0.0"/>
      <point x="319.0" y="0.0"/>
      <point x="317.0" y="5.0" type="curve" smooth="yes"/>
    </contour>
  </outline>
</glyph>
<glyph name="B" format="2">
  <advance height="960" width="600"/>
  <unicode hex="0042"/>
  <anchor x="278.0" y="0.0" name="bottom"/>
  <anchor x="262.0" y="1400.0" name="top"/>
  <outline>
    <contour>
      <point x="280.0" y="770.0" type="line"/>
      <point x="305.0" y="770.0" type="line" smooth="yes"/>
      <point x="328.0" y="770.0"/>
      <point x="338.0" y="794.0"/>
      <point x="338.0" y="869.0" type="curve" smooth="yes"/>
      <point x="338.0" y="1126.0" type="line" smooth="yes"/>
      <point x="338.0" y="1201.0"/>
      <point x="333.0" y="1225.0"/>
      <point x="305.0" y="1225.0" type="curve" smooth="yes"/>
      <point x="280.0" y="1225.0" type="line"/>
    </contour>
    <contour>
      <point x="335.0" y="725.0" type="line"/>
      <point x="463.0" y="725.0"/>
      <point x="592.0" y="656.0"/>
      <point x="592.0" y="461.0" type="curve" smooth="yes"/>
      <point x="592.0" y="294.0" type="line" smooth="yes"/>
      <point x="592.0" y="84.0"/>
      <point x="503.0" y="-1.93494194265e-14"/>
      <point x="345.0" y="0.0" type="curve" smooth="yes"/>
      <point x="40.0" y="0.0" type="line" smooth="yes"/>
      <point x="36.0" y="0.0"/>
      <point x="35.0" y="1.0"/>
      <point x="35.0" y="5.0" type="curve" smooth="yes"/>
      <point x="35.0" y="1395.0" type="line" smooth="yes"/>
      <point x="35.0" y="1399.0"/>
      <point x="36.0" y="1400.0"/>
      <point x="40.0" y="1400.0" type="curve" smooth="yes"/>
      <point x="335.0" y="1400.0" type="line" smooth="yes"/>
      <point x="493.0" y="1400.0"/>
      <point x="568.0" y="1307.0"/>
      <point x="568.0" y="1112.0" type="curve" smooth="yes"/>
      <point x="568.0" y="959.0" type="line" smooth="yes"/>
      <point x="568.0" y="764.0"/>
      <point x="453.0" y="700.0"/>
      <point x="325.0" y="700.0" type="curve"/>
    </contour>
    <contour>
      <point x="310.0" y="645.0" type="curve" smooth="yes"/>
      <point x="280.0" y="645.0" type="line"/>
      <point x="280.0" y="175.0" type="line"/>
      <point x="310.0" y="175.0" type="line" smooth="yes"/>
      <point x="338.0" y="175.0"/>
      <point x="342.0" y="203.0"/>
      <point x="342.0" y="278.0" type="curve" smooth="yes"/>
      <point x="342.0" y="541.0" type="line" smooth="yes"/>
      <point x="342.0" y="616.0"/>
      <point x="338.0" y="645.0"/>
    </contour>
  </outline>
</glyph>
<glyph name="F" format="2">
  <advance height="960" width="435"/>
  <unicode hex="0046"/>
  <anchor x="272.0" y="0.0" name="bottom"/>
  <anchor x="272.0" y="1400.0" name="top"/>
  <outline>
    <contour>
      <point x="280.0" y="775.0" type="line"/>
      <point x="370.0" y="775.0" type="line" smooth="yes"/>
      <point x="374.0" y="775.0"/>
      <point x="375.0" y="774.0"/>
      <point x="375.0" y="770.0" type="curve" smooth="yes"/>
      <point x="375.0" y="655.0" type="line" smooth="yes"/>
      <point x="375.0" y="651.0"/>
      <point x="374.0" y="650.0"/>
      <point x="370.0" y="650.0" type="curve" smooth="yes"/>
      <point x="280.0" y="650.0" type="line"/>
      <point x="280.0" y="5.0" type="line" smooth="yes"/>
      <point x="280.0" y="1.0"/>
      <point x="279.0" y="0.0"/>
      <point x="275.0" y="0.0" type="curve" smooth="yes"/>
      <point x="40.0" y="0.0" type="line" smooth="yes"/>
      <point x="36.0" y="0.0"/>
      <point x="35.0" y="1.0"/>
      <point x="35.0" y="5.0" type="curve" smooth="yes"/>
      <point x="35.0" y="1395.0" type="line" smooth="yes"/>
      <point x="35.0" y="1399.0"/>
      <point x="36.0" y="1400.0"/>
      <point x="40.0" y="1400.0" type="curve" smooth="yes"/>
      <point x="430.0" y="1400.0" type="line" smooth="yes"/>
      <point x="434.0" y="1400.0"/>
      <point x="435.0" y="1399.0"/>
      <point x="435.0" y="1395.0" type="curve" smooth="yes"/>
      <point x="435.0" y="1230.0" type="line" smooth="yes"/>
      <point x="435.0" y="1226.0"/>
      <point x="434.0" y="1225.0"/>
      <point x="430.0" y="1225.0" type="curve" smooth="yes"/>
      <point x="280.0" y="1225.0" type="line"/>
    </contour>
  </outline>
</glyph>
<glyph name="G" format="2">
  <advance height="960" width="582"/>
  <unicode hex="0047"/>
  <anchor x="322.0" y="0.0" name="bottom"/>
  <anchor x="282.0" y="1400.0" name="top"/>
  <outline>
    <contour>
      <point x="310.0" y="582.0" type="curve" smooth="yes"/>
      <point x="310.0" y="695.0" type="line" smooth="yes"/>
      <point x="310.0" y="699.0"/>
      <point x="311.0" y="700.0"/>
      <point x="315.0" y="700.0" type="curve" smooth="yes"/>
      <point x="565.0" y="700.0" type="line" smooth="yes"/>
      <point x="569.0" y="700.0"/>
      <point x="570.0" y="699.0"/>
      <point x="570.0" y="695.0" type="curve" smooth="yes"/>
      <point x="570.0" y="5.0" type="line" smooth="yes"/>
      <point x="570.0" y="1.0"/>
      <point x="569.0" y="0.0"/>
      <point x="565.0" y="0.0" type="curve" smooth="yes"/>
      <point x="450.0" y="0.0" type="line" smooth="yes"/>
      <point x="446.0" y="0.0"/>
      <point x="445.0" y="1.0"/>
      <point x="444.0" y="5.0" type="curve" smooth="yes"/>
      <point x="405.0" y="280.0" type="line"/>
      <point x="460.0" y="630.0" type="line"/>
      <point x="450.0" y="245.0"/>
      <point x="446.0" y="-18.0"/>
      <point x="232.0" y="-18.0" type="curve" smooth="yes"/>
      <point x="64.0" y="-18.0"/>
      <point x="25.0" y="119.0"/>
      <point x="25.0" y="409.0" type="curve" smooth="yes"/>
      <point x="25.0" y="992.0" type="line" smooth="yes"/>
      <point x="25.0" y="1282.0"/>
      <point x="68.0" y="1418.0"/>
      <point x="282.0" y="1418.0" type="curve" smooth="yes"/>
      <point x="468.267578125" y="1418.0"/>
      <point x="530.130859375" y="1296.29394531"/>
      <point x="531.26171875" y="1094.0" type="curve" smooth="yes"/>
      <point x="531.543945312" y="1043.47949219"/>
      <point x="534.032226562" y="927.952148438"/>
      <point x="535.0" y="867.0" type="curve" smooth="yes"/>
      <point x="535.063476562" y="863.000976562"/>
      <point x="534.0" y="863.0"/>
      <point x="530.0" y="863.0" type="curve" smooth="yes"/>
      <point x="335.0" y="863.0" type="line" smooth="yes"/>
      <point x="331.0" y="863.0"/>
      <point x="330.048828125" y="863.0"/>
      <point x="330.0" y="867.0" type="curve" smooth="yes"/>
      <point x="326.0" y="1195.0"/>
      <point x="333.0" y="1228.0"/>
      <point x="300.0" y="1228.0" type="curve" smooth="yes"/>
      <point x="277.0" y="1228.0"/>
      <point x="275.0" y="1181.0"/>
      <point x="275.0" y="996.0" type="curve" smooth="yes"/>
      <point x="275.0" y="404.0" type="line" smooth="yes"/>
      <point x="275.0" y="224.0"/>
      <point x="278.0" y="172.0"/>
      <point x="316.0" y="172.0" type="curve" smooth="yes"/>
      <point x="349.0" y="172.0"/>
      <point x="355.0" y="231.0"/>
      <point x="363.0" y="628.0" type="curve"/>
      <point x="424.0" y="578.0" type="line"/>
      <point x="315.0" y="578.0" type="line" smooth="yes"/>
      <point x="312.0" y="578.0"/>
      <point x="310.0" y="578.0"/>
    </contour>
  </outline>
</glyph>
<glyph name="H" format="2">
  <advance height="960" width="610"/>
  <unicode hex="0048"/>
  <anchor x="302.0" y="0.0" name="bottom"/>
  <anchor x="302.0" y="1400.0" name="top"/>
  <outline>
    <contour>
      <point x="335.0" y="1400.0" type="curve" smooth="yes"/>
      <point x="570.0" y="1400.0" type="line" smooth="yes"/>
      <point x="574.0" y="1400.0"/>
      <point x="575.0" y="1399.0"/>
      <point x="575.0" y="1395.0" type="curve" smooth="yes"/>
      <point x="575.0" y="5.0" type="line" smooth="yes"/>
      <point x="575.0" y="1.0"/>
      <point x="574.0" y="0.0"/>
      <point x="570.0" y="0.0" type="curve" smooth="yes"/>
      <point x="335.0" y="0.0" type="line" smooth="yes"/>
      <point x="331.0" y="0.0"/>
      <point x="330.0" y="1.0"/>
      <point x="330.0" y="5.0" type="curve" smooth="yes"/>
      <point x="330.0" y="620.0" type="line"/>
      <point x="280.0" y="620.0" type="line"/>
      <point x="280.0" y="5.0" type="line" smooth="yes"/>
      <point x="280.0" y="1.0"/>
      <point x="279.0" y="0.0"/>
      <point x="275.0" y="0.0" type="curve" smooth="yes"/>
      <point x="40.0" y="0.0" type="line" smooth="yes"/>
      <point x="36.0" y="0.0"/>
      <point x="35.0" y="1.0"/>
      <point x="35.0" y="5.0" type="curve" smooth="yes"/>
      <point x="35.0" y="1395.0" type="line" smooth="yes"/>
      <point x="35.0" y="1399.0"/>
      <point x="36.0" y="1400.0"/>
      <point x="40.0" y="1400.0" type="curve" smooth="yes"/>
      <point x="275.0" y="1400.0" type="line" smooth="yes"/>
      <point x="279.0" y="1400.0"/>
      <point x="280.0" y="1399.0"/>
      <point x="280.0" y="1395.0" type="curve" smooth="yes"/>
      <point x="280.0" y="795.0" type="line"/>
      <point x="330.0" y="795.0" type="line"/>
      <point x="330.0" y="1395.0" type="line" smooth="yes"/>
      <point x="330.0" y="1399.0"/>
      <point x="331.0" y="1400.0"/>
    </contour>
  </outline>
</glyph>
<glyph name="I" format="2">
  <advance height="960" width="315"/>
  <unicode hex="0049"/>
  <anchor x="160.0" y="0.0" name="bottom"/>
  <anchor x="160.0" y="0.0" name="ogonek"/>
  <anchor x="160.0" y="1400.0" name="top"/>
  <outline>
    <contour>
      <point x="40.0" y="1400.0" type="curve" smooth="yes"/>
      <point x="275.0" y="1400.0" type="line" smooth="yes"/>
      <point x="279.0" y="1400.0"/>
      <point x="280.0" y="1399.0"/>
      <point x="280.0" y="1395.0" type="curve" smooth="yes"/>
      <point x="280.0" y="5.0" type="line" smooth="yes"/>
      <point x="280.0" y="1.0"/>
      <point x="279.0" y="0.0"/>
      <point x="275.0" y="0.0" type="curve" smooth="yes"/>
      <point x="40.0" y="0.0" type="line" smooth="yes"/>
      <point x="36.0" y="0.0"/>
      <point x="35.0" y="1.0"/>
      <point x="35.0" y="5.0" type="curve" smooth="yes"/>
      <point x="35.0" y="1395.0" type="line" smooth="yes"/>
      <point x="35.0" y="1399.0"/>
      <point x="36.0" y="1400.0"/>
    </contour>
  </outline>
</glyph>
<glyph name="J" format="2">
  <advance height="960" width="520"/>
  <unicode hex="004A"/>
  <anchor x="238.0" y="0.0" name="bottom"/>
  <anchor x="388.0" y="1400.0" name="top"/>
  <outline>
    <contour>
      <point x="240.0" y="1400.0" type="curve" smooth="yes"/>
      <point x="480.0" y="1400.0" type="line" smooth="yes"/>
      <point x="484.0" y="1400.0"/>
      <point x="485.0" y="1399.0"/>
      <point x="485.0" y="1395.0" type="curve" smooth="yes"/>
      <point x="485.0" y="269.0" type="line" smooth="yes"/>
      <point x="485.0" y="76.0"/>
      <point x="441.0" y="-18.0"/>
      <point x="238.0" y="-18.0" type="curve" smooth="yes"/>
      <point x="60.0" y="-18.0"/>
      <point x="10.0" y="77.0"/>
      <point x="10.0" y="239.0" type="curve" smooth="yes"/>
      <point x="10.0" y="657.0" type="line" smooth="yes"/>
      <point x="10.0" y="661.0"/>
      <point x="11.0" y="663.0"/>
      <point x="15.0" y="663.0" type="curve" smooth="yes"/>
      <point x="190.0" y="663.0" type="line" smooth="yes"/>
      <point x="194.0" y="663.0"/>
      <point x="195.0" y="661.0"/>
      <point x="195.0" y="657.0" type="curve" smooth="yes"/>
      <point x="195.0" y="244.0" type="line" smooth="yes"/>
      <point x="195.0" y="188.0"/>
      <point x="199.0" y="162.0"/>
      <point x="216.0" y="162.0" type="curve" smooth="yes"/>
      <point x="233.0" y="162.0"/>
      <point x="235.0" y="184.0"/>
      <point x="235.0" y="254.0" type="curve" smooth="yes"/>
      <point x="235.0" y="1395.0" type="line" smooth="yes"/>
      <point x="235.0" y="1399.0"/>
      <point x="236.0" y="1400.0"/>
    </contour>
  </outline>
</glyph>
<glyph name="K" format="2">
  <advance height="960" width="630"/>
  <unicode hex="004B"/>
  <anchor x="322.0" y="0.0" name="bottom"/>
  <anchor x="322.0" y="1400.0" name="top"/>
  <outline>
    <contour>
      <point x="40.0" y="1400.0" type="curve" smooth="yes"/>
      <point x="275.0" y="1400.0" type="line" smooth="yes"/>
      <point x="279.0" y="1400.0"/>
      <point x="280.0" y="1399.0"/>
      <point x="280.0" y="1395.0" type="curve" smooth="yes"/>
      <point x="280.0" y="5.0" type="line" smooth="yes"/>
      <point x="280.0" y="1.0"/>
      <point x="279.0" y="0.0"/>
      <point x="275.0" y="0.0" type="curve" smooth="yes"/>
      <point x="40.0" y="0.0" type="line" smooth="yes"/>
      <point x="36.0" y="0.0"/>
      <point x="35.0" y="1.0"/>
      <point x="35.0" y="5.0" type="curve" smooth="yes"/>
      <point x="35.0" y="1395.0" type="line" smooth="yes"/>
      <point x="35.0" y="1399.0"/>
      <point x="36.0" y="1400.0"/>
    </contour>
    <contour>
      <point x="280.0" y="785.0" type="line"/>
      <point x="455.0" y="890.0" type="line"/>
      <point x="666.0" y="5.0" type="line" smooth="yes"/>
      <point x="667.376953125" y="0.0"/>
      <point x="667.376953125" y="0.0"/>
      <point x="665.0" y="0.0" type="curve" smooth="yes"/>
      <point x="395.0" y="0.0" type="line" smooth="yes"/>
      <point x="390.0390625" y="0.0"/>
      <point x="386.34765625" y="2.861328125"/>
      <point x="386.0" y="5.0" type="curve" smooth="yes"/>
    </contour>
    <contour>
      <point x="440.0" y="1395.0" type="line" smooth="yes"/>
      <point x="441.2421875" y="1398.92285156"/>
      <point x="445.25" y="1400.0"/>
      <point x="450.0" y="1400.0" type="curve" smooth="yes"/>
      <point x="652.0" y="1400.0" type="line" smooth="yes"/>
      <point x="654.995117188" y="1400.0"/>
      <point x="656.650390625" y="1399.13769531"/>
      <point x="655.0" y="1395.0" type="curve" smooth="yes"/>
      <point x="406.41796875" y="720.0" type="line"/>
      <point x="346.41796875" y="770.0" type="line"/>
      <point x="270.0" y="450.0" type="line"/>
      <point x="155.0" y="505.0" type="line"/>
    </contour>
  </outline>
</glyph>
<glyph name="L" format="2">
  <advance height="960" width="467"/>
  <unicode hex="004C"/>
  <anchor x="272.0" y="0.0" name="bottom"/>
  <anchor x="142.0" y="1400.0" name="top"/>
  <outline>
    <contour>
      <point x="40.0" y="1400.0" type="curve" smooth="yes"/>
      <point x="275.0" y="1400.0" type="line" smooth="yes"/>
      <point x="279.0" y="1400.0"/>
      <point x="280.0" y="1399.0"/>
      <point x="280.0" y="1395.0" type="curve" smooth="yes"/>
      <point x="280.0" y="175.0" type="line"/>
      <point x="455.0" y="175.0" type="line" smooth="yes"/>
      <point x="459.0" y="175.0"/>
      <point x="460.0" y="174.0"/>
      <point x="460.0" y="170.0" type="curve" smooth="yes"/>
      <point x="460.0" y="5.0" type="line" smooth="yes"/>
      <point x="460.0" y="1.0"/>
      <point x="459.0" y="0.0"/>
      <point x="455.0" y="0.0" type="curve" smooth="yes"/>
      <point x="40.0" y="0.0" type="line" smooth="yes"/>
      <point x="36.0" y="0.0"/>
      <point x="35.0" y="1.0"/>
      <point x="35.0" y="5.0" type="curve" smooth="yes"/>
      <point x="35.0" y="1395.0" type="line" smooth="yes"/>
      <point x="35.0" y="1399.0"/>
      <point x="36.0" y="1400.0"/>
    </contour>
  </outline>
</glyph>
<glyph name="M" format="2">
  <advance height="960" width="820"/>
  <unicode hex="004D"/>
  <anchor x="372.0" y="0.0" name="bottom"/>
  <anchor x="382.0" y="1400.0" name="top"/>
  <outline>
    <contour>
      <point x="200.0" y="1115.0" type="line"/>
      <point x="200.0" y="5.0" type="line" smooth="yes"/>
      <point x="200.0" y="1.0"/>
      <point x="199.0" y="0.0"/>
      <point x="195.0" y="0.0" type="curve" smooth="yes"/>
      <point x="30.0" y="0.0" type="line" smooth="yes"/>
      <point x="26.0" y="0.0"/>
      <point x="25.0" y="1.0"/>
      <point x="25.0" y="5.0" type="curve" smooth="yes"/>
      <point x="25.0" y="1395.0" type="line" smooth="yes"/>
      <point x="25.0" y="1399.0"/>
      <point x="26.0" y="1400.0"/>
      <point x="30.0" y="1400.0" type="curve" smooth="yes"/>
      <point x="330.0" y="1400.0" type="line" smooth="yes"/>
      <point x="334.0" y="1400.0"/>
      <point x="335.0" y="1399.0"/>
      <point x="337.0" y="1395.0" type="curve" smooth="yes"/>
      <point x="405.0" y="644.0" type="line"/>
      <point x="478.0" y="1395.0" type="line" smooth="yes"/>
      <point x="480.0" y="1399.0"/>
      <point x="481.0" y="1400.0"/>
      <point x="485.0" y="1400.0" type="curve" smooth="yes"/>
      <point x="780.0" y="1400.0" type="line" smooth="yes"/>
      <point x="784.0" y="1400.0"/>
      <point x="785.0" y="1399.0"/>
      <point x="785.0" y="1395.0" type="curve" smooth="yes"/>
      <point x="785.0" y="5.0" type="line" smooth="yes"/>
      <point x="785.0" y="1.0"/>
      <point x="784.0" y="0.0"/>
      <point x="780.0" y="0.0" type="curve" smooth="yes"/>
      <point x="555.0" y="0.0" type="line" smooth="yes"/>
      <point x="551.0" y="0.0"/>
      <point x="550.0" y="1.0"/>
      <point x="550.0" y="5.0" type="curve" smooth="yes"/>
      <point x="550.0" y="1115.0" type="line"/>
      <point x="444.0" y="5.0" type="line" smooth="yes"/>
      <point x="442.0" y="1.0"/>
      <point x="441.0" y="0.0"/>
      <point x="437.0" y="0.0" type="curve" smooth="yes"/>
      <point x="307.0" y="0.0" type="line" smooth="yes"/>
      <point x="303.0" y="0.0"/>
      <point x="302.0" y="1.0"/>
      <point x="300.0" y="5.0" type="curve" smooth="yes"/>
    </contour>
  </outline>
</glyph>
<glyph name="N" format="2">
  <advance height="960" width="590"/>
  <unicode hex="004E"/>
  <anchor x="292.0" y="0.0" name="bottom"/>
  <anchor x="297.0" y="1400.0" name="top"/>
  <outline>
    <contour>
      <point x="385.0" y="1400.0" type="curve" smooth="yes"/>
      <point x="560.0" y="1400.0" type="line" smooth="yes"/>
      <point x="564.0" y="1400.0"/>
      <point x="565.0" y="1399.0"/>
      <point x="565.0" y="1395.0" type="curve" smooth="yes"/>
      <point x="565.0" y="5.0" type="line" smooth="yes"/>
      <point x="565.0" y="1.0"/>
      <point x="564.0" y="0.0"/>
      <point x="560.0" y="0.0" type="curve" smooth="yes"/>
      <point x="395.0" y="0.0" type="line" smooth="yes"/>
      <point x="391.0" y="0.0"/>
      <point x="387.096650616" y="0.57601172142"/>
      <point x="386.0" y="5.0" type="curve" smooth="yes"/>
      <point x="190.0" y="796.0" type="line"/>
      <point x="210.0" y="796.0" type="line"/>
      <point x="210.0" y="5.0" type="line" smooth="yes"/>
      <point x="210.0" y="1.0"/>
      <point x="209.0" y="0.0"/>
      <point x="205.0" y="0.0" type="curve" smooth="yes"/>
      <point x="30.0" y="0.0" type="line" smooth="yes"/>
      <point x="26.0" y="0.0"/>
      <point x="25.0" y="1.0"/>
      <point x="25.0" y="5.0" type="curve" smooth="yes"/>
      <point x="25.0" y="1395.0" type="line" smooth="yes"/>
      <point x="25.0" y="1399.0"/>
      <point x="26.0" y="1400.0"/>
      <point x="30.0" y="1400.0" type="curve" smooth="yes"/>
      <point x="245.0" y="1400.0" type="line" smooth="yes"/>
      <point x="249.0" y="1400.0"/>
      <point x="253.154214562" y="1399.43701726"/>
      <point x="254.0" y="1395.0" type="curve" smooth="yes"/>
      <point x="400.0" y="629.0" type="line"/>
      <point x="380.0" y="629.0" type="line"/>
      <point x="380.0" y="1395.0" type="line" smooth="yes"/>
      <point x="380.0" y="1399.0"/>
      <point x="381.0" y="1400.0"/>
    </contour>
  </outline>
</glyph>
<glyph name="O" format="2">
  <advance height="960" width="625"/>
  <unicode hex="004F"/>
  <anchor x="313.0" y="0.0" name="bottom"/>
  <anchor x="312.0" y="1400.0" name="top"/>
  <outline>
    <contour>
      <point x="25.0" y="359.0" type="curve" smooth="yes"/>
      <point x="25.0" y="1042.0" type="line" smooth="yes"/>
      <point x="25.0" y="1275.0"/>
      <point x="72.0" y="1416.0"/>
      <point x="313.0" y="1416.0" type="curve" smooth="yes"/>
      <point x="554.0" y="1416.0"/>
      <point x="600.0" y="1275.0"/>
      <point x="600.0" y="1042.0" type="curve" smooth="yes"/>
      <point x="600.0" y="359.0" type="line" smooth="yes"/>
      <point x="600.0" y="126.0"/>
      <point x="554.0" y="-18.0"/>
      <point x="313.0" y="-18.0" type="curve" smooth="yes"/>
      <point x="72.0" y="-18.0"/>
      <point x="25.0" y="126.0"/>
    </contour>
    <contour>
      <point x="275.0" y="264.0" type="line" smooth="yes"/>
      <point x="275.0" y="175.0"/>
      <point x="286.0" y="152.0"/>
      <point x="313.0" y="152.0" type="curve" smooth="yes"/>
      <point x="340.0" y="152.0"/>
      <point x="350.0" y="175.0"/>
      <point x="350.0" y="264.0" type="curve" smooth="yes"/>
      <point x="350.0" y="1136.0" type="line" smooth="yes"/>
      <point x="350.0" y="1225.0"/>
      <point x="340.0" y="1248.0"/>
      <point x="313.0" y="1248.0" type="curve" smooth="yes"/>
      <point x="286.0" y="1248.0"/>
      <point x="275.0" y="1225.0"/>
      <point x="275.0" y="1136.0" type="curve" smooth="yes"/>
    </contour>
  </outline>
</glyph>
<glyph name="P" format="2">
  <advance height="960" width="575"/>
  <unicode hex="0050"/>
  <anchor x="138.0" y="0.0" name="bottom"/>
  <anchor x="322.0" y="1400.0" name="top"/>
  <outline>
    <contour>
      <point x="280.0" y="1225.0" type="line"/>
      <point x="280.0" y="725.0" type="line"/>
      <point x="290.0" y="725.0" type="line" smooth="yes"/>
      <point x="328.0" y="725.0"/>
      <point x="338.0" y="749.0"/>
      <point x="338.0" y="794.0" type="curve" smooth="yes"/>
      <point x="338.0" y="1156.0" type="line" smooth="yes"/>
      <point x="338.0" y="1201.0"/>
      <point x="328.0" y="1225.0"/>
      <point x="290.0" y="1225.0" type="curve" smooth="yes"/>
    </contour>
    <contour>
      <point x="280.0" y="1400.0" type="line" smooth="yes"/>
      <point x="463.0" y="1400.0"/>
      <point x="548.0" y="1326.0"/>
      <point x="548.0" y="1141.0" type="curve" smooth="yes"/>
      <point x="548.0" y="859.0" type="line" smooth="yes"/>
      <point x="548.0" y="674.0"/>
      <point x="464.0" y="600.0"/>
      <point x="320.0" y="600.0" type="curve" smooth="yes"/>
      <point x="280.0" y="600.0" type="line"/>
      <point x="280.0" y="5.0" type="line" smooth="yes"/>
      <point x="280.0" y="1.0"/>
      <point x="279.0" y="0.0"/>
      <point x="275.0" y="0.0" type="curve" smooth="yes"/>
      <point x="40.0" y="0.0" type="line" smooth="yes"/>
      <point x="36.0" y="0.0"/>
      <point x="35.0" y="1.0"/>
      <point x="35.0" y="5.0" type="curve" smooth="yes"/>
      <point x="35.0" y="1395.0" type="line" smooth="yes"/>
      <point x="35.0" y="1399.0"/>
      <point x="36.0" y="1400.0"/>
      <point x="40.0" y="1400.0" type="curve" smooth="yes"/>
    </contour>
  </outline>
</glyph>
<glyph name="Q" format="2">
  <advance height="960" width="668"/>
  <unicode hex="0051"/>
  <anchor x="312.0" y="0.0" name="bottom"/>
  <anchor x="312.0" y="1400.0" name="top"/>
  <outline>
    <contour>
      <point x="668.0" y="205.0" type="curve" smooth="yes"/>
      <point x="668.0" y="5.0" type="line" smooth="yes"/>
      <point x="668.0" y="1.0"/>
      <point x="668.0" y="-1.0"/>
      <point x="662.0" y="-2.0" type="curve" smooth="yes"/>
      <point x="507.0" y="-28.0"/>
      <point x="450.0" y="46.0"/>
      <point x="450.0" y="179.0" type="curve"/>
      <point x="515.0" y="294.0" type="line"/>
      <point x="515.0" y="119.0"/>
      <point x="460.0" y="-18.0"/>
      <point x="272.0" y="-18.0" type="curve" smooth="yes"/>
      <point x="64.0" y="-18.0"/>
      <point x="25.0" y="129.0"/>
      <point x="25.0" y="304.0" type="curve" smooth="yes"/>
      <point x="25.0" y="1096.0" type="line" smooth="yes"/>
      <point x="25.0" y="1271.0"/>
      <point x="68.0" y="1418.0"/>
      <point x="312.0" y="1418.0" type="curve" smooth="yes"/>
      <point x="556.0" y="1418.0"/>
      <point x="600.0" y="1271.0"/>
      <point x="600.0" y="1096.0" type="curve" smooth="yes"/>
      <point x="600.0" y="289.0" type="line" smooth="yes"/>
      <point x="600.0" y="232.0"/>
      <point x="616.0" y="212.0"/>
      <point x="662.0" y="210.0" type="curve" smooth="yes"/>
      <point x="668.0" y="210.0"/>
      <point x="668.0" y="208.0"/>
    </contour>
    <contour>
      <point x="350.0" y="264.0" type="curve" smooth="yes"/>
      <point x="350.0" y="1136.0" type="line" smooth="yes"/>
      <point x="350.0" y="1201.0"/>
      <point x="346.0" y="1248.0"/>
      <point x="312.0" y="1248.0" type="curve" smooth="yes"/>
      <point x="278.0" y="1248.0"/>
      <point x="275.0" y="1201.0"/>
      <point x="275.0" y="1136.0" type="curve" smooth="yes"/>
      <point x="275.0" y="264.0" type="line" smooth="yes"/>
      <point x="275.0" y="194.0"/>
      <point x="278.0" y="152.0"/>
      <point x="312.0" y="152.0" type="curve" smooth="yes"/>
      <point x="346.0" y="152.0"/>
      <point x="350.0" y="194.0"/>
    </contour>
  </outline>
</glyph>
<glyph name="S" format="2">
  <advance height="960" width="489"/>
  <unicode hex="0053"/>
  <anchor x="242.0" y="0.0" name="bottom"/>
  <anchor x="201.0" y="1400.0" name="top"/>
  <outline>
    <contour>
      <point x="19.0" y="524.0" type="curve" smooth="yes"/>
      <point x="195.0" y="524.0" type="line" smooth="yes"/>
      <point x="196.0" y="524.0"/>
      <point x="199.0" y="524.0"/>
      <point x="199.0" y="520.0" type="curve" smooth="yes"/>
      <point x="199.0" y="452.100069464"/>
      <point x="199.0" y="372.100069464"/>
      <point x="199.044420408" y="285.0" type="curve" smooth="yes"/>
      <point x="199.087886267" y="199.771622774"/>
      <point x="204.069335938" y="172.0"/>
      <point x="223.0" y="172.0" type="curve" smooth="yes"/>
      <point x="247.0" y="172.0"/>
      <point x="249.0" y="208.0"/>
      <point x="249.0" y="314.0" type="curve" smooth="yes"/>
      <point x="249.0" y="465.921875"/>
      <point x="197.29296875" y="558.216796875"/>
      <point x="148.334960938" y="645.259765625" type="curve" smooth="yes"/>
      <point x="86.845703125" y="754.58203125"/>
      <point x="16.0" y="868.997070312"/>
      <point x="16.0" y="1116.0" type="curve" smooth="yes"/>
      <point x="16.0" y="1321.0"/>
      <point x="89.0" y="1418.0"/>
      <point x="255.0" y="1418.0" type="curve" smooth="yes"/>
      <point x="422.0" y="1418.0"/>
      <point x="475.0" y="1308.0"/>
      <point x="475.0" y="1150.0" type="curve" smooth="yes"/>
      <point x="475.0" y="906.0" type="line" smooth="yes"/>
      <point x="475.0" y="902.0"/>
      <point x="472.0" y="902.0"/>
      <point x="469.0" y="902.0" type="curve" smooth="yes"/>
      <point x="305.0" y="902.0" type="line" smooth="yes"/>
      <point x="302.0" y="902.0"/>
      <point x="299.0" y="902.0"/>
      <point x="299.0" y="906.0" type="curve" smooth="yes"/>
      <point x="299.0" y="1000.26171875"/>
      <point x="299.0" y="1070.26171875"/>
      <point x="298.940429688" y="1139.0" type="curve" smooth="yes"/>
      <point x="298.869678831" y="1220.63952919"/>
      <point x="294.771484375" y="1238.0"/>
      <point x="278.0" y="1238.0" type="curve" smooth="yes"/>
      <point x="262.0" y="1238.0"/>
      <point x="256.0" y="1211.0"/>
      <point x="256.0" y="1132.0" type="curve" smooth="yes"/>
      <point x="256.0" y="952.244140625"/>
      <point x="316.649414062" y="839.1875"/>
      <point x="369.934570312" y="752.703125" type="curve" smooth="yes"/>
      <point x="431.80686473" y="652.281411167"/>
      <point x="489.0" y="552.170898438"/>
      <point x="489.0" y="314.0" type="curve" smooth="yes"/>
      <point x="489.0" y="85.0"/>
      <point x="410.0" y="-18.0"/>
      <point x="250.0" y="-18.0" type="curve" smooth="yes"/>
      <point x="86.0" y="-18.0"/>
      <point x="15.0" y="52.0"/>
      <point x="15.0" y="240.0" type="curve" smooth="yes"/>
      <point x="15.0" y="520.0" type="line" smooth="yes"/>
      <point x="15.0" y="524.0"/>
      <point x="18.0" y="524.0"/>
    </contour>
  </outline>
</glyph>
<glyph name="T" format="2">
  <advance height="960" width="545"/>
  <unicode hex="0054"/>
  <anchor x="253.0" y="0.0" name="bottom"/>
  <anchor x="272.0" y="1400.0" name="top"/>
  <outline>
    <contour>
      <point x="5.0" y="1400.0" type="curve" smooth="yes"/>
      <point x="540.0" y="1400.0" type="line" smooth="yes"/>
      <point x="544.0" y="1400.0"/>
      <point x="545.0" y="1399.0"/>
      <point x="545.0" y="1395.0" type="curve" smooth="yes"/>
      <point x="545.0" y="1230.0" type="line" smooth="yes"/>
      <point x="545.0" y="1226.0"/>
      <point x="544.0" y="1225.0"/>
      <point x="540.0" y="1225.0" type="curve" smooth="yes"/>
      <point x="395.0" y="1225.0" type="line"/>
      <point x="395.0" y="5.0" type="line" smooth="yes"/>
      <point x="395.0" y="1.0"/>
      <point x="394.0" y="0.0"/>
      <point x="390.0" y="0.0" type="curve" smooth="yes"/>
      <point x="155.0" y="0.0" type="line" smooth="yes"/>
      <point x="151.0" y="0.0"/>
      <point x="150.0" y="1.0"/>
      <point x="150.0" y="5.0" type="curve" smooth="yes"/>
      <point x="150.0" y="1225.0" type="line"/>
      <point x="5.0" y="1225.0" type="line" smooth="yes"/>
      <point x="1.0" y="1225.0"/>
      <point x="0.0" y="1226.0"/>
      <point x="0.0" y="1230.0" type="curve" smooth="yes"/>
      <point x="0.0" y="1395.0" type="line" smooth="yes"/>
      <point x="0.0" y="1399.0"/>
      <point x="1.0" y="1400.0"/>
    </contour>
  </outline>
</glyph>
<glyph name="V" format="2">
  <advance height="960" width="559"/>
  <unicode hex="0056"/>
  <anchor x="290.396" y="0.0" name="bottom"/>
  <anchor x="290.396" y="1400.0" name="top"/>
  <outline>
    <contour>
      <point x="292.395507812" y="311.0" type="line"/>
      <point x="372.395507812" y="1395.0" type="line" smooth="yes"/>
      <point x="373.395507812" y="1397.0"/>
      <point x="374.395507812" y="1400.0"/>
      <point x="378.395507812" y="1400.0" type="curve" smooth="yes"/>
      <point x="568.395507812" y="1400.0" type="line" smooth="yes"/>
      <point x="570.395507812" y="1400.0"/>
      <point x="574.395507812" y="1400.0"/>
      <point x="572.395507812" y="1395.0" type="curve" smooth="yes"/>
      <point x="422.395507812" y="5.0" type="line" smooth="yes"/>
      <point x="420.395507812" y="1.0"/>
      <point x="418.395507812" y="0.0"/>
      <point x="416.395507812" y="0.0" type="curve" smooth="yes"/>
      <point x="126.395507812" y="0.0" type="line" smooth="yes"/>
      <point x="123.395507812" y="0.0"/>
      <point x="120.395507812" y="1.0"/>
      <point x="119.395507812" y="5.0" type="curve" smooth="yes"/>
      <point x="-14.6044921875" y="1395.0" type="line" smooth="yes"/>
      <point x="-14.6044921875" y="1396.0"/>
      <point x="-16.6044921875" y="1400.0"/>
      <point x="-11.6044921875" y="1400.0" type="curve" smooth="yes"/>
      <point x="238.395507812" y="1400.0" type="line" smooth="yes"/>
      <point x="240.395507812" y="1400.0"/>
      <point x="243.395507812" y="1400.0"/>
      <point x="245.395507812" y="1395.0" type="curve" smooth="yes"/>
    </contour>
  </outline>
</glyph>
<glyph name="Z" format="2">
  <advance height="960" width="535"/>
  <unicode hex="005A"/>
  <anchor x="284.0" y="0.0" name="bottom"/>
  <anchor x="263.0" y="1400.0" name="top"/>
  <outline>
    <contour>
      <point x="-35.0" y="5.0" type="curve" smooth="yes"/>
      <point x="254.0" y="1225.0" type="line"/>
      <point x="36.0" y="1225.0" type="line" smooth="yes"/>
      <point x="32.0" y="1225.0"/>
      <point x="31.0" y="1226.0"/>
      <point x="31.0" y="1230.0" type="curve" smooth="yes"/>
      <point x="31.0" y="1395.0" type="line" smooth="yes"/>
      <point x="31.0" y="1399.0"/>
      <point x="32.0" y="1400.0"/>
      <point x="36.0" y="1400.0" type="curve" smooth="yes"/>
      <point x="531.0" y="1400.0" type="line" smooth="yes"/>
      <point x="535.0" y="1400.0"/>
      <point x="536.0" y="1399.0"/>
      <point x="533.0" y="1395.0" type="curve" smooth="yes"/>
      <point x="253.0" y="175.0" type="line"/>
      <point x="521.0" y="175.0" type="line" smooth="yes"/>
      <point x="525.0" y="175.0"/>
      <point x="526.0" y="174.0"/>
      <point x="526.0" y="170.0" type="curve" smooth="yes"/>
      <point x="526.0" y="5.0" type="line" smooth="yes"/>
      <point x="526.0" y="1.0"/>
      <point x="525.0" y="0.0"/>
      <point x="521.0" y="0.0" type="curve" smooth="yes"/>
      <point x="-34.0" y="0.0" type="line" smooth="yes"/>
      <point x="-38.0" y="0.0"/>
      <point x="-38.0" y="1.0"/>
    </contour>
  </outline>
</glyph>
<glyph name="bracketleft" format="2">
  <advance height="1920" width="380"/>
  <unicode hex="005B"/>
  <outline>
    <contour>
      <point x="235.0" y="1475.0" type="line"/>
      <point x="235.0" y="-235.0" type="line"/>
      <point x="350.0" y="-235.0" type="line" smooth="yes"/>
      <point x="354.0" y="-235.0"/>
      <point x="355.0" y="-236.0"/>
      <point x="355.0" y="-240.0" type="curve" smooth="yes"/>
      <point x="355.0" y="-355.0" type="line" smooth="yes"/>
      <point x="355.0" y="-359.0"/>
      <point x="354.0" y="-360.0"/>
      <point x="350.0" y="-360.0" type="curve" smooth="yes"/>
      <point x="40.0" y="-360.0" type="line" smooth="yes"/>
      <point x="36.0" y="-360.0"/>
      <point x="35.0" y="-359.0"/>
      <point x="35.0" y="-355.0" type="curve" smooth="yes"/>
      <point x="35.0" y="1595.0" type="line" smooth="yes"/>
      <point x="35.0" y="1599.0"/>
      <point x="36.0" y="1600.0"/>
      <point x="40.0" y="1600.0" type="curve" smooth="yes"/>
      <point x="350.0" y="1600.0" type="line" smooth="yes"/>
      <point x="354.0" y="1600.0"/>
      <point x="355.0" y="1599.0"/>
      <point x="355.0" y="1595.0" type="curve" smooth="yes"/>
      <point x="355.0" y="1480.0" type="line" smooth="yes"/>
      <point x="355.0" y="1476.0"/>
      <point x="354.0" y="1475.0"/>
      <point x="350.0" y="1475.0" type="curve" smooth="yes"/>
    </contour>
  </outline>
</glyph>
<glyph name="backslash" format="2">
  <advance height="2048" width="519"/>
  <unicode hex="005C"/>
  <outline>
    <contour>
      <point x="510.0" y="-95.0" type="line" smooth="yes"/>
      <point x="512.0" y="-99.0"/>
      <point x="511.0" y="-100.0"/>
      <point x="507.0" y="-100.0" type="curve" smooth="yes"/>
      <point x="337.0" y="-100.0" type="line" smooth="yes"/>
      <point x="334.0" y="-100.0"/>
      <point x="332.0" y="-99.0"/>
      <point x="330.0" y="-95.0" type="curve" smooth="yes"/>
      <point x="22.0" y="1395.0" type="line" smooth="yes"/>
      <point x="20.0" y="1399.0"/>
      <point x="21.0" y="1400.0"/>
      <point x="25.0" y="1400.0" type="curve" smooth="yes"/>
      <point x="195.0" y="1400.0" type="line" smooth="yes"/>
      <point x="199.0" y="1400.0"/>
      <point x="200.0" y="1399.0"/>
      <point x="202.0" y="1395.0" type="curve" smooth="yes"/>
    </contour>
  </outline>
</glyph>
<glyph name="bracketright" format="2">
  <advance height="1920" width="380"/>
  <unicode hex="005D"/>
  <outline>
    <contour>
      <point x="145.0" y="-235.0" type="line"/>
      <point x="145.0" y="1475.0" type="line"/>
      <point x="30.0" y="1475.0" type="line" smooth="yes"/>
      <point x="26.0" y="1475.0"/>
      <point x="25.0" y="1476.0"/>
      <point x="25.0" y="1480.0" type="curve" smooth="yes"/>
      <point x="25.0" y="1595.0" type="line" smooth="yes"/>
      <point x="25.0" y="1599.0"/>
      <point x="26.0" y="1600.0"/>
      <point x="30.0" y="1600.0" type="curve" smooth="yes"/>
      <point x="340.0" y="1600.0" type="line" smooth="yes"/>
      <point x="344.0" y="1600.0"/>
      <point x="345.0" y="1599.0"/>
      <point x="345.0" y="1595.0" type="curve" smooth="yes"/>
      <point x="345.0" y="-355.0" type="line" smooth="yes"/>
      <point x="345.0" y="-359.0"/>
      <point x="344.0" y="-360.0"/>
      <point x="340.0" y="-360.0" type="curve" smooth="yes"/>
      <point x="30.0" y="-360.0" type="line" smooth="yes"/>
      <point x="26.0" y="-360.0"/>
      <point x="25.0" y="-359.0"/>
      <point x="25.0" y="-355.0" type="curve" smooth="yes"/>
      <point x="25.0" y="-240.0" type="line" smooth="yes"/>
      <point x="25.0" y="-236.0"/>
      <point x="26.0" y="-235.0"/>
      <point x="30.0" y="-235.0" type="curve" smooth="yes"/>
    </contour>
  </outline>
</glyph>
<glyph name="asciicircum" format="2">
  <advance height="1920" width="412"/>
  <unicode hex="005E"/>
  <outline>
    <contour>
      <point x="205.0" y="1131.0" type="line"/>
      <point x="177.0" y="740.0" type="line" smooth="yes"/>
      <point x="176.0" y="734.0"/>
      <point x="174.0" y="730.0"/>
      <point x="170.0" y="730.0" type="curve" smooth="yes"/>
      <point x="-15.0" y="730.0" type="line" smooth="yes"/>
      <point x="-19.0" y="730.0"/>
      <point x="-19.0" y="734.0"/>
      <point x="-18.0" y="740.0" type="curve" smooth="yes"/>
      <point x="118.0" y="1390.0" type="line" smooth="yes"/>
      <point x="120.0" y="1399.0"/>
      <point x="121.0" y="1400.0"/>
      <point x="125.0" y="1400.0" type="curve" smooth="yes"/>
      <point x="285.0" y="1400.0" type="line" smooth="yes"/>
      <point x="289.0" y="1400.0"/>
      <point x="290.0" y="1399.0"/>
      <point x="292.0" y="1390.0" type="curve" smooth="yes"/>
      <point x="428.0" y="740.0" type="line" smooth="yes"/>
      <point x="430.0" y="734.0"/>
      <point x="431.0" y="730.0"/>
      <point x="425.0" y="730.0" type="curve" smooth="yes"/>
      <point x="240.0" y="730.0" type="line" smooth="yes"/>
      <point x="235.0" y="730.0"/>
      <point x="234.0" y="734.0"/>
      <point x="233.0" y="740.0" type="curve" smooth="yes"/>
    </contour>
  </outline>
</glyph>
<glyph name="underscore" format="2">
  <advance height="1920" width="450"/>
  <unicode hex="005F"/>
  <outline>
    <contour>
      <point x="0.0" y="-172.0" type="curve" smooth="yes"/>
      <point x="0.0" y="-5.0" type="line" smooth="yes"/>
      <point x="0.0" y="-1.0"/>
      <point x="1.0" y="0.0"/>
      <point x="5.0" y="0.0" type="curve" smooth="yes"/>
      <point x="445.0" y="0.0" type="line" smooth="yes"/>
      <point x="449.0" y="0.0"/>
      <point x="450.0" y="-1.0"/>
      <point x="450.0" y="-5.0" type="curve" smooth="yes"/>
      <point x="450.0" y="-172.0" type="line" smooth="yes"/>
      <point x="450.0" y="-176.0"/>
      <point x="449.0" y="-178.0"/>
      <point x="445.0" y="-178.0" type="curve" smooth="yes"/>
      <point x="5.0" y="-178.0" type="line" smooth="yes"/>
      <point x="1.0" y="-178.0"/>
      <point x="0.0" y="-176.0"/>
    </contour>
  </outline>
</glyph>
<glyph name="grave" format="2">
  <advance width="386"/>
  <unicode hex="0060"/>
  <outline>
    <contour>
      <point x="353.0" y="1104.0" type="curve" smooth="yes"/>
      <point x="228.0" y="1104.0" type="line" smooth="yes"/>
      <point x="224.0" y="1104.0"/>
      <point x="220.0" y="1109.0"/>
      <point x="218.0" y="1114.0" type="curve" smooth="yes"/>
      <point x="30.0" y="1390.0" type="line" smooth="yes"/>
      <point x="28.0" y="1395.0"/>
      <point x="26.0" y="1400.0"/>
      <point x="30.0" y="1400.0" type="curve" smooth="yes"/>
      <point x="310.0" y="1400.0" type="line" smooth="yes"/>
      <point x="314.0" y="1400.0"/>
      <point x="316.0" y="1397.0"/>
      <point x="318.0" y="1390.0" type="curve" smooth="yes"/>
      <point x="355.0" y="1114.0" type="line" smooth="yes"/>
      <point x="357.0" y="1107.0"/>
      <point x="357.0" y="1104.0"/>
    </contour>
  </outline>
</glyph>
<glyph name="a" format="2">
  <advance height="960" width="550"/>
  <unicode hex="0061"/>
  <anchor x="241.0" y="0.0" name="bottom"/>
  <anchor x="443.0" y="0.0" name="ogonek"/>
  <anchor x="295.0" y="1050.0" name="top"/>
  <outline>
    <contour>
      <point x="246.0" y="330.0" type="curve" smooth="yes"/>
      <point x="246.0" y="198.0"/>
      <point x="259.0" y="158.0"/>
      <point x="273.0" y="158.0" type="curve" smooth="yes"/>
      <point x="290.0" y="158.0"/>
      <point x="292.0" y="186.0"/>
      <point x="292.0" y="234.0" type="curve"/>
      <point x="322.0" y="234.0" type="line"/>
      <point x="322.0" y="132.0"/>
      <point x="267.0" y="-18.0"/>
      <point x="161.0" y="-18.0" type="curve" smooth="yes"/>
      <point x="76.0" y="-18.0"/>
      <point x="8.0" y="28.0"/>
      <point x="8.0" y="255.0" type="curve" smooth="yes"/>
      <point x="8.0" y="491.0"/>
      <point x="77.0" y="566.0"/>
      <point x="208.0" y="627.0" type="curve" smooth="yes"/>
      <point x="264.358591372" y="653.24331354"/>
      <point x="292.0" y="678.0"/>
      <point x="292.0" y="734.0" type="curve"/>
      <point x="312.0" y="584.0" type="line"/>
      <point x="305.0" y="562.0"/>
      <point x="291.831327114" y="547.6365483"/>
      <point x="281.0" y="535.0" type="curve" smooth="yes"/>
      <point x="257.0" y="507.0"/>
      <point x="246.0" y="460.0"/>
    </contour>
    <contour>
      <point x="292.0" y="114.0" type="curve" smooth="yes"/>
      <point x="292.0" y="814.0" type="line" smooth="yes"/>
      <point x="292.0" y="874.0"/>
      <point x="294.0" y="907.0"/>
      <point x="277.0" y="907.0" type="curve" smooth="yes"/>
      <point x="258.0" y="907.0"/>
      <point x="257.0" y="872.0"/>
      <point x="255.0" y="696.0" type="curve" smooth="yes"/>
      <point x="254.965911292" y="693.00019368"/>
      <point x="253.0" y="691.0"/>
      <point x="250.0" y="691.0" type="curve" smooth="yes"/>
      <point x="47.0" y="691.0" type="line" smooth="yes"/>
      <point x="43.0" y="691.0"/>
      <point x="41.9146667961" y="693.001147406"/>
      <point x="42.0" y="696.0" type="curve" smooth="yes"/>
      <point x="49.0" y="942.0"/>
      <point x="124.0" y="1067.0"/>
      <point x="297.0" y="1067.0" type="curve" smooth="yes"/>
      <point x="467.0" y="1067.0"/>
      <point x="532.0" y="975.0"/>
      <point x="532.0" y="761.0" type="curve" smooth="yes"/>
      <point x="532.0" y="104.0" type="line" smooth="yes"/>
      <point x="532.0" y="57.0"/>
      <point x="543.0" y="25.0"/>
      <point x="561.0" y="4.0" type="curve" smooth="yes"/>
      <point x="563.0" y="2.0"/>
      <point x="562.0" y="0.0"/>
      <point x="559.0" y="0.0" type="curve" smooth="yes"/>
      <point x="322.0" y="0.0" type="line" smooth="yes"/>
      <point x="318.0" y="0.0"/>
      <point x="316.0" y="1.0"/>
      <point x="314.0" y="3.0" type="curve" smooth="yes"/>
      <point x="296.0" y="24.0"/>
      <point x="292.0" y="66.0"/>
    </contour>
  </outline>
</glyph>
<glyph name="b" format="2">
  <advance height="960" width="590"/>
  <unicode hex="0062"/>
  <outline>
    <contour>
      <point x="30.0" y="1450.0" type="curve" smooth="yes"/>
      <point x="265.0" y="1450.0" type="line" smooth="yes"/>
      <point x="269.0" y="1450.0"/>
      <point x="270.0" y="1449.0"/>
      <point x="270.0" y="1445.0" type="curve" smooth="yes"/>
      <point x="270.0" y="162.0" type="line"/>
      <point x="68.0" y="-12.0" type="line" smooth="yes"/>
      <point x="64.0" y="-16.0"/>
      <point x="59.0" y="-18.0"/>
      <point x="55.0" y="-18.0" type="curve" smooth="yes"/>
      <point x="30.0" y="-18.0" type="line" smooth="yes"/>
      <point x="26.0" y="-18.0"/>
      <point x="25.0" y="-16.0"/>
      <point x="25.0" y="-12.0" type="curve" smooth="yes"/>
      <point x="25.0" y="1445.0" type="line" smooth="yes"/>
      <point x="25.0" y="1449.0"/>
      <point x="26.0" y="1450.0"/>
    </contour>
    <contour>
      <point x="240.0" y="801.0" type="line"/>
      <point x="240.0" y="946.0"/>
      <point x="312.0" y="1067.0"/>
      <point x="410.0" y="1067.0" type="curve" smooth="yes"/>
      <point x="518.0" y="1067.0"/>
      <point x="570.0" y="997.0"/>
      <point x="570.0" y="827.0" type="curve" smooth="yes"/>
      <point x="570.0" y="224.0" type="line" smooth="yes"/>
      <point x="570.0" y="64.0"/>
      <point x="502.0" y="-18.0"/>
      <point x="354.0" y="-18.0" type="curve" smooth="yes"/>
      <point x="230.0" y="-18.0"/>
      <point x="145.0" y="63.0"/>
      <point x="145.0" y="208.0" type="curve"/>
      <point x="270.0" y="244.0" type="line"/>
      <point x="270.0" y="174.0"/>
      <point x="276.0" y="152.0"/>
      <point x="297.0" y="152.0" type="curve" smooth="yes"/>
      <point x="321.0" y="152.0"/>
      <point x="325.0" y="179.0"/>
      <point x="325.0" y="234.0" type="curve" smooth="yes"/>
      <point x="325.0" y="817.0" type="line" smooth="yes"/>
      <point x="325.0" y="872.0"/>
      <point x="321.0" y="897.0"/>
      <point x="297.0" y="897.0" type="curve" smooth="yes"/>
      <point x="276.0" y="897.0"/>
      <point x="270.0" y="862.0"/>
      <point x="270.0" y="807.0" type="curve"/>
    </contour>
  </outline>
</glyph>
<glyph name="c" format="2">
  <advance height="960" width="479"/>
  <unicode hex="0063"/>
  <anchor x="252.0" y="0.0" name="bottom"/>
  <anchor x="249.0" y="1050.0" name="top"/>
  <outline>
    <contour>
      <point x="464.0" y="434.0" type="curve" smooth="yes"/>
      <point x="463.0" y="377.0"/>
      <point x="463.411402947" y="275.988725166"/>
      <point x="462.0" y="232.0" type="curve" smooth="yes"/>
      <point x="456.0" y="45.0"/>
      <point x="380.0" y="-18.0"/>
      <point x="237.0" y="-18.0" type="curve" smooth="yes"/>
      <point x="102.0" y="-18.0"/>
      <point x="20.0" y="76.0"/>
      <point x="20.0" y="224.0" type="curve" smooth="yes"/>
      <point x="20.0" y="827.0" type="line" smooth="yes"/>
      <point x="20.0" y="975.0"/>
      <point x="90.0" y="1067.0"/>
      <point x="240.0" y="1067.0" type="curve" smooth="yes"/>
      <point x="396.0" y="1067.0"/>
      <point x="450.0" y="987.0"/>
      <point x="456.0" y="820.0" type="curve" smooth="yes"/>
      <point x="457.580226971" y="776.017015987"/>
      <point x="460.0" y="675.0"/>
      <point x="460.0" y="617.0" type="curve" smooth="yes"/>
      <point x="460.0" y="614.0"/>
      <point x="459.0" y="613.0"/>
      <point x="455.0" y="613.0" type="curve" smooth="yes"/>
      <point x="310.0" y="613.0" type="line" smooth="yes"/>
      <point x="307.0" y="613.0"/>
      <point x="304.0" y="615.0"/>
      <point x="304.0" y="617.0" type="curve" smooth="yes"/>
      <point x="304.0" y="685.0"/>
      <point x="303.0" y="735.0"/>
      <point x="303.0" y="772.0" type="curve" smooth="yes"/>
      <point x="302.0" y="859.0"/>
      <point x="300.0" y="873.0"/>
      <point x="285.0" y="873.0" type="curve" smooth="yes"/>
      <point x="268.0" y="873.0"/>
      <point x="265.0" y="842.0"/>
      <point x="265.0" y="767.0" type="curve" smooth="yes"/>
      <point x="265.0" y="284.0" type="line" smooth="yes"/>
      <point x="265.0" y="212.0"/>
      <point x="265.0" y="178.0"/>
      <point x="285.0" y="178.0" type="curve" smooth="yes"/>
      <point x="300.0" y="178.0"/>
      <point x="305.0" y="192.0"/>
      <point x="307.0" y="283.0" type="curve" smooth="yes"/>
      <point x="308.0" y="320.0"/>
      <point x="309.0" y="369.0"/>
      <point x="309.0" y="435.0" type="curve" smooth="yes"/>
      <point x="309.0" y="437.0"/>
      <point x="312.0" y="438.0"/>
      <point x="315.0" y="438.0" type="curve" smooth="yes"/>
      <point x="460.0" y="438.0" type="line" smooth="yes"/>
      <point x="464.0" y="438.0"/>
      <point x="464.0" y="437.0"/>
    </contour>
  </outline>
</glyph>
<glyph name="g" format="2">
  <advance height="960" width="564"/>
  <unicode hex="0067"/>
  <anchor x="297.946" y="1075.0" name="top"/>
  <outline>
    <contour>
      <point x="571.946289062" y="1255.0" type="curve" smooth="yes"/>
      <point x="564.946289062" y="1119.0"/>
      <point x="471.946289062" y="1030.0"/>
      <point x="301.946289062" y="1030.0" type="curve"/>
      <point x="287.946289062" y="1045.0" type="line"/>
      <point x="317.946289062" y="1045.0"/>
      <point x="345.946289062" y="1071.0"/>
      <point x="361.946289062" y="1256.0" type="curve" smooth="yes"/>
      <point x="362.205078125" y="1258.98925781"/>
      <point x="363.946289062" y="1260.0"/>
      <point x="367.946289062" y="1260.0" type="curve" smooth="yes"/>
      <point x="567.946289062" y="1260.0" type="line" smooth="yes"/>
      <point x="571.946289062" y="1260.0"/>
      <point x="572.15234375" y="1258.99511719"/>
    </contour>
    <contour>
      <point x="355.946289062" y="170.0" type="line" smooth="yes"/>
      <point x="495.946289062" y="170.0"/>
      <point x="567.946289062" y="100.0"/>
      <point x="567.946289062" y="-88.0" type="curve" smooth="yes"/>
      <point x="567.946289062" y="-286.0"/>
      <point x="476.946289062" y="-360.0"/>
      <point x="291.946289062" y="-360.0" type="curve" smooth="yes"/>
      <point x="213.946289062" y="-360.0" type="line" smooth="yes"/>
      <point x="68.9462890625" y="-360.0"/>
      <point x="-8.0537109375" y="-296.0"/>
      <point x="-8.0537109375" y="-168.0" type="curve" smooth="yes"/>
      <point x="-8.0537109375" y="-70.0"/>
      <point x="78.9462890625" y="15.0"/>
      <point x="223.946289062" y="15.0" type="curve"/>
      <point x="288.946289062" y="15.0" type="line"/>
      <point x="248.946289062" y="5.0"/>
      <point x="221.946289062" y="-44.0"/>
      <point x="221.946289062" y="-132.0" type="curve" smooth="yes"/>
      <point x="221.946289062" y="-226.0"/>
      <point x="238.946289062" y="-260.0"/>
      <point x="278.946289062" y="-260.0" type="curve" smooth="yes"/>
      <point x="285.946289062" y="-260.0" type="line" smooth="yes"/>
      <point x="315.946289062" y="-260.0"/>
      <point x="337.946289062" y="-206.0"/>
      <point x="337.946289062" y="-118.0" type="curve" smooth="yes"/>
      <point x="337.946289062" y="-34.0"/>
      <point x="321.946289062" y="0.0"/>
      <point x="281.946289062" y="0.0" type="curve" smooth="yes"/>
      <point x="168.946289062" y="0.0" type="line" smooth="yes"/>
      <point x="68.9462890625" y="0.0"/>
      <point x="2.9462890625" y="68.0"/>
      <point x="2.9462890625" y="162.0" type="curve" smooth="yes"/>
      <point x="2.9462890625" y="266.0"/>
      <point x="99.9462890625" y="333.0"/>
      <point x="219.946289062" y="333.0" type="curve"/>
      <point x="209.946289062" y="283.0" type="line"/>
      <point x="179.946289062" y="283.0"/>
      <point x="157.946289062" y="262.0"/>
      <point x="157.946289062" y="228.0" type="curve" smooth="yes"/>
      <point x="157.946289062" y="182.0"/>
      <point x="198.946289062" y="170.0"/>
      <point x="263.946289062" y="170.0" type="curve" smooth="yes"/>
    </contour>
    <contour>
      <point x="321.946289062" y="494.0" type="curve" smooth="yes"/>
      <point x="321.946289062" y="811.0" type="line" smooth="yes"/>
      <point x="321.946289062" y="912.0"/>
      <point x="318.946289062" y="943.0"/>
      <point x="297.946289062" y="943.0" type="curve" smooth="yes"/>
      <point x="278.946289062" y="943.0"/>
      <point x="271.946289062" y="913.0"/>
      <point x="271.946289062" y="811.0" type="curve" smooth="yes"/>
      <point x="271.946289062" y="494.0" type="line" smooth="yes"/>
      <point x="271.946289062" y="396.0"/>
      <point x="278.946289062" y="363.0"/>
      <point x="297.946289062" y="363.0" type="curve" smooth="yes"/>
      <point x="318.946289062" y="363.0"/>
      <point x="321.946289062" y="392.0"/>
    </contour>
    <contour>
      <point x="541.946289062" y="574.0" type="line" smooth="yes"/>
      <point x="541.946289062" y="399.0"/>
      <point x="481.946289062" y="237.0"/>
      <point x="297.946289062" y="237.0" type="curve" smooth="yes"/>
      <point x="113.946289062" y="237.0"/>
      <point x="51.9462890625" y="399.0"/>
      <point x="51.9462890625" y="574.0" type="curve" smooth="yes"/>
      <point x="51.9462890625" y="781.0" type="line" smooth="yes"/>
      <point x="51.9462890625" y="956.0"/>
      <point x="113.946289062" y="1067.0"/>
      <point x="297.946289062" y="1067.0" type="curve" smooth="yes"/>
      <point x="481.946289062" y="1067.0"/>
      <point x="541.946289062" y="956.0"/>
      <point x="541.946289062" y="781.0" type="curve" smooth="yes"/>
    </contour>
  </outline>
</glyph>
<glyph name="h" format="2">
  <advance height="960" width="580"/>
  <unicode hex="0068"/>
  <anchor x="293.0" y="0.0" name="bottom"/>
  <anchor x="158.0" y="1450.0" name="top"/>
  <outline>
    <contour>
      <point x="30.0" y="1450.0" type="curve" smooth="yes"/>
      <point x="265.0" y="1450.0" type="line" smooth="yes"/>
      <point x="269.0" y="1450.0"/>
      <point x="270.0" y="1449.0"/>
      <point x="270.0" y="1445.0" type="curve" smooth="yes"/>
      <point x="270.0" y="5.0" type="line" smooth="yes"/>
      <point x="270.0" y="1.0"/>
      <point x="268.0" y="0.0"/>
      <point x="265.0" y="0.0" type="curve" smooth="yes"/>
      <point x="30.0" y="0.0" type="line" smooth="yes"/>
      <point x="26.0" y="0.0"/>
      <point x="25.0" y="1.0"/>
      <point x="25.0" y="5.0" type="curve" smooth="yes"/>
      <point x="25.0" y="1445.0" type="line" smooth="yes"/>
      <point x="25.0" y="1449.0"/>
      <point x="26.0" y="1450.0"/>
    </contour>
    <contour>
      <point x="245.0" y="877.0" type="line"/>
      <point x="245.0" y="997.0"/>
      <point x="317.0" y="1067.0"/>
      <point x="411.0" y="1067.0" type="curve" smooth="yes"/>
      <point x="515.0" y="1067.0"/>
      <point x="558.0" y="1012.0"/>
      <point x="558.0" y="857.0" type="curve" smooth="yes"/>
      <point x="558.0" y="5.0" type="line" smooth="yes"/>
      <point x="558.0" y="1.0"/>
      <point x="557.0" y="0.0"/>
      <point x="553.0" y="0.0" type="curve" smooth="yes"/>
      <point x="318.0" y="0.0" type="line" smooth="yes"/>
      <point x="314.0" y="0.0"/>
      <point x="313.0" y="1.0"/>
      <point x="313.0" y="5.0" type="curve" smooth="yes"/>
      <point x="313.0" y="831.0" type="line" smooth="yes"/>
      <point x="313.0" y="881.0"/>
      <point x="309.0" y="903.0"/>
      <point x="295.0" y="903.0" type="curve" smooth="yes"/>
      <point x="277.0" y="903.0"/>
      <point x="270.0" y="866.0"/>
      <point x="270.0" y="761.0" type="curve"/>
    </contour>
  </outline>
</glyph>
<glyph name="i" format="2">
  <advance height="960" width="295"/>
  <unicode hex="0069"/>
  <anchor x="148.0" y="0.0" name="bottom"/>
  <anchor x="148.0" y="0.0" name="ogonek"/>
  <outline>
    <contour>
      <point x="225.0" y="1480.0" type="curve" smooth="yes"/>
      <point x="225.0" y="1165.0" type="line" smooth="yes"/>
      <point x="225.0" y="1161.0"/>
      <point x="224.0" y="1160.0"/>
      <point x="220.0" y="1160.0" type="curve" smooth="yes"/>
      <point x="75.0" y="1160.0" type="line" smooth="yes"/>
      <point x="71.0" y="1160.0"/>
      <point x="70.0" y="1161.0"/>
      <point x="70.0" y="1165.0" type="curve" smooth="yes"/>
      <point x="70.0" y="1480.0" type="line" smooth="yes"/>
      <point x="70.0" y="1484.0"/>
      <point x="71.0" y="1485.0"/>
      <point x="75.0" y="1485.0" type="curve" smooth="yes"/>
      <point x="220.0" y="1485.0" type="line" smooth="yes"/>
      <point x="224.0" y="1485.0"/>
      <point x="225.0" y="1484.0"/>
    </contour>
    <contour>
      <point x="270.0" y="1045.0" type="curve" smooth="yes"/>
      <point x="270.0" y="5.0" type="line" smooth="yes"/>
      <point x="270.0" y="1.0"/>
      <point x="269.0" y="0.0"/>
      <point x="265.0" y="0.0" type="curve" smooth="yes"/>
      <point x="30.0" y="0.0" type="line" smooth="yes"/>
      <point x="26.0" y="0.0"/>
      <point x="25.0" y="1.0"/>
      <point x="25.0" y="5.0" type="curve" smooth="yes"/>
      <point x="25.0" y="1045.0" type="line" smooth="yes"/>
      <point x="25.0" y="1049.0"/>
      <point x="26.0" y="1050.0"/>
      <point x="30.0" y="1050.0" type="curve" smooth="yes"/>
      <point x="265.0" y="1050.0" type="line" smooth="yes"/>
      <point x="269.0" y="1050.0"/>
      <point x="270.0" y="1049.0"/>
    </contour>
  </outline>
</glyph>
<glyph name="j" format="2">
  <advance height="960" width="295"/>
  <unicode hex="006A"/>
  <outline>
    <contour>
      <point x="225.0" y="1480.0" type="curve" smooth="yes"/>
      <point x="225.0" y="1165.0" type="line" smooth="yes"/>
      <point x="225.0" y="1161.0"/>
      <point x="224.0" y="1160.0"/>
      <point x="220.0" y="1160.0" type="curve" smooth="yes"/>
      <point x="75.0" y="1160.0" type="line" smooth="yes"/>
      <point x="71.0" y="1160.0"/>
      <point x="70.0" y="1161.0"/>
      <point x="70.0" y="1165.0" type="curve" smooth="yes"/>
      <point x="70.0" y="1480.0" type="line" smooth="yes"/>
      <point x="70.0" y="1484.0"/>
      <point x="71.0" y="1485.0"/>
      <point x="75.0" y="1485.0" type="curve" smooth="yes"/>
      <point x="220.0" y="1485.0" type="line" smooth="yes"/>
      <point x="224.0" y="1485.0"/>
      <point x="225.0" y="1484.0"/>
    </contour>
    <contour>
      <point x="270.0" y="-179.0" type="line" smooth="yes"/>
      <point x="270.0" y="-358.0"/>
      <point x="150.0" y="-370.0"/>
      <point x="-44.0" y="-356.0" type="curve" smooth="yes"/>
      <point x="-48.0" y="-356.0"/>
      <point x="-50.0" y="-354.0"/>
      <point x="-50.0" y="-350.0" type="curve" smooth="yes"/>
      <point x="-50.0" y="-220.0" type="line" smooth="yes"/>
      <point x="-50.0" y="-217.0"/>
      <point x="-48.0" y="-215.0"/>
      <point x="-45.0" y="-216.0" type="curve" smooth="yes"/>
      <point x="0.0" y="-225.0"/>
      <point x="25.0" y="-208.0"/>
      <point x="25.0" y="-144.0" type="curve" smooth="yes"/>
      <point x="25.0" y="1045.0" type="line" smooth="yes"/>
      <point x="25.0" y="1049.0"/>
      <point x="26.0" y="1050.0"/>
      <point x="30.0" y="1050.0" type="curve" smooth="yes"/>
      <point x="265.0" y="1050.0" type="line" smooth="yes"/>
      <point x="269.0" y="1050.0"/>
      <point x="270.0" y="1049.0"/>
      <point x="270.0" y="1045.0" type="curve" smooth="yes"/>
    </contour>
  </outline>
</glyph>
<glyph name="l" format="2">
  <advance height="960" width="295"/>
  <unicode hex="006C"/>
  <outline>
    <contour>
      <point x="30.0" y="1450.0" type="curve" smooth="yes"/>
      <point x="265.0" y="1450.0" type="line" smooth="yes"/>
      <point x="269.0" y="1450.0"/>
      <point x="270.0" y="1449.0"/>
      <point x="270.0" y="1445.0" type="curve" smooth="yes"/>
      <point x="270.0" y="5.0" type="line" smooth="yes"/>
      <point x="270.0" y="1.0"/>
      <point x="268.0" y="0.0"/>
      <point x="265.0" y="0.0" type="curve" smooth="yes"/>
      <point x="30.0" y="0.0" type="line" smooth="yes"/>
      <point x="26.0" y="0.0"/>
      <point x="25.0" y="1.0"/>
      <point x="25.0" y="5.0" type="curve" smooth="yes"/>
      <point x="25.0" y="1445.0" type="line" smooth="yes"/>
      <point x="25.0" y="1449.0"/>
      <point x="26.0" y="1450.0"/>
    </contour>
  </outline>
</glyph>
<glyph name="m" format="2">
  <advance height="960" width="802"/>
  <unicode hex="006D"/>
  <outline>
    <contour>
      <point x="465.0" y="877.0" type="line"/>
      <point x="465.0" y="997.0"/>
      <point x="534.0" y="1067.0"/>
      <point x="632.0" y="1067.0" type="curve" smooth="yes"/>
      <point x="736.0" y="1067.0"/>
      <point x="780.0" y="1012.0"/>
      <point x="780.0" y="857.0" type="curve" smooth="yes"/>
      <point x="780.0" y="5.0" type="line" smooth="yes"/>
      <point x="780.0" y="1.0"/>
      <point x="779.0" y="0.0"/>
      <point x="775.0" y="0.0" type="curve" smooth="yes"/>
      <point x="550.0" y="0.0" type="line" smooth="yes"/>
      <point x="546.0" y="0.0"/>
      <point x="545.0" y="1.0"/>
      <point x="545.0" y="5.0" type="curve" smooth="yes"/>
      <point x="545.0" y="857.0" type="line" smooth="yes"/>
      <point x="545.0" y="887.0"/>
      <point x="538.0" y="903.0"/>
      <point x="525.0" y="903.0" type="curve" smooth="yes"/>
      <point x="512.0" y="903.0"/>
      <point x="500.0" y="892.0"/>
      <point x="500.0" y="787.0" type="curve"/>
    </contour>
    <contour>
      <point x="30.0" y="1050.0" type="curve" smooth="yes"/>
      <point x="250.0" y="1050.0" type="line" smooth="yes"/>
      <point x="254.0" y="1050.0"/>
      <point x="255.0" y="1049.0"/>
      <point x="255.0" y="1045.0" type="curve" smooth="yes"/>
      <point x="255.0" y="869.0" type="line"/>
      <point x="260.0" y="855.0" type="line"/>
      <point x="260.0" y="5.0" type="line" smooth="yes"/>
      <point x="260.0" y="1.0"/>
      <point x="259.0" y="0.0"/>
      <point x="255.0" y="0.0" type="curve" smooth="yes"/>
      <point x="30.0" y="0.0" type="line" smooth="yes"/>
      <point x="26.0" y="0.0"/>
      <point x="25.0" y="1.0"/>
      <point x="25.0" y="5.0" type="curve" smooth="yes"/>
      <point x="25.0" y="1045.0" type="line" smooth="yes"/>
      <point x="25.0" y="1049.0"/>
      <point x="26.0" y="1050.0"/>
    </contour>
    <contour>
      <point x="235.0" y="877.0" type="line"/>
      <point x="235.0" y="997.0"/>
      <point x="278.0" y="1067.0"/>
      <point x="372.0" y="1067.0" type="curve" smooth="yes"/>
      <point x="466.0" y="1067.0"/>
      <point x="500.0" y="1012.0"/>
      <point x="500.0" y="857.0" type="curve" smooth="yes"/>
      <point x="500.0" y="5.0" type="line" smooth="yes"/>
      <point x="500.0" y="1.0"/>
      <point x="499.0" y="0.0"/>
      <point x="495.0" y="0.0" type="curve" smooth="yes"/>
      <point x="310.0" y="0.0" type="line" smooth="yes"/>
      <point x="306.0" y="0.0"/>
      <point x="305.0" y="1.0"/>
      <point x="305.0" y="5.0" type="curve" smooth="yes"/>
      <point x="305.0" y="857.0" type="line" smooth="yes"/>
      <point x="305.0" y="887.0"/>
      <point x="297.0" y="903.0"/>
      <point x="285.0" y="903.0" type="curve" smooth="yes"/>
      <point x="272.0" y="903.0"/>
      <point x="260.0" y="892.0"/>
      <point x="260.0" y="787.0" type="curve"/>
    </contour>
  </outline>
</glyph>
<glyph name="n" format="2">
  <advance height="960" width="580"/>
  <unicode hex="006E"/>
  <anchor x="317.0" y="0.0" name="bottom"/>
  <anchor x="318.0" y="1050.0" name="top"/>
  <outline>
    <contour>
      <point x="30.0" y="1050.0" type="curve" smooth="yes"/>
      <point x="260.0" y="1050.0" type="line" smooth="yes"/>
      <point x="264.0" y="1050.0"/>
      <point x="265.0" y="1049.0"/>
      <point x="265.0" y="1045.0" type="curve" smooth="yes"/>
      <point x="265.0" y="869.0" type="line"/>
      <point x="270.0" y="855.0" type="line"/>
      <point x="270.0" y="5.0" type="line" smooth="yes"/>
      <point x="270.0" y="1.0"/>
      <point x="269.0" y="0.0"/>
      <point x="265.0" y="0.0" type="curve" smooth="yes"/>
      <point x="30.0" y="0.0" type="line" smooth="yes"/>
      <point x="26.0" y="0.0"/>
      <point x="25.0" y="1.0"/>
      <point x="25.0" y="5.0" type="curve" smooth="yes"/>
      <point x="25.0" y="1045.0" type="line" smooth="yes"/>
      <point x="25.0" y="1049.0"/>
      <point x="26.0" y="1050.0"/>
    </contour>
    <contour>
      <point x="245.0" y="877.0" type="line"/>
      <point x="245.0" y="997.0"/>
      <point x="317.0" y="1067.0"/>
      <point x="411.0" y="1067.0" type="curve" smooth="yes"/>
      <point x="515.0" y="1067.0"/>
      <point x="558.0" y="1012.0"/>
      <point x="558.0" y="857.0" type="curve" smooth="yes"/>
      <point x="558.0" y="5.0" type="line" smooth="yes"/>
      <point x="558.0" y="1.0"/>
      <point x="557.0" y="0.0"/>
      <point x="553.0" y="0.0" type="curve" smooth="yes"/>
      <point x="318.0" y="0.0" type="line" smooth="yes"/>
      <point x="314.0" y="0.0"/>
      <point x="313.0" y="1.0"/>
      <point x="313.0" y="5.0" type="curve" smooth="yes"/>
      <point x="313.0" y="831.0" type="line" smooth="yes"/>
      <point x="313.0" y="881.0"/>
      <point x="309.0" y="903.0"/>
      <point x="295.0" y="903.0" type="curve" smooth="yes"/>
      <point x="277.0" y="903.0"/>
      <point x="270.0" y="866.0"/>
      <point x="270.0" y="761.0" type="curve"/>
    </contour>
  </outline>
</glyph>
<glyph name="o" format="2">
  <advance height="960" width="580"/>
  <unicode hex="006F"/>
  <anchor x="290.0" y="0.0" name="bottom"/>
  <anchor x="290.0" y="1050.0" name="top"/>
  <outline>
    <contour>
      <point x="20.0" y="274.0" type="curve" smooth="yes"/>
      <point x="20.0" y="777.0" type="line" smooth="yes"/>
      <point x="20.0" y="972.0"/>
      <point x="102.0" y="1067.0"/>
      <point x="290.0" y="1067.0" type="curve" smooth="yes"/>
      <point x="478.0" y="1067.0"/>
      <point x="560.0" y="972.0"/>
      <point x="560.0" y="777.0" type="curve" smooth="yes"/>
      <point x="560.0" y="274.0" type="line" smooth="yes"/>
      <point x="560.0" y="79.0"/>
      <point x="478.0" y="-18.0"/>
      <point x="290.0" y="-18.0" type="curve" smooth="yes"/>
      <point x="102.0" y="-18.0"/>
      <point x="20.0" y="79.0"/>
    </contour>
    <contour>
      <point x="268.0" y="209.0" type="line" smooth="yes"/>
      <point x="268.0" y="149.0"/>
      <point x="272.0" y="122.0"/>
      <point x="290.0" y="122.0" type="curve" smooth="yes"/>
      <point x="308.0" y="122.0"/>
      <point x="313.0" y="149.0"/>
      <point x="313.0" y="209.0" type="curve" smooth="yes"/>
      <point x="313.0" y="841.0" type="line" smooth="yes"/>
      <point x="313.0" y="901.0"/>
      <point x="308.0" y="927.0"/>
      <point x="290.0" y="927.0" type="curve" smooth="yes"/>
      <point x="272.0" y="927.0"/>
      <point x="268.0" y="901.0"/>
      <point x="268.0" y="841.0" type="curve" smooth="yes"/>
    </contour>
  </outline>
</glyph>
<glyph name="p" format="2">
  <advance height="960" width="590"/>
  <unicode hex="0070"/>
  <outline>
    <contour>
      <point x="240.0" y="801.0" type="line"/>
      <point x="240.0" y="946.0"/>
      <point x="286.0" y="1067.0"/>
      <point x="390.0" y="1067.0" type="curve" smooth="yes"/>
      <point x="498.0" y="1067.0"/>
      <point x="570.0" y="997.0"/>
      <point x="570.0" y="827.0" type="curve" smooth="yes"/>
      <point x="570.0" y="224.0" type="line" smooth="yes"/>
      <point x="570.0" y="54.0"/>
      <point x="498.0" y="-18.0"/>
      <point x="390.0" y="-18.0" type="curve" smooth="yes"/>
      <point x="286.0" y="-18.0"/>
      <point x="240.0" y="103.0"/>
      <point x="240.0" y="248.0" type="curve"/>
      <point x="270.0" y="244.0" type="line"/>
      <point x="270.0" y="189.0"/>
      <point x="273.0" y="152.0"/>
      <point x="297.0" y="152.0" type="curve" smooth="yes"/>
      <point x="321.0" y="152.0"/>
      <point x="325.0" y="179.0"/>
      <point x="325.0" y="234.0" type="curve" smooth="yes"/>
      <point x="325.0" y="817.0" type="line" smooth="yes"/>
      <point x="325.0" y="872.0"/>
      <point x="321.0" y="897.0"/>
      <point x="297.0" y="897.0" type="curve" smooth="yes"/>
      <point x="273.0" y="897.0"/>
      <point x="270.0" y="862.0"/>
      <point x="270.0" y="807.0" type="curve"/>
    </contour>
    <contour>
      <point x="25.0" y="-355.0" type="curve" smooth="yes"/>
      <point x="25.0" y="1045.0" type="line" smooth="yes"/>
      <point x="25.0" y="1049.0"/>
      <point x="26.0" y="1050.0"/>
      <point x="30.0" y="1050.0" type="curve" smooth="yes"/>
      <point x="258.0" y="1050.0" type="line" smooth="yes"/>
      <point x="262.0" y="1050.0"/>
      <point x="262.0" y="1049.0"/>
      <point x="262.0" y="1045.0" type="curve" smooth="yes"/>
      <point x="262.0" y="920.0" type="line"/>
      <point x="270.0" y="924.0" type="line"/>
      <point x="270.0" y="-355.0" type="line" smooth="yes"/>
      <point x="270.0" y="-359.0"/>
      <point x="269.0" y="-360.0"/>
      <point x="265.0" y="-360.0" type="curve" smooth="yes"/>
      <point x="30.0" y="-360.0" type="line" smooth="yes"/>
      <point x="26.0" y="-360.0"/>
      <point x="25.0" y="-359.0"/>
    </contour>
  </outline>
</glyph>
<glyph name="q" format="2">
  <advance height="960" width="590"/>
  <unicode hex="0071"/>
  <outline>
    <contour>
      <point x="560.0" y="-360.0" type="curve" smooth="yes"/>
      <point x="326.0" y="-360.0" type="line" smooth="yes"/>
      <point x="322.0" y="-360.0"/>
      <point x="320.0" y="-359.0"/>
      <point x="320.0" y="-355.0" type="curve" smooth="yes"/>
      <point x="320.0" y="887.0" type="line"/>
      <point x="522.0" y="1063.0" type="line" smooth="yes"/>
      <point x="526.0" y="1067.0"/>
      <point x="532.0" y="1067.0"/>
      <point x="536.0" y="1067.0" type="curve" smooth="yes"/>
      <point x="560.0" y="1067.0" type="line" smooth="yes"/>
      <point x="564.0" y="1067.0"/>
      <point x="566.0" y="1067.0"/>
      <point x="566.0" y="1063.0" type="curve" smooth="yes"/>
      <point x="566.0" y="-355.0" type="line" smooth="yes"/>
      <point x="566.0" y="-359.0"/>
      <point x="564.0" y="-360.0"/>
    </contour>
    <contour>
      <point x="350.0" y="238.0" type="line"/>
      <point x="350.0" y="93.0"/>
      <point x="279.0" y="-18.0"/>
      <point x="181.0" y="-18.0" type="curve" smooth="yes"/>
      <point x="73.0" y="-18.0"/>
      <point x="20.0" y="54.0"/>
      <point x="20.0" y="224.0" type="curve" smooth="yes"/>
      <point x="20.0" y="827.0" type="line" smooth="yes"/>
      <point x="20.0" y="987.0"/>
      <point x="88.0" y="1067.0"/>
      <point x="236.0" y="1067.0" type="curve" smooth="yes"/>
      <point x="360.0" y="1067.0"/>
      <point x="446.0" y="986.0"/>
      <point x="446.0" y="841.0" type="curve"/>
      <point x="320.0" y="807.0" type="line"/>
      <point x="320.0" y="877.0"/>
      <point x="315.0" y="897.0"/>
      <point x="294.0" y="897.0" type="curve" smooth="yes"/>
      <point x="270.0" y="897.0"/>
      <point x="266.0" y="872.0"/>
      <point x="266.0" y="817.0" type="curve" smooth="yes"/>
      <point x="266.0" y="234.0" type="line" smooth="yes"/>
      <point x="266.0" y="179.0"/>
      <point x="270.0" y="152.0"/>
      <point x="294.0" y="152.0" type="curve" smooth="yes"/>
      <point x="315.0" y="152.0"/>
      <point x="320.0" y="189.0"/>
      <point x="320.0" y="244.0" type="curve"/>
    </contour>
  </outline>
</glyph>
<glyph name="s" format="2">
  <advance height="960" width="504"/>
  <unicode hex="0073"/>
  <anchor x="243.0" y="0.0" name="bottom"/>
  <anchor x="241.0" y="1050.0" name="top"/>
  <outline>
    <contour>
      <point x="14.0" y="399.0" type="curve" smooth="yes"/>
      <point x="180.0" y="399.0" type="line" smooth="yes"/>
      <point x="184.0" y="399.0"/>
      <point x="186.0" y="397.0"/>
      <point x="186.0" y="394.0" type="curve" smooth="yes"/>
      <point x="186.0" y="339.07634445"/>
      <point x="186.375" y="299.068359375"/>
      <point x="187.200195312" y="257.0" type="curve" smooth="yes"/>
      <point x="188.520507812" y="189.672851562"/>
      <point x="193.435006701" y="162.0"/>
      <point x="213.0" y="162.0" type="curve" smooth="yes"/>
      <point x="230.0" y="162.0"/>
      <point x="240.0" y="181.0"/>
      <point x="240.0" y="256.0" type="curve" smooth="yes"/>
      <point x="240.0" y="531.334911682"/>
      <point x="26.0" y="467.119140625"/>
      <point x="26.0" y="804.0" type="curve" smooth="yes"/>
      <point x="26.0" y="992.0"/>
      <point x="115.0" y="1067.0"/>
      <point x="260.0" y="1067.0" type="curve" smooth="yes"/>
      <point x="397.423934423" y="1067.0"/>
      <point x="468.42842702" y="981.517584285"/>
      <point x="471.859375" y="842.0" type="curve" smooth="yes"/>
      <point x="473.46875" y="776.555664062"/>
      <point x="474.0" y="726.552734375"/>
      <point x="474.0" y="666.0" type="curve" smooth="yes"/>
      <point x="474.0" y="663.0"/>
      <point x="473.0" y="661.0"/>
      <point x="469.0" y="661.0" type="curve" smooth="yes"/>
      <point x="312.0" y="661.0" type="line" smooth="yes"/>
      <point x="308.0" y="661.0"/>
      <point x="307.0" y="664.0"/>
      <point x="307.0" y="667.0" type="curve" smooth="yes"/>
      <point x="307.0" y="705.98021338"/>
      <point x="308.454234277" y="745.998235157"/>
      <point x="306.760358983" y="824.0" type="curve" smooth="yes"/>
      <point x="305.595614865" y="877.635646669"/>
      <point x="295.649187459" y="895.0"/>
      <point x="282.0" y="895.0" type="curve" smooth="yes"/>
      <point x="269.0" y="895.0"/>
      <point x="255.0" y="875.0"/>
      <point x="255.0" y="823.0" type="curve" smooth="yes"/>
      <point x="255.0" y="524.863152285"/>
      <point x="490.0" y="600.909179688"/>
      <point x="490.0" y="231.0" type="curve" smooth="yes"/>
      <point x="490.0" y="79.0"/>
      <point x="428.0" y="-18.0"/>
      <point x="258.0" y="-18.0" type="curve" smooth="yes"/>
      <point x="73.0419921875" y="-18.0"/>
      <point x="17.65234375" y="64.8857421875"/>
      <point x="12.154296875" y="211.0" type="curve" smooth="yes"/>
      <point x="10.3909507829" y="257.862096917"/>
      <point x="10.0" y="317.89453125"/>
      <point x="10.0" y="395.0" type="curve" smooth="yes"/>
      <point x="10.0" y="398.0"/>
      <point x="10.0" y="399.0"/>
    </contour>
  </outline>
</glyph>
<glyph name="u" format="2">
  <advance height="960" width="582"/>
  <unicode hex="0075"/>
  <anchor x="262.0" y="0.0" name="bottom"/>
  <anchor x="439.0" y="0.0" name="ogonek"/>
  <anchor x="284.0" y="1050.0" name="top"/>
  <outline>
    <contour>
      <point x="553.0" y="0.0" type="curve" smooth="yes"/>
      <point x="323.0" y="0.0" type="line" smooth="yes"/>
      <point x="319.0" y="0.0"/>
      <point x="317.0" y="1.0"/>
      <point x="317.0" y="5.0" type="curve" smooth="yes"/>
      <point x="317.0" y="182.0" type="line"/>
      <point x="313.0" y="195.0" type="line"/>
      <point x="313.0" y="1045.0" type="line" smooth="yes"/>
      <point x="313.0" y="1049.0"/>
      <point x="313.0" y="1050.0"/>
      <point x="317.0" y="1050.0" type="curve" smooth="yes"/>
      <point x="553.0" y="1050.0" type="line" smooth="yes"/>
      <point x="557.0" y="1050.0"/>
      <point x="557.0" y="1049.0"/>
      <point x="557.0" y="1045.0" type="curve" smooth="yes"/>
      <point x="557.0" y="5.0" type="line" smooth="yes"/>
      <point x="557.0" y="1.0"/>
      <point x="557.0" y="0.0"/>
    </contour>
    <contour>
      <point x="337.0" y="174.0" type="line"/>
      <point x="337.0" y="54.0"/>
      <point x="264.0" y="-18.0"/>
      <point x="170.0" y="-18.0" type="curve" smooth="yes"/>
      <point x="66.0" y="-18.0"/>
      <point x="22.0" y="39.0"/>
      <point x="22.0" y="194.0" type="curve" smooth="yes"/>
      <point x="22.0" y="1045.0" type="line" smooth="yes"/>
      <point x="22.0" y="1049.0"/>
      <point x="24.0" y="1050.0"/>
      <point x="28.0" y="1050.0" type="curve" smooth="yes"/>
      <point x="262.0" y="1050.0" type="line" smooth="yes"/>
      <point x="266.0" y="1050.0"/>
      <point x="268.0" y="1049.0"/>
      <point x="268.0" y="1045.0" type="curve" smooth="yes"/>
      <point x="268.0" y="218.0" type="line" smooth="yes"/>
      <point x="268.0" y="168.0"/>
      <point x="271.0" y="148.0"/>
      <point x="285.0" y="148.0" type="curve" smooth="yes"/>
      <point x="303.0" y="148.0"/>
      <point x="313.0" y="183.0"/>
      <point x="313.0" y="288.0" type="curve"/>
    </contour>
  </outline>
</glyph>
<glyph name="v" format="2">
  <advance height="960" width="535"/>
  <unicode hex="0076"/>
  <outline>
    <contour>
      <point x="288.0" y="319.0" type="line"/>
      <point x="344.0" y="1045.0" type="line" smooth="yes"/>
      <point x="345.0" y="1049.0"/>
      <point x="347.0" y="1050.0"/>
      <point x="351.0" y="1050.0" type="curve" smooth="yes"/>
      <point x="541.0" y="1050.0" type="line" smooth="yes"/>
      <point x="545.0" y="1050.0"/>
      <point x="546.0" y="1049.0"/>
      <point x="544.0" y="1045.0" type="curve" smooth="yes"/>
      <point x="431.0" y="5.0" type="line" smooth="yes"/>
      <point x="429.0" y="1.0"/>
      <point x="428.0" y="0.0"/>
      <point x="424.0" y="0.0" type="curve" smooth="yes"/>
      <point x="132.0" y="0.0" type="line" smooth="yes"/>
      <point x="128.0" y="0.0"/>
      <point x="127.0" y="1.0"/>
      <point x="125.0" y="5.0" type="curve" smooth="yes"/>
      <point x="-14.0" y="1045.0" type="line" smooth="yes"/>
      <point x="-15.0" y="1049.0"/>
      <point x="-15.0" y="1050.0"/>
      <point x="-11.0" y="1050.0" type="curve" smooth="yes"/>
      <point x="244.0" y="1050.0" type="line" smooth="yes"/>
      <point x="248.0" y="1050.0"/>
      <point x="250.0" y="1049.0"/>
      <point x="251.0" y="1045.0" type="curve" smooth="yes"/>
    </contour>
  </outline>
</glyph>
<glyph name="x" format="2">
  <advance height="960" width="563"/>
  <unicode hex="0078"/>
  <outline>
    <contour>
      <point x="198.0" y="0.0" type="curve" smooth="yes"/>
      <point x="-17.0" y="0.0" type="line" smooth="yes"/>
      <point x="-21.0" y="0.0"/>
      <point x="-22.0" y="1.0"/>
      <point x="-19.0" y="5.0" type="curve" smooth="yes"/>
      <point x="133.0" y="508.0" type="line"/>
      <point x="4.0" y="1045.0" type="line" smooth="yes"/>
      <point x="1.0" y="1049.0"/>
      <point x="1.0" y="1050.0"/>
      <point x="5.0" y="1050.0" type="curve" smooth="yes"/>
      <point x="265.0" y="1050.0" type="line" smooth="yes"/>
      <point x="269.0" y="1050.0"/>
      <point x="271.0" y="1049.0"/>
      <point x="273.0" y="1045.0" type="curve" smooth="yes"/>
      <point x="287.0" y="718.0" type="line"/>
      <point x="330.0" y="1045.0" type="line" smooth="yes"/>
      <point x="332.0" y="1049.0"/>
      <point x="334.0" y="1050.0"/>
      <point x="338.0" y="1050.0" type="curve" smooth="yes"/>
      <point x="553.0" y="1050.0" type="line" smooth="yes"/>
      <point x="557.0" y="1050.0"/>
      <point x="557.0" y="1049.0"/>
      <point x="554.0" y="1045.0" type="curve" smooth="yes"/>
      <point x="408.0" y="507.0" type="line"/>
      <point x="572.0" y="5.0" type="line" smooth="yes"/>
      <point x="575.0" y="1.0"/>
      <point x="574.0" y="0.0"/>
      <point x="570.0" y="0.0" type="curve" smooth="yes"/>
      <point x="290.0" y="0.0" type="line" smooth="yes"/>
      <point x="286.0" y="0.0"/>
      <point x="284.0" y="1.0"/>
      <point x="282.0" y="5.0" type="curve" smooth="yes"/>
      <point x="259.0" y="326.0" type="line"/>
      <point x="216.0" y="5.0" type="line" smooth="yes"/>
      <point x="214.0" y="1.0"/>
      <point x="202.0" y="0.0"/>
    </contour>
  </outline>
</glyph>
<glyph name="z" format="2">
  <advance height="960" width="490"/>
  <unicode hex="007A"/>
  <anchor x="240.0" y="1050.0" name="top"/>
  <outline>
    <contour>
      <point x="-10.0" y="5.0" type="curve" smooth="yes"/>
      <point x="212.0" y="875.0" type="line"/>
      <point x="26.0" y="875.0" type="line" smooth="yes"/>
      <point x="22.0" y="875.0"/>
      <point x="21.0" y="876.0"/>
      <point x="21.0" y="880.0" type="curve" smooth="yes"/>
      <point x="21.0" y="1045.0" type="line" smooth="yes"/>
      <point x="21.0" y="1049.0"/>
      <point x="22.0" y="1050.0"/>
      <point x="26.0" y="1050.0" type="curve" smooth="yes"/>
      <point x="496.0" y="1050.0" type="line" smooth="yes"/>
      <point x="500.0" y="1050.0"/>
      <point x="501.0" y="1049.0"/>
      <point x="498.0" y="1045.0" type="curve" smooth="yes"/>
      <point x="296.0" y="175.0" type="line"/>
      <point x="466.0" y="175.0" type="line" smooth="yes"/>
      <point x="470.0" y="175.0"/>
      <point x="471.0" y="174.0"/>
      <point x="471.0" y="170.0" type="curve" smooth="yes"/>
      <point x="471.0" y="5.0" type="line" smooth="yes"/>
      <point x="471.0" y="2.0"/>
      <point x="470.0" y="0.0"/>
      <point x="466.0" y="0.0" type="curve" smooth="yes"/>
      <point x="-9.0" y="0.0" type="line" smooth="yes"/>
      <point x="-13.0" y="0.0"/>
      <point x="-13.0" y="1.0"/>
    </contour>
  </outline>
</glyph>
<glyph name="braceleft" format="2">
  <advance height="2048" width="388"/>
  <unicode hex="007B"/>
  <outline>
    <contour>
      <point x="78.0" y="1439.0" type="line" smooth="yes"/>
      <point x="78.0" y="1553.0"/>
      <point x="123.0" y="1599.0"/>
      <point x="332.0" y="1600.0" type="curve" smooth="yes"/>
      <point x="336.0" y="1600.0"/>
      <point x="338.0" y="1599.0"/>
      <point x="338.0" y="1595.0" type="curve" smooth="yes"/>
      <point x="338.0" y="1490.0" type="line" smooth="yes"/>
      <point x="338.0" y="1486.0"/>
      <point x="336.0" y="1485.0"/>
      <point x="332.0" y="1485.0" type="curve" smooth="yes"/>
      <point x="282.0" y="1483.0"/>
      <point x="265.0" y="1456.0"/>
      <point x="265.0" y="1369.0" type="curve" smooth="yes"/>
      <point x="265.0" y="788.0" type="line" smooth="yes"/>
      <point x="265.0" y="696.0"/>
      <point x="221.0" y="644.0"/>
      <point x="143.0" y="620.0" type="curve"/>
      <point x="221.0" y="596.0"/>
      <point x="265.0" y="544.0"/>
      <point x="265.0" y="452.0" type="curve" smooth="yes"/>
      <point x="265.0" y="-124.0" type="line" smooth="yes"/>
      <point x="265.0" y="-210.0"/>
      <point x="283.0" y="-237.0"/>
      <point x="331.0" y="-240.0" type="curve" smooth="yes"/>
      <point x="336.0" y="-240.0"/>
      <point x="338.0" y="-241.0"/>
      <point x="338.0" y="-245.0" type="curve" smooth="yes"/>
      <point x="338.0" y="-355.0" type="line" smooth="yes"/>
      <point x="338.0" y="-359.0"/>
      <point x="336.0" y="-360.0"/>
      <point x="332.0" y="-360.0" type="curve" smooth="yes"/>
      <point x="124.0" y="-358.0"/>
      <point x="78.0" y="-313.0"/>
      <point x="78.0" y="-199.0" type="curve" smooth="yes"/>
      <point x="78.0" y="452.0" type="line" smooth="yes"/>
      <point x="78.0" y="518.0"/>
      <point x="59.0" y="545.0"/>
      <point x="11.0" y="561.0" type="curve" smooth="yes"/>
      <point x="7.0" y="563.0"/>
      <point x="5.0" y="564.0"/>
      <point x="5.0" y="568.0" type="curve" smooth="yes"/>
      <point x="5.0" y="672.0" type="line" smooth="yes"/>
      <point x="5.0" y="676.0"/>
      <point x="6.0" y="677.0"/>
      <point x="10.0" y="678.0" type="curve" smooth="yes"/>
      <point x="60.0" y="694.0"/>
      <point x="78.0" y="721.0"/>
      <point x="78.0" y="788.0" type="curve" smooth="yes"/>
    </contour>
  </outline>
</glyph>
<glyph name="bar" format="2">
  <advance height="1920" width="260"/>
  <unicode hex="007C"/>
  <outline>
    <contour>
      <point x="45.0" y="1600.0" type="curve" smooth="yes"/>
      <point x="215.0" y="1600.0" type="line" smooth="yes"/>
      <point x="219.0" y="1600.0"/>
      <point x="220.0" y="1597.0"/>
      <point x="220.0" y="1590.0" type="curve" smooth="yes"/>
      <point x="220.0" y="-350.0" type="line" smooth="yes"/>
      <point x="220.0" y="-357.0"/>
      <point x="219.0" y="-360.0"/>
      <point x="215.0" y="-360.0" type="curve" smooth="yes"/>
      <point x="45.0" y="-360.0" type="line" smooth="yes"/>
      <point x="41.0" y="-360.0"/>
      <point x="40.0" y="-357.0"/>
      <point x="40.0" y="-350.0" type="curve" smooth="yes"/>
      <point x="40.0" y="1590.0" type="line" smooth="yes"/>
      <point x="40.0" y="1597.0"/>
      <point x="41.0" y="1600.0"/>
    </contour>
  </outline>
</glyph>
<glyph name="braceright" format="2">
  <advance height="2048" width="388"/>
  <unicode hex="007D"/>
  <outline>
    <contour>
      <point x="310.0" y="-199.0" type="line" smooth="yes"/>
      <point x="310.0" y="-313.0"/>
      <point x="265.0" y="-359.0"/>
      <point x="56.0" y="-360.0" type="curve" smooth="yes"/>
      <point x="52.0" y="-360.0"/>
      <point x="50.0" y="-359.0"/>
      <point x="50.0" y="-355.0" type="curve" smooth="yes"/>
      <point x="50.0" y="-250.0" type="line" smooth="yes"/>
      <point x="50.0" y="-246.0"/>
      <point x="52.0" y="-245.0"/>
      <point x="56.0" y="-245.0" type="curve" smooth="yes"/>
      <point x="106.0" y="-243.0"/>
      <point x="123.0" y="-216.0"/>
      <point x="123.0" y="-129.0" type="curve" smooth="yes"/>
      <point x="123.0" y="452.0" type="line" smooth="yes"/>
      <point x="123.0" y="544.0"/>
      <point x="167.0" y="596.0"/>
      <point x="245.0" y="620.0" type="curve"/>
      <point x="167.0" y="644.0"/>
      <point x="123.0" y="696.0"/>
      <point x="123.0" y="788.0" type="curve" smooth="yes"/>
      <point x="123.0" y="1364.0" type="line" smooth="yes"/>
      <point x="123.0" y="1450.0"/>
      <point x="105.0" y="1477.0"/>
      <point x="57.0" y="1480.0" type="curve" smooth="yes"/>
      <point x="52.0" y="1480.0"/>
      <point x="50.0" y="1481.0"/>
      <point x="50.0" y="1485.0" type="curve" smooth="yes"/>
      <point x="50.0" y="1595.0" type="line" smooth="yes"/>
      <point x="50.0" y="1599.0"/>
      <point x="52.0" y="1600.0"/>
      <point x="56.0" y="1600.0" type="curve" smooth="yes"/>
      <point x="264.0" y="1598.0"/>
      <point x="310.0" y="1553.0"/>
      <point x="310.0" y="1439.0" type="curve" smooth="yes"/>
      <point x="310.0" y="788.0" type="line" smooth="yes"/>
      <point x="310.0" y="722.0"/>
      <point x="329.0" y="695.0"/>
      <point x="377.0" y="679.0" type="curve" smooth="yes"/>
      <point x="381.0" y="677.0"/>
      <point x="383.0" y="676.0"/>
      <point x="383.0" y="672.0" type="curve" smooth="yes"/>
      <point x="383.0" y="568.0" type="line" smooth="yes"/>
      <point x="383.0" y="564.0"/>
      <point x="382.0" y="563.0"/>
      <point x="378.0" y="562.0" type="curve" smooth="yes"/>
      <point x="328.0" y="546.0"/>
      <point x="310.0" y="519.0"/>
      <point x="310.0" y="452.0" type="curve" smooth="yes"/>
    </contour>
  </outline>
</glyph>
<glyph name="asciitilde" format="2">
  <advance height="2048" width="664"/>
  <unicode hex="007E"/>
  <outline>
    <contour>
      <point x="210.0" y="562.0" type="curve" smooth="yes"/>
      <point x="184.0" y="562.0"/>
      <point x="182.0" y="537.0"/>
      <point x="180.0" y="511.0" type="curve" smooth="yes"/>
      <point x="180.0" y="508.0"/>
      <point x="177.0" y="507.0"/>
      <point x="174.0" y="507.0" type="curve" smooth="yes"/>
      <point x="4.0" y="507.0" type="line" smooth="yes"/>
      <point x="0.0" y="507.0"/>
      <point x="0.0" y="508.0"/>
      <point x="0.0" y="511.0" type="curve" smooth="yes"/>
      <point x="2.0" y="615.0"/>
      <point x="75.0" y="742.0"/>
      <point x="210.0" y="742.0" type="curve" smooth="yes"/>
      <point x="354.0" y="742.0"/>
      <point x="403.0" y="644.0"/>
      <point x="454.0" y="644.0" type="curve" smooth="yes"/>
      <point x="480.0" y="644.0"/>
      <point x="484.0" y="678.0"/>
      <point x="486.0" y="699.0" type="curve" smooth="yes"/>
      <point x="486.0" y="702.0"/>
      <point x="487.0" y="704.0"/>
      <point x="490.0" y="704.0" type="curve" smooth="yes"/>
      <point x="660.0" y="704.0" type="line" smooth="yes"/>
      <point x="664.0" y="704.0"/>
      <point x="664.0" y="703.0"/>
      <point x="664.0" y="699.0" type="curve" smooth="yes"/>
      <point x="662.0" y="595.0"/>
      <point x="589.0" y="469.0"/>
      <point x="454.0" y="469.0" type="curve" smooth="yes"/>
      <point x="310.0" y="469.0"/>
      <point x="261.0" y="562.0"/>
    </contour>
  </outline>
</glyph>
<glyph name="exclamdown" format="2">
  <advance height="1920" width="400"/>
  <unicode hex="00A1"/>
  <outline>
    <contour>
      <point x="85.0" y="1050.0" type="curve" smooth="yes"/>
      <point x="315.0" y="1050.0" type="line" smooth="yes"/>
      <point x="322.0" y="1050.0"/>
      <point x="325.0" y="1047.0"/>
      <point x="325.0" y="1040.0" type="curve" smooth="yes"/>
      <point x="325.0" y="700.0" type="line" smooth="yes"/>
      <point x="325.0" y="693.0"/>
      <point x="322.0" y="690.0"/>
      <point x="315.0" y="690.0" type="curve" smooth="yes"/>
      <point x="85.0" y="690.0" type="line" smooth="yes"/>
      <point x="78.0" y="690.0"/>
      <point x="75.0" y="693.0"/>
      <point x="75.0" y="700.0" type="curve" smooth="yes"/>
      <point x="75.0" y="1040.0" type="line" smooth="yes"/>
      <point x="75.0" y="1047.0"/>
      <point x="78.0" y="1050.0"/>
    </contour>
    <contour>
      <point x="355.0" y="100.0" type="curve" smooth="yes"/>
      <point x="355.0" y="-390.0" type="line" smooth="yes"/>
      <point x="355.0" y="-397.0"/>
      <point x="352.0" y="-400.0"/>
      <point x="345.0" y="-400.0" type="curve" smooth="yes"/>
      <point x="55.0" y="-400.0" type="line" smooth="yes"/>
      <point x="48.0" y="-400.0"/>
      <point x="45.0" y="-397.0"/>
      <point x="45.0" y="-390.0" type="curve" smooth="yes"/>
      <point x="45.0" y="100.0" type="line" smooth="yes"/>
      <point x="45.0" y="107.0"/>
      <point x="45.1826171875" y="113.096679688"/>
      <point x="46.0" y="120.0" type="curve" smooth="yes"/>
      <point x="144.0" y="540.0" type="line" smooth="yes"/>
      <point x="144.817382812" y="546.903320312"/>
      <point x="148.0" y="550.0"/>
      <point x="155.0" y="550.0" type="curve" smooth="yes"/>
      <point x="245.0" y="550.0" type="line" smooth="yes"/>
      <point x="252.0" y="550.0"/>
      <point x="255.182617188" y="546.903320312"/>
      <point x="256.0" y="540.0" type="curve" smooth="yes"/>
      <point x="354.0" y="120.0" type="line" smooth="yes"/>
      <point x="354.817382812" y="113.096679688"/>
      <point x="355.0" y="107.0"/>
    </contour>
  </outline>
</glyph>
<glyph name="cent" format="2">
  <advance height="1920" width="479"/>
  <unicode hex="00A2"/>
  <outline>
    <contour>
      <point x="232.0" y="1240.0" type="curve" smooth="yes"/>
      <point x="262.0" y="1240.0" type="line" smooth="yes"/>
      <point x="266.0" y="1240.0"/>
      <point x="267.0" y="1237.0"/>
      <point x="267.0" y="1230.0" type="curve" smooth="yes"/>
      <point x="267.0" y="-180.0" type="line" smooth="yes"/>
      <point x="267.0" y="-187.0"/>
      <point x="266.0" y="-190.0"/>
      <point x="262.0" y="-190.0" type="curve" smooth="yes"/>
      <point x="232.0" y="-190.0" type="line" smooth="yes"/>
      <point x="228.0" y="-190.0"/>
      <point x="227.0" y="-187.0"/>
      <point x="227.0" y="-180.0" type="curve" smooth="yes"/>
      <point x="227.0" y="1230.0" type="line" smooth="yes"/>
      <point x="227.0" y="1237.0"/>
      <point x="228.0" y="1240.0"/>
    </contour>
    <component base="c"/>
  </outline>
</glyph>
<glyph name="sterling" format="2">
  <advance height="1920" width="610"/>
  <unicode hex="00A3"/>
  <outline>
    <contour>
      <point x="19.984375" y="622.0" type="curve" smooth="yes"/>
      <point x="19.984375" y="770.0" type="line" smooth="yes"/>
      <point x="19.984375" y="774.0"/>
      <point x="21.984375" y="775.0"/>
      <point x="25.984375" y="775.0" type="curve" smooth="yes"/>
      <point x="519.984375" y="775.0" type="line" smooth="yes"/>
      <point x="523.984375" y="775.0"/>
      <point x="525.984375" y="774.0"/>
      <point x="525.984375" y="770.0" type="curve" smooth="yes"/>
      <point x="525.984375" y="622.0" type="line" smooth="yes"/>
      <point x="525.984375" y="618.0"/>
      <point x="523.984375" y="617.0"/>
      <point x="519.984375" y="617.0" type="curve" smooth="yes"/>
      <point x="25.984375" y="617.0" type="line" smooth="yes"/>
      <point x="21.984375" y="617.0"/>
      <point x="19.984375" y="618.0"/>
    </contour>
    <contour>
      <point x="37.984375" y="177.0" type="curve" smooth="yes"/>
      <point x="105.984375" y="295.0"/>
      <point x="159.984375" y="422.0"/>
      <point x="159.984375" y="657.0" type="curve" smooth="yes"/>
      <point x="159.984375" y="856.0"/>
      <point x="65.984375" y="907.0"/>
      <point x="65.984375" y="1091.0" type="curve" smooth="yes"/>
      <point x="65.984375" y="1306.0"/>
      <point x="149.984375" y="1417.0"/>
      <point x="317.984375" y="1417.0" type="curve" smooth="yes"/>
      <point x="489.984375" y="1417.0"/>
      <point x="582.984375" y="1315.0"/>
      <point x="589.984375" y="967.0" type="curve" smooth="yes"/>
      <point x="590.064453125" y="963.000976562"/>
      <point x="589.984375" y="963.0"/>
      <point x="585.984375" y="963.0" type="curve" smooth="yes"/>
      <point x="359.984375" y="963.0" type="line" smooth="yes"/>
      <point x="356.984375" y="963.0"/>
      <point x="355.017578125" y="963.0"/>
      <point x="354.984375" y="967.0" type="curve" smooth="yes"/>
      <point x="352.984375" y="1210.0"/>
      <point x="358.984375" y="1247.0"/>
      <point x="331.984375" y="1247.0" type="curve" smooth="yes"/>
      <point x="313.984375" y="1247.0"/>
      <point x="305.984375" y="1211.0"/>
      <point x="305.984375" y="1066.0" type="curve" smooth="yes"/>
      <point x="305.984375" y="945.0"/>
      <point x="389.984375" y="885.0"/>
      <point x="389.984375" y="672.0" type="curve" smooth="yes"/>
      <point x="389.984375" y="426.0"/>
      <point x="333.984375" y="295.0"/>
      <point x="264.984375" y="177.0" type="curve"/>
      <point x="579.984375" y="177.0" type="line" smooth="yes"/>
      <point x="583.984375" y="177.0"/>
      <point x="585.984375" y="176.0"/>
      <point x="585.984375" y="172.0" type="curve" smooth="yes"/>
      <point x="585.984375" y="5.0" type="line" smooth="yes"/>
      <point x="585.984375" y="1.0"/>
      <point x="583.984375" y="0.0"/>
      <point x="579.984375" y="0.0" type="curve" smooth="yes"/>
      <point x="39.984375" y="0.0" type="line" smooth="yes"/>
      <point x="35.984375" y="0.0"/>
      <point x="35.984375" y="1.0"/>
      <point x="35.984375" y="5.0" type="curve" smooth="yes"/>
      <point x="35.984375" y="172.0" type="line" smooth="yes"/>
      <point x="35.984375" y="174.0"/>
      <point x="36.4052734375" y="174.259765625"/>
    </contour>
  </outline>
</glyph>
<glyph name="currency" format="2">
  <advance width="579"/>
  <unicode hex="00A4"/>
  <outline>
    <contour>
      <point x="458.5" y="991.0" type="curve" smooth="yes"/>
      <point x="572.5" y="877.0" type="line" smooth="yes"/>
      <point x="574.5" y="875.0"/>
      <point x="574.5" y="872.0"/>
      <point x="572.5" y="870.0" type="curve" smooth="yes"/>
      <point x="491.5" y="788.0" type="line" smooth="yes"/>
      <point x="489.5" y="786.0"/>
      <point x="486.5" y="786.0"/>
      <point x="484.5" y="788.0" type="curve" smooth="yes"/>
      <point x="370.5" y="902.0" type="line" smooth="yes"/>
      <point x="368.5" y="904.0"/>
      <point x="368.5" y="908.0"/>
      <point x="370.5" y="910.0" type="curve" smooth="yes"/>
      <point x="451.5" y="991.0" type="line" smooth="yes"/>
      <point x="453.5" y="993.0"/>
      <point x="456.5" y="993.0"/>
    </contour>
    <contour>
      <point x="94.5" y="627.0" type="curve" smooth="yes"/>
      <point x="208.5" y="513.0" type="line" smooth="yes"/>
      <point x="210.5" y="511.0"/>
      <point x="210.5" y="507.0"/>
      <point x="208.5" y="505.0" type="curve" smooth="yes"/>
      <point x="127.5" y="424.0" type="line" smooth="yes"/>
      <point x="125.5" y="422.0"/>
      <point x="122.5" y="422.0"/>
      <point x="120.5" y="424.0" type="curve" smooth="yes"/>
      <point x="6.5" y="538.0" type="line" smooth="yes"/>
      <point x="4.5" y="540.0"/>
      <point x="4.5" y="543.0"/>
      <point x="6.5" y="545.0" type="curve" smooth="yes"/>
      <point x="87.5" y="627.0" type="line" smooth="yes"/>
      <point x="89.5" y="629.0"/>
      <point x="92.5" y="629.0"/>
    </contour>
    <contour>
      <point x="6.5" y="877.0" type="curve" smooth="yes"/>
      <point x="120.5" y="991.0" type="line" smooth="yes"/>
      <point x="122.5" y="993.0"/>
      <point x="125.5" y="993.0"/>
      <point x="127.5" y="991.0" type="curve" smooth="yes"/>
      <point x="208.5" y="910.0" type="line" smooth="yes"/>
      <point x="210.5" y="908.0"/>
      <point x="210.5" y="904.0"/>
      <point x="208.5" y="902.0" type="curve" smooth="yes"/>
      <point x="94.5" y="788.0" type="line" smooth="yes"/>
      <point x="92.5" y="786.0"/>
      <point x="89.5" y="786.0"/>
      <point x="87.5" y="788.0" type="curve" smooth="yes"/>
      <point x="6.5" y="870.0" type="line" smooth="yes"/>
      <point x="4.5" y="872.0"/>
      <point x="4.5" y="875.0"/>
    </contour>
    <contour>
      <point x="370.5" y="513.0" type="curve" smooth="yes"/>
      <point x="449.5" y="592.0" type="line" smooth="yes"/>
      <point x="451.5" y="594.0"/>
      <point x="489.5" y="629.0"/>
      <point x="491.5" y="627.0" type="curve" smooth="yes"/>
      <point x="572.5" y="545.0" type="line" smooth="yes"/>
      <point x="574.5" y="543.0"/>
      <point x="574.5" y="540.0"/>
      <point x="572.5" y="538.0" type="curve" smooth="yes"/>
      <point x="458.5" y="424.0" type="line" smooth="yes"/>
      <point x="456.5" y="422.0"/>
      <point x="453.5" y="422.0"/>
      <point x="451.5" y="424.0" type="curve" smooth="yes"/>
      <point x="370.5" y="505.0" type="line" smooth="yes"/>
      <point x="368.5" y="507.0"/>
      <point x="368.5" y="511.0"/>
    </contour>
    <contour>
      <point x="45.5" y="709.0" type="curve" smooth="yes"/>
      <point x="45.5" y="843.0"/>
      <point x="157.5" y="954.0"/>
      <point x="291.5" y="954.0" type="curve" smooth="yes"/>
      <point x="425.5" y="954.0"/>
      <point x="535.5" y="843.0"/>
      <point x="535.5" y="709.0" type="curve" smooth="yes"/>
      <point x="535.5" y="575.0"/>
      <point x="425.5" y="464.0"/>
      <point x="291.5" y="464.0" type="curve" smooth="yes"/>
      <point x="157.5" y="464.0"/>
      <point x="45.5" y="575.0"/>
    </contour>
    <contour>
      <point x="225.5" y="709.0" type="curve" smooth="yes"/>
      <point x="225.5" y="665.0"/>
      <point x="247.5" y="639.0"/>
      <point x="291.5" y="639.0" type="curve" smooth="yes"/>
      <point x="335.5" y="639.0"/>
      <point x="355.5" y="665.0"/>
      <point x="355.5" y="709.0" type="curve" smooth="yes"/>
      <point x="355.5" y="753.0"/>
      <point x="335.5" y="779.0"/>
      <point x="291.5" y="779.0" type="curve" smooth="yes"/>
      <point x="247.5" y="779.0"/>
      <point x="225.5" y="753.0"/>
    </contour>
  </outline>
</glyph>
<glyph name="yen" format="2">
  <advance height="1920" width="645"/>
  <unicode hex="00A5"/>
  <outline>
    <contour>
      <point x="23.0" y="449.0" type="curve" smooth="yes"/>
      <point x="23.0" y="501.0" type="line" smooth="yes"/>
      <point x="23.0" y="505.0"/>
      <point x="24.0" y="506.0"/>
      <point x="28.0" y="506.0" type="curve" smooth="yes"/>
      <point x="613.0" y="506.0" type="line" smooth="yes"/>
      <point x="617.0" y="506.0"/>
      <point x="618.0" y="505.0"/>
      <point x="618.0" y="501.0" type="curve" smooth="yes"/>
      <point x="618.0" y="449.0" type="line" smooth="yes"/>
      <point x="618.0" y="445.0"/>
      <point x="617.0" y="444.0"/>
      <point x="613.0" y="444.0" type="curve" smooth="yes"/>
      <point x="28.0" y="444.0" type="line" smooth="yes"/>
      <point x="24.0" y="444.0"/>
      <point x="23.0" y="445.0"/>
    </contour>
    <contour>
      <point x="23.0" y="584.0" type="curve" smooth="yes"/>
      <point x="23.0" y="636.0" type="line" smooth="yes"/>
      <point x="23.0" y="640.0"/>
      <point x="24.0" y="641.0"/>
      <point x="28.0" y="641.0" type="curve" smooth="yes"/>
      <point x="613.0" y="641.0" type="line" smooth="yes"/>
      <point x="617.0" y="641.0"/>
      <point x="618.0" y="640.0"/>
      <point x="618.0" y="636.0" type="curve" smooth="yes"/>
      <point x="618.0" y="584.0" type="line" smooth="yes"/>
      <point x="618.0" y="580.0"/>
      <point x="617.0" y="579.0"/>
      <point x="613.0" y="579.0" type="curve" smooth="yes"/>
      <point x="28.0" y="579.0" type="line" smooth="yes"/>
      <point x="24.0" y="579.0"/>
      <point x="23.0" y="580.0"/>
    </contour>
    <component base="Y"/>
  </outline>
</glyph>
<glyph name="brokenbar" format="2">
  <advance height="1920" width="260"/>
  <unicode hex="00A6"/>
  <outline>
    <contour>
      <point x="50.0" y="430.0" type="curve" smooth="yes"/>
      <point x="210.0" y="430.0" type="line" smooth="yes"/>
      <point x="217.0" y="430.0"/>
      <point x="220.0" y="427.0"/>
      <point x="220.0" y="420.0" type="curve" smooth="yes"/>
      <point x="220.0" y="-350.0" type="line" smooth="yes"/>
      <point x="220.0" y="-357.0"/>
      <point x="217.0" y="-360.0"/>
      <point x="210.0" y="-360.0" type="curve" smooth="yes"/>
      <point x="50.0" y="-360.0" type="line" smooth="yes"/>
      <point x="43.0" y="-360.0"/>
      <point x="40.0" y="-357.0"/>
      <point x="40.0" y="-350.0" type="curve" smooth="yes"/>
      <point x="40.0" y="420.0" type="line" smooth="yes"/>
      <point x="40.0" y="427.0"/>
      <point x="43.0" y="430.0"/>
    </contour>
    <contour>
      <point x="50.0" y="1600.0" type="curve" smooth="yes"/>
      <point x="210.0" y="1600.0" type="line" smooth="yes"/>
      <point x="217.0" y="1600.0"/>
      <point x="220.0" y="1597.0"/>
      <point x="220.0" y="1590.0" type="curve" smooth="yes"/>
      <point x="220.0" y="820.0" type="line" smooth="yes"/>
      <point x="220.0" y="813.0"/>
      <point x="217.0" y="810.0"/>
      <point x="210.0" y="810.0" type="curve" smooth="yes"/>
      <point x="50.0" y="810.0" type="line" smooth="yes"/>
      <point x="43.0" y="810.0"/>
      <point x="40.0" y="813.0"/>
      <point x="40.0" y="820.0" type="curve" smooth="yes"/>
      <point x="40.0" y="1590.0" type="line" smooth="yes"/>
      <point x="40.0" y="1597.0"/>
      <point x="43.0" y="1600.0"/>
    </contour>
  </outline>
</glyph>
<glyph name="section" format="2">
  <advance height="1920" width="512"/>
  <unicode hex="00A7"/>
  <outline>
    <contour>
      <point x="274.0" y="873.0" type="line"/>
      <point x="236.5" y="873.0"/>
      <point x="205.0" y="809.0"/>
      <point x="205.0" y="691.0" type="curve" smooth="yes"/>
      <point x="205.0" y="554.0"/>
      <point x="214.4375" y="435.0390625"/>
      <point x="307.5" y="324.0" type="curve" smooth="yes"/>
      <point x="373.869140625" y="244.809570312"/>
      <point x="420.0" y="150.0"/>
      <point x="420.0" y="-20.0" type="curve" smooth="yes"/>
      <point x="420.0" y="-252.0"/>
      <point x="362.5" y="-377.0"/>
      <point x="224.0" y="-377.0" type="curve" smooth="yes"/>
      <point x="97.0" y="-377.0"/>
      <point x="54.5" y="-264.0"/>
      <point x="47.5" y="-34.0" type="curve" smooth="yes"/>
      <point x="47.3173828125" y="-28.0029296875"/>
      <point x="49.0" y="-25.0"/>
      <point x="52.5" y="-25.0" type="curve" smooth="yes"/>
      <point x="172.0" y="-25.0" type="line" smooth="yes"/>
      <point x="175.5" y="-25.0"/>
      <point x="177.125" y="-28.0419921875"/>
      <point x="177.5" y="-35.0" type="curve" smooth="yes"/>
      <point x="184.5" y="-165.0"/>
      <point x="176.5" y="-212.0"/>
      <point x="198.0" y="-212.0" type="curve" smooth="yes"/>
      <point x="212.0" y="-212.0"/>
      <point x="220.0" y="-157.0"/>
      <point x="220.0" y="-87.0" type="curve" smooth="yes"/>
      <point x="220.0" y="1.0"/>
      <point x="191.588867188" y="52.0439453125"/>
      <point x="147.5" y="115.0" type="curve" smooth="yes"/>
      <point x="69.7001953125" y="226.091796875"/>
      <point x="20.0" y="329.0"/>
      <point x="20.0" y="586.0" type="curve" smooth="yes"/>
      <point x="20.0" y="858.0"/>
      <point x="147.5" y="953.0"/>
      <point x="279.5" y="953.0" type="curve"/>
    </contour>
    <contour>
      <point x="238.0" y="167.0" type="line"/>
      <point x="275.5" y="167.0"/>
      <point x="307.0" y="231.0"/>
      <point x="307.0" y="349.0" type="curve" smooth="yes"/>
      <point x="307.0" y="486.0"/>
      <point x="297.5625" y="604.9609375"/>
      <point x="204.5" y="716.0" type="curve" smooth="yes"/>
      <point x="138.130859375" y="795.190429688"/>
      <point x="92.0" y="890.0"/>
      <point x="92.0" y="1060.0" type="curve" smooth="yes"/>
      <point x="92.0" y="1292.0"/>
      <point x="149.5" y="1417.0"/>
      <point x="288.0" y="1417.0" type="curve" smooth="yes"/>
      <point x="415.0" y="1417.0"/>
      <point x="457.5" y="1304.0"/>
      <point x="464.5" y="1074.0" type="curve" smooth="yes"/>
      <point x="464.682617188" y="1068.00292969"/>
      <point x="463.0" y="1065.0"/>
      <point x="459.5" y="1065.0" type="curve" smooth="yes"/>
      <point x="340.0" y="1065.0" type="line" smooth="yes"/>
      <point x="336.5" y="1065.0"/>
      <point x="334.875" y="1068.04199219"/>
      <point x="334.5" y="1075.0" type="curve" smooth="yes"/>
      <point x="327.5" y="1205.0"/>
      <point x="335.5" y="1252.0"/>
      <point x="314.0" y="1252.0" type="curve" smooth="yes"/>
      <point x="300.0" y="1252.0"/>
      <point x="292.0" y="1197.0"/>
      <point x="292.0" y="1127.0" type="curve" smooth="yes"/>
      <point x="292.0" y="1039.0"/>
      <point x="320.411132812" y="987.956054688"/>
      <point x="364.5" y="925.0" type="curve" smooth="yes"/>
      <point x="442.299804688" y="813.908203125"/>
      <point x="492.0" y="711.0"/>
      <point x="492.0" y="454.0" type="curve" smooth="yes"/>
      <point x="492.0" y="182.0"/>
      <point x="364.5" y="87.0"/>
      <point x="232.5" y="87.0" type="curve"/>
    </contour>
  </outline>
</glyph>
<glyph name="copyright" format="2">
  <advance width="844"/>
  <unicode hex="00A9"/>
  <outline>
    <contour>
      <point x="575.0" y="622.0" type="curve" smooth="yes"/>
      <point x="575.0" y="358.30738523"/>
      <point x="575.0" y="249.0"/>
      <point x="408.0" y="249.0" type="curve" smooth="yes"/>
      <point x="286.0" y="249.0"/>
      <point x="260.0" y="325.0"/>
      <point x="260.0" y="469.0" type="curve" smooth="yes"/>
      <point x="260.0" y="885.0" type="line" smooth="yes"/>
      <point x="260.0" y="1023.0"/>
      <point x="286.0" y="1111.0"/>
      <point x="414.0" y="1111.0" type="curve" smooth="yes"/>
      <point x="566.0" y="1111.0"/>
      <point x="566.0" y="989.219298246"/>
      <point x="566.0" y="780.0" type="curve" smooth="yes"/>
      <point x="566.0" y="778.0"/>
      <point x="565.0" y="777.0"/>
      <point x="563.0" y="777.0" type="curve" smooth="yes"/>
      <point x="459.0" y="777.0" type="line" smooth="yes"/>
      <point x="457.0" y="777.0"/>
      <point x="455.0" y="778.0"/>
      <point x="455.0" y="780.0" type="curve" smooth="yes"/>
      <point x="454.0" y="938.0"/>
      <point x="456.0" y="991.0"/>
      <point x="432.0" y="991.0" type="curve" smooth="yes"/>
      <point x="411.0" y="991.0"/>
      <point x="410.0" y="957.0"/>
      <point x="410.0" y="888.0" type="curve" smooth="yes"/>
      <point x="410.0" y="448.0" type="line" smooth="yes"/>
      <point x="410.0" y="388.0"/>
      <point x="412.0" y="369.0"/>
      <point x="432.0" y="369.0" type="curve" smooth="yes"/>
      <point x="454.0" y="369.0"/>
      <point x="458.0" y="417.0"/>
      <point x="458.0" y="622.0" type="curve" smooth="yes"/>
      <point x="458.0" y="624.0"/>
      <point x="459.0" y="625.0"/>
      <point x="461.0" y="625.0" type="curve" smooth="yes"/>
      <point x="572.0" y="625.0" type="line" smooth="yes"/>
      <point x="574.0" y="625.0"/>
      <point x="575.0" y="624.0"/>
    </contour>
    <contour>
      <point x="769.0" y="668.0" type="curve" smooth="yes"/>
      <point x="769.0" y="284.0"/>
      <point x="735.0" y="-28.0"/>
      <point x="421.0" y="-28.0" type="curve" smooth="yes"/>
      <point x="107.0" y="-28.0"/>
      <point x="75.0" y="284.0"/>
      <point x="75.0" y="668.0" type="curve" smooth="yes"/>
      <point x="75.0" y="1052.0"/>
      <point x="107.0" y="1366.0"/>
      <point x="421.0" y="1366.0" type="curve" smooth="yes"/>
      <point x="735.0" y="1366.0"/>
      <point x="769.0" y="1052.0"/>
    </contour>
    <contour>
      <point x="723.0" y="668.0" type="curve" smooth="yes"/>
      <point x="723.0" y="1006.0"/>
      <point x="709.0" y="1320.0"/>
      <point x="421.0" y="1320.0" type="curve" smooth="yes"/>
      <point x="133.0" y="1320.0"/>
      <point x="121.0" y="1006.0"/>
      <point x="121.0" y="668.0" type="curve" smooth="yes"/>
      <point x="121.0" y="330.0"/>
      <point x="133.0" y="18.0"/>
      <point x="421.0" y="18.0" type="curve" smooth="yes"/>
      <point x="709.0" y="18.0"/>
      <point x="723.0" y="330.0"/>
    </contour>
  </outline>
</glyph>
<glyph name="ordfeminine" format="2">
  <advance height="1920" width="430"/>
  <unicode hex="00AA"/>
  <outline>
    <contour>
      <point x="192.0" y="892.0" type="curve" smooth="yes"/>
      <point x="192.0" y="854.0"/>
      <point x="192.5" y="791.0"/>
      <point x="207.0" y="791.0" type="curve" smooth="yes"/>
      <point x="222.0" y="791.0"/>
      <point x="223.5" y="835.0"/>
      <point x="223.5" y="903.0" type="curve"/>
      <point x="262.5" y="827.0" type="line"/>
      <point x="262.5" y="705.0"/>
      <point x="221.5" y="609.0"/>
      <point x="137.0" y="609.0" type="curve" smooth="yes"/>
      <point x="50.0" y="609.0"/>
      <point x="10.0" y="693.0"/>
      <point x="10.0" y="852.0" type="curve" smooth="yes"/>
      <point x="10.0" y="1047.0"/>
      <point x="77.0" y="1095.0"/>
      <point x="159.0" y="1139.0" type="curve" smooth="yes"/>
      <point x="208.799804688" y="1165.72167969"/>
      <point x="223.5" y="1185.0"/>
      <point x="223.5" y="1211.0" type="curve"/>
      <point x="235.5" y="1084.0" type="line"/>
      <point x="235.5" y="1066.0"/>
      <point x="222.556640625" y="1041.53417969"/>
      <point x="211.0" y="1024.0" type="curve" smooth="yes"/>
      <point x="196.5" y="1002.0"/>
      <point x="192.0" y="930.0"/>
    </contour>
    <contour>
      <point x="223.5" y="769.0" type="curve" smooth="yes"/>
      <point x="223.5" y="1261.0" type="line" smooth="yes"/>
      <point x="223.5" y="1315.0"/>
      <point x="222.5" y="1341.0"/>
      <point x="208.0" y="1341.0" type="curve" smooth="yes"/>
      <point x="197.5" y="1341.0"/>
      <point x="193.5" y="1323.0"/>
      <point x="192.5" y="1222.0" type="curve" smooth="yes"/>
      <point x="192.4609375" y="1218.00585938"/>
      <point x="191.5" y="1217.0"/>
      <point x="189.5" y="1217.0" type="curve" smooth="yes"/>
      <point x="39.5" y="1217.0" type="line" smooth="yes"/>
      <point x="37.5" y="1217.0"/>
      <point x="36.263671875" y="1217.97558594"/>
      <point x="36.5" y="1222.0" type="curve" smooth="yes"/>
      <point x="46.5" y="1392.0"/>
      <point x="95.0" y="1489.0"/>
      <point x="223.5" y="1489.0" type="curve" smooth="yes"/>
      <point x="366.5" y="1489.0"/>
      <point x="402.5" y="1395.0"/>
      <point x="402.5" y="1214.0" type="curve" smooth="yes"/>
      <point x="402.5" y="769.0" type="line" smooth="yes"/>
      <point x="402.5" y="712.0"/>
      <point x="408.5" y="673.0"/>
      <point x="419.5" y="648.0" type="curve" smooth="yes"/>
      <point x="421.0" y="645.0"/>
      <point x="420.5" y="644.0"/>
      <point x="418.5" y="644.0" type="curve" smooth="yes"/>
      <point x="253.5" y="644.0" type="line" smooth="yes"/>
      <point x="251.5" y="644.0"/>
      <point x="250.0" y="646.0"/>
      <point x="249.0" y="648.0" type="curve" smooth="yes"/>
      <point x="238.0" y="674.0"/>
      <point x="223.5" y="712.0"/>
    </contour>
  </outline>
</glyph>
<glyph name="logicalnot" format="2">
  <advance height="2048" width="575"/>
  <unicode hex="00AC"/>
  <outline>
    <contour>
      <point x="40.0" y="543.75" type="curve" smooth="yes"/>
      <point x="40.0" y="711.25" type="line" smooth="yes"/>
      <point x="40.0" y="714.75"/>
      <point x="41.5" y="716.25"/>
      <point x="45.0" y="716.25" type="curve" smooth="yes"/>
      <point x="535.0" y="716.25" type="line" smooth="yes"/>
      <point x="538.5" y="716.25"/>
      <point x="540.0" y="714.75"/>
      <point x="540.0" y="711.25" type="curve" smooth="yes"/>
      <point x="540.0" y="453.75" type="line" smooth="yes"/>
      <point x="540.0" y="450.25"/>
      <point x="538.5" y="448.75"/>
      <point x="535.0" y="448.75" type="curve" smooth="yes"/>
      <point x="350.0" y="448.75" type="line" smooth="yes"/>
      <point x="346.5" y="448.75"/>
      <point x="345.0" y="450.25"/>
      <point x="345.0" y="453.75" type="curve" smooth="yes"/>
      <point x="345.0" y="538.75" type="line"/>
      <point x="45.0" y="538.75" type="line" smooth="yes"/>
      <point x="41.5" y="538.75"/>
      <point x="40.0" y="540.25"/>
    </contour>
  </outline>
</glyph>
<glyph name="registered" format="2">
  <advance width="844"/>
  <unicode hex="00AE"/>
  <outline>
    <contour>
      <point x="400.0" y="995.0" type="line"/>
      <point x="400.0" y="692.0" type="line"/>
      <point x="412.0" y="692.0" type="line" smooth="yes"/>
      <point x="432.400390625" y="692.0"/>
      <point x="434.799804688" y="710.599609375"/>
      <point x="434.799804688" y="737.599609375" type="curve" smooth="yes"/>
      <point x="434.799804688" y="948.799804688" type="line" smooth="yes"/>
      <point x="434.799804688" y="972.799804688"/>
      <point x="432.400390625" y="995.0"/>
      <point x="412.0" y="995.0" type="curve" smooth="yes"/>
    </contour>
    <contour>
      <point x="418.0" y="1100.0" type="line" smooth="yes"/>
      <point x="557.799804688" y="1100.0"/>
      <point x="584.799804688" y="1037.59960938"/>
      <point x="584.799804688" y="944.599609375" type="curve" smooth="yes"/>
      <point x="584.799804688" y="787.400390625" type="line" smooth="yes"/>
      <point x="584.799804688" y="685.400390625"/>
      <point x="516.400390625" y="644.0"/>
      <point x="418.0" y="644.0" type="curve"/>
      <point x="418.0" y="662.0" type="line"/>
      <point x="524.799804688" y="662.0"/>
      <point x="587.200195312" y="653.599609375"/>
      <point x="587.200195312" y="539.599609375" type="curve" smooth="yes"/>
      <point x="587.200195312" y="358.400390625" type="line" smooth="yes"/>
      <point x="587.200195312" y="324.200195312"/>
      <point x="590.799804688" y="298.400390625"/>
      <point x="604.599609375" y="278.0" type="curve" smooth="yes"/>
      <point x="607.0" y="274.400390625"/>
      <point x="607.0" y="273.799804688"/>
      <point x="607.0" y="272.0" type="curve" smooth="yes"/>
      <point x="607.0" y="263.0" type="line" smooth="yes"/>
      <point x="607.0" y="260.599609375"/>
      <point x="606.400390625" y="260.0"/>
      <point x="604.0" y="260.0" type="curve" smooth="yes"/>
      <point x="461.200195312" y="260.0" type="line" smooth="yes"/>
      <point x="458.799804688" y="260.0"/>
      <point x="456.919921875" y="261.142578125"/>
      <point x="455.200195312" y="263.599609375" type="curve" smooth="yes"/>
      <point x="438.400390625" y="287.599609375"/>
      <point x="434.799804688" y="314.0"/>
      <point x="434.799804688" y="358.400390625" type="curve" smooth="yes"/>
      <point x="434.799804688" y="581.599609375" type="line" smooth="yes"/>
      <point x="434.799804688" y="605.599609375"/>
      <point x="425.799804688" y="617.0"/>
      <point x="409.0" y="617.0" type="curve" smooth="yes"/>
      <point x="400.0" y="617.0" type="line"/>
      <point x="400.0" y="263.0" type="line" smooth="yes"/>
      <point x="400.0" y="260.599609375"/>
      <point x="399.400390625" y="260.0"/>
      <point x="397.0" y="260.0" type="curve" smooth="yes"/>
      <point x="256.0" y="260.0" type="line" smooth="yes"/>
      <point x="253.599609375" y="260.0"/>
      <point x="253.0" y="260.599609375"/>
      <point x="253.0" y="263.0" type="curve" smooth="yes"/>
      <point x="253.0" y="1097.0" type="line" smooth="yes"/>
      <point x="253.0" y="1099.40039062"/>
      <point x="253.599609375" y="1100.0"/>
      <point x="256.0" y="1100.0" type="curve" smooth="yes"/>
    </contour>
    <contour>
      <point x="769.0" y="668.0" type="curve" smooth="yes"/>
      <point x="769.0" y="284.0"/>
      <point x="735.0" y="-28.0"/>
      <point x="421.0" y="-28.0" type="curve" smooth="yes"/>
      <point x="107.0" y="-28.0"/>
      <point x="75.0" y="284.0"/>
      <point x="75.0" y="668.0" type="curve" smooth="yes"/>
      <point x="75.0" y="1052.0"/>
      <point x="107.0" y="1366.0"/>
      <point x="421.0" y="1366.0" type="curve" smooth="yes"/>
      <point x="735.0" y="1366.0"/>
      <point x="769.0" y="1052.0"/>
    </contour>
    <contour>
      <point x="723.0" y="668.0" type="curve" smooth="yes"/>
      <point x="723.0" y="1006.0"/>
      <point x="709.0" y="1320.0"/>
      <point x="421.0" y="1320.0" type="curve" smooth="yes"/>
      <point x="133.0" y="1320.0"/>
      <point x="121.0" y="1006.0"/>
      <point x="121.0" y="668.0" type="curve" smooth="yes"/>
      <point x="121.0" y="330.0"/>
      <point x="133.0" y="18.0"/>
      <point x="421.0" y="18.0" type="curve" smooth="yes"/>
      <point x="709.0" y="18.0"/>
      <point x="723.0" y="330.0"/>
    </contour>
  </outline>
</glyph>
<glyph name="plusminus" format="2">
  <advance width="575"/>
  <unicode hex="00B1"/>
  <outline>
    <contour>
      <point x="50.0" y="452.5" type="curve" smooth="yes"/>
      <point x="50.0" y="620.0" type="line" smooth="yes"/>
      <point x="50.0" y="623.5"/>
      <point x="51.5" y="625.0"/>
      <point x="55.0" y="625.0" type="curve" smooth="yes"/>
      <point x="520.0" y="625.0" type="line" smooth="yes"/>
      <point x="523.5" y="625.0"/>
      <point x="525.0" y="623.5"/>
      <point x="525.0" y="620.0" type="curve" smooth="yes"/>
      <point x="525.0" y="452.5" type="line" smooth="yes"/>
      <point x="525.0" y="449.0"/>
      <point x="523.5" y="447.5"/>
      <point x="520.0" y="447.5" type="curve" smooth="yes"/>
      <point x="55.0" y="447.5" type="line" smooth="yes"/>
      <point x="51.5" y="447.5"/>
      <point x="50.0" y="449.0"/>
    </contour>
    <contour>
      <point x="50.0" y="835.0" type="curve" smooth="yes"/>
      <point x="50.0" y="1002.5" type="line" smooth="yes"/>
      <point x="50.0" y="1006.0"/>
      <point x="51.5" y="1007.5"/>
      <point x="55.0" y="1007.5" type="curve" smooth="yes"/>
      <point x="520.0" y="1007.5" type="line" smooth="yes"/>
      <point x="523.5" y="1007.5"/>
      <point x="525.0" y="1006.0"/>
      <point x="525.0" y="1002.5" type="curve" smooth="yes"/>
      <point x="525.0" y="835.0" type="line" smooth="yes"/>
      <point x="525.0" y="831.5"/>
      <point x="523.5" y="830.0"/>
      <point x="520.0" y="830.0" type="curve" smooth="yes"/>
      <point x="55.0" y="830.0" type="line" smooth="yes"/>
      <point x="51.5" y="830.0"/>
      <point x="50.0" y="831.5"/>
    </contour>
    <contour>
      <point x="205.0" y="1142.5" type="curve" smooth="yes"/>
      <point x="370.0" y="1142.5" type="line" smooth="yes"/>
      <point x="373.5" y="1142.5"/>
      <point x="375.0" y="1141.0"/>
      <point x="375.0" y="1137.5" type="curve" smooth="yes"/>
      <point x="375.0" y="687.5" type="line" smooth="yes"/>
      <point x="375.0" y="684.0"/>
      <point x="373.5" y="682.5"/>
      <point x="370.0" y="682.5" type="curve" smooth="yes"/>
      <point x="205.0" y="682.5" type="line" smooth="yes"/>
      <point x="201.5" y="682.5"/>
      <point x="200.0" y="684.0"/>
      <point x="200.0" y="687.5" type="curve" smooth="yes"/>
      <point x="200.0" y="1137.5" type="line" smooth="yes"/>
      <point x="200.0" y="1141.0"/>
      <point x="201.5" y="1142.5"/>
    </contour>
  </outline>
</glyph>
<glyph name="acute" format="2">
  <advance width="386"/>
  <unicode hex="00B4"/>
  <outline>
    <contour>
      <point x="33.0" y="1104.0" type="line" smooth="yes"/>
      <point x="29.0" y="1104.0"/>
      <point x="29.0" y="1107.0"/>
      <point x="31.0" y="1114.0" type="curve" smooth="yes"/>
      <point x="68.0" y="1390.0" type="line" smooth="yes"/>
      <point x="70.0" y="1397.0"/>
      <point x="72.0" y="1400.0"/>
      <point x="76.0" y="1400.0" type="curve" smooth="yes"/>
      <point x="356.0" y="1400.0" type="line" smooth="yes"/>
      <point x="360.0" y="1400.0"/>
      <point x="358.0" y="1395.0"/>
      <point x="356.0" y="1390.0" type="curve" smooth="yes"/>
      <point x="168.0" y="1114.0" type="line" smooth="yes"/>
      <point x="166.0" y="1109.0"/>
      <point x="162.0" y="1104.0"/>
      <point x="158.0" y="1104.0" type="curve" smooth="yes"/>
    </contour>
  </outline>
</glyph>
<glyph name="mu" format="2">
  <advance height="1920" width="582"/>
  <unicode hex="00B5"/>
  <outline>
    <contour>
      <point x="32.0" y="1050.0" type="curve" smooth="yes"/>
      <point x="258.0" y="1050.0" type="line" smooth="yes"/>
      <point x="265.0" y="1050.0"/>
      <point x="268.0" y="1047.0"/>
      <point x="268.0" y="1040.0" type="curve" smooth="yes"/>
      <point x="268.0" y="-350.0" type="line" smooth="yes"/>
      <point x="268.0" y="-357.0"/>
      <point x="265.0" y="-360.0"/>
      <point x="258.0" y="-360.0" type="curve" smooth="yes"/>
      <point x="32.0" y="-360.0" type="line" smooth="yes"/>
      <point x="25.0" y="-360.0"/>
      <point x="22.0" y="-357.0"/>
      <point x="22.0" y="-350.0" type="curve" smooth="yes"/>
      <point x="22.0" y="1040.0" type="line" smooth="yes"/>
      <point x="22.0" y="1047.0"/>
      <point x="25.0" y="1050.0"/>
    </contour>
    <contour>
      <point x="553.0" y="0.0" type="curve" smooth="yes"/>
      <point x="323.0" y="0.0" type="line" smooth="yes"/>
      <point x="319.0" y="0.0"/>
      <point x="317.0" y="1.0"/>
      <point x="317.0" y="5.0" type="curve" smooth="yes"/>
      <point x="317.0" y="182.0" type="line"/>
      <point x="313.0" y="195.0" type="line"/>
      <point x="313.0" y="1045.0" type="line" smooth="yes"/>
      <point x="313.0" y="1049.0"/>
      <point x="313.0" y="1050.0"/>
      <point x="317.0" y="1050.0" type="curve" smooth="yes"/>
      <point x="553.0" y="1050.0" type="line" smooth="yes"/>
      <point x="557.0" y="1050.0"/>
      <point x="557.0" y="1049.0"/>
      <point x="557.0" y="1045.0" type="curve" smooth="yes"/>
      <point x="557.0" y="5.0" type="line" smooth="yes"/>
      <point x="557.0" y="1.0"/>
      <point x="557.0" y="0.0"/>
    </contour>
    <contour>
      <point x="337.0" y="174.0" type="line"/>
      <point x="337.0" y="54.0"/>
      <point x="314.0" y="-18.0"/>
      <point x="270.0" y="-18.0" type="curve" smooth="yes"/>
      <point x="216.0" y="-18.0"/>
      <point x="152.0" y="39.0"/>
      <point x="152.0" y="194.0" type="curve" smooth="yes"/>
      <point x="152.0" y="1045.0" type="line" smooth="yes"/>
      <point x="152.0" y="1049.0"/>
      <point x="154.0" y="1050.0"/>
      <point x="158.0" y="1050.0" type="curve" smooth="yes"/>
      <point x="262.0" y="1050.0" type="line" smooth="yes"/>
      <point x="266.0" y="1050.0"/>
      <point x="268.0" y="1049.0"/>
      <point x="268.0" y="1045.0" type="curve" smooth="yes"/>
      <point x="268.0" y="218.0" type="line" smooth="yes"/>
      <point x="268.0" y="168.0"/>
      <point x="271.0" y="148.0"/>
      <point x="285.0" y="148.0" type="curve" smooth="yes"/>
      <point x="303.0" y="148.0"/>
      <point x="313.0" y="183.0"/>
      <point x="313.0" y="288.0" type="curve"/>
    </contour>
  </outline>
</glyph>
<glyph name="paragraph" format="2">
  <advance height="1920" width="755"/>
  <unicode hex="00B6"/>
  <outline>
    <contour>
      <point x="662.0" y="1225.0" type="line"/>
      <point x="662.0" y="-350.0" type="line" smooth="yes"/>
      <point x="662.0" y="-357.0"/>
      <point x="661.0" y="-360.0"/>
      <point x="657.0" y="-360.0" type="curve" smooth="yes"/>
      <point x="492.0" y="-360.0" type="line" smooth="yes"/>
      <point x="488.0" y="-360.0"/>
      <point x="487.0" y="-357.0"/>
      <point x="487.0" y="-350.0" type="curve" smooth="yes"/>
      <point x="487.0" y="1225.0" type="line"/>
      <point x="447.0" y="1225.0" type="line"/>
      <point x="447.0" y="-350.0" type="line" smooth="yes"/>
      <point x="447.0" y="-357.0"/>
      <point x="446.0" y="-360.0"/>
      <point x="442.0" y="-360.0" type="curve" smooth="yes"/>
      <point x="282.0" y="-360.0" type="line" smooth="yes"/>
      <point x="278.0" y="-360.0"/>
      <point x="277.0" y="-357.0"/>
      <point x="277.0" y="-350.0" type="curve" smooth="yes"/>
      <point x="277.0" y="400.0" type="line"/>
      <point x="272.0" y="400.0" type="line" smooth="yes"/>
      <point x="144.0" y="400.0"/>
      <point x="24.0" y="548.0"/>
      <point x="24.0" y="868.0" type="curve" smooth="yes"/>
      <point x="24.0" y="932.0" type="line" smooth="yes"/>
      <point x="24.0" y="1252.0"/>
      <point x="144.0" y="1400.0"/>
      <point x="272.0" y="1400.0" type="curve" smooth="yes"/>
      <point x="732.0" y="1400.0" type="line" smooth="yes"/>
      <point x="736.0" y="1400.0"/>
      <point x="737.0" y="1397.0"/>
      <point x="737.0" y="1390.0" type="curve" smooth="yes"/>
      <point x="737.0" y="1235.0" type="line" smooth="yes"/>
      <point x="737.0" y="1228.0"/>
      <point x="736.0" y="1225.0"/>
      <point x="732.0" y="1225.0" type="curve" smooth="yes"/>
    </contour>
  </outline>
</glyph>
<glyph name="uni00B9" format="2">
  <advance height="1920" width="258"/>
  <unicode hex="00B9"/>
  <outline>
    <contour>
      <point x="59.0" y="1447.0" type="curve" smooth="yes"/>
      <point x="101.0" y="1447.0"/>
      <point x="116.0" y="1460.0"/>
      <point x="119.0" y="1482.0" type="curve" smooth="yes"/>
      <point x="119.0" y="1484.0"/>
      <point x="121.0" y="1484.0"/>
      <point x="123.0" y="1484.0" type="curve" smooth="yes"/>
      <point x="199.0" y="1484.0" type="line" smooth="yes"/>
      <point x="201.0" y="1484.0"/>
      <point x="203.0" y="1484.0"/>
      <point x="203.0" y="1482.0" type="curve" smooth="yes"/>
      <point x="203.0" y="642.0" type="line" smooth="yes"/>
      <point x="203.0" y="640.0"/>
      <point x="201.0" y="640.0"/>
      <point x="199.0" y="640.0" type="curve" smooth="yes"/>
      <point x="59.0" y="640.0" type="line" smooth="yes"/>
      <point x="57.0" y="640.0"/>
      <point x="55.0" y="640.0"/>
      <point x="55.0" y="642.0" type="curve" smooth="yes"/>
      <point x="55.0" y="1444.0" type="line" smooth="yes"/>
      <point x="55.0" y="1446.0"/>
      <point x="57.0" y="1447.0"/>
    </contour>
  </outline>
</glyph>
<glyph name="questiondown" format="2">
  <advance height="1920" width="600"/>
  <unicode hex="00BF"/>
  <outline>
    <contour>
      <point x="192.0" y="1050.0" type="curve" smooth="yes"/>
      <point x="422.0" y="1050.0" type="line" smooth="yes"/>
      <point x="429.0" y="1050.0"/>
      <point x="432.0" y="1047.0"/>
      <point x="432.0" y="1040.0" type="curve" smooth="yes"/>
      <point x="432.0" y="700.0" type="line" smooth="yes"/>
      <point x="432.0" y="693.0"/>
      <point x="429.0" y="690.0"/>
      <point x="422.0" y="690.0" type="curve" smooth="yes"/>
      <point x="192.0" y="690.0" type="line" smooth="yes"/>
      <point x="185.0" y="690.0"/>
      <point x="182.0" y="693.0"/>
      <point x="182.0" y="700.0" type="curve" smooth="yes"/>
      <point x="182.0" y="1040.0" type="line" smooth="yes"/>
      <point x="182.0" y="1047.0"/>
      <point x="185.0" y="1050.0"/>
    </contour>
    <contour>
      <point x="252.0" y="620.0" type="curve" smooth="yes"/>
      <point x="397.0" y="620.0" type="line" smooth="yes"/>
      <point x="401.0" y="620.0"/>
      <point x="402.745117188" y="617.989257812"/>
      <point x="403.0" y="615.0" type="curve" smooth="yes"/>
      <point x="424.0" y="369.0"/>
      <point x="295.0" y="360.0"/>
      <point x="295.0" y="173.0" type="curve" smooth="yes"/>
      <point x="295.0" y="-128.0" type="line" smooth="yes"/>
      <point x="295.0" y="-223.0"/>
      <point x="302.0" y="-241.0"/>
      <point x="320.0" y="-241.0" type="curve" smooth="yes"/>
      <point x="340.0" y="-241.0"/>
      <point x="345.0" y="-216.0"/>
      <point x="345.0" y="-120.0" type="curve" smooth="yes"/>
      <point x="345.0" y="93.0" type="line" smooth="yes"/>
      <point x="345.0" y="97.0"/>
      <point x="345.0" y="98.0"/>
      <point x="349.0" y="98.0" type="curve" smooth="yes"/>
      <point x="579.0" y="98.0" type="line" smooth="yes"/>
      <point x="583.0" y="98.0"/>
      <point x="585.0" y="97.0"/>
      <point x="585.0" y="93.0" type="curve" smooth="yes"/>
      <point x="585.0" y="-155.0" type="line" smooth="yes"/>
      <point x="585.0" y="-297.0"/>
      <point x="505.0" y="-417.0"/>
      <point x="307.0" y="-417.0" type="curve" smooth="yes"/>
      <point x="109.0" y="-417.0"/>
      <point x="15.0" y="-311.0"/>
      <point x="15.0" y="-171.0" type="curve" smooth="yes"/>
      <point x="15.0" y="116.0" type="line" smooth="yes"/>
      <point x="15.0" y="398.0"/>
      <point x="202.0" y="388.0"/>
      <point x="246.0" y="616.0" type="curve" smooth="yes"/>
      <point x="246.423828125" y="618.1953125"/>
      <point x="249.0" y="620.0"/>
    </contour>
  </outline>
</glyph>
<glyph name="AE" format="2">
  <advance height="1920" width="788"/>
  <unicode hex="00C6"/>
  <outline>
    <contour>
      <point x="118.0" y="520.0" type="line"/>
      <point x="498.0" y="520.0" type="line"/>
      <point x="498.0" y="395.0" type="line"/>
      <point x="118.0" y="395.0" type="line"/>
    </contour>
    <contour>
      <point x="423.0" y="1400.0" type="line"/>
      <point x="201.0" y="10.0" type="line" smooth="yes"/>
      <point x="197.338867188" y="4.4189453125"/>
      <point x="195.0" y="0.0"/>
      <point x="188.0" y="0.0" type="curve" smooth="yes"/>
      <point x="-12.0" y="0.0" type="line" smooth="yes"/>
      <point x="-19.0" y="0.0"/>
      <point x="-22.361328125" y="4.896484375"/>
      <point x="-19.0" y="10.0" type="curve" smooth="yes"/>
      <point x="220.0" y="1390.0" type="line" smooth="yes"/>
      <point x="223.361328125" y="1395.10351562"/>
      <point x="226.0" y="1400.0"/>
      <point x="233.0" y="1400.0" type="curve" smooth="yes"/>
    </contour>
    <component base="E" xOffset="348.0"/>
  </outline>
</glyph>
<glyph name="multiply" format="2">
  <advance height="1920" width="650"/>
  <unicode hex="00D7"/>
  <outline>
    <contour>
      <point x="548.0" y="600.0" type="curve" smooth="yes"/>
      <point x="438.0" y="489.0" type="line" smooth="yes"/>
      <point x="436.0" y="487.0"/>
      <point x="433.0" y="487.0"/>
      <point x="431.0" y="489.0" type="curve" smooth="yes"/>
      <point x="102.0" y="818.0" type="line" smooth="yes"/>
      <point x="100.0" y="820.0"/>
      <point x="100.0" y="823.0"/>
      <point x="102.0" y="825.0" type="curve" smooth="yes"/>
      <point x="213.0" y="936.0" type="line" smooth="yes"/>
      <point x="215.0" y="938.0"/>
      <point x="218.0" y="938.0"/>
      <point x="220.0" y="936.0" type="curve" smooth="yes"/>
      <point x="548.0" y="607.0" type="line" smooth="yes"/>
      <point x="550.0" y="605.0"/>
      <point x="550.0" y="602.0"/>
    </contour>
    <contour>
      <point x="213.0" y="489.0" type="curve" smooth="yes"/>
      <point x="102.0" y="600.0" type="line" smooth="yes"/>
      <point x="100.0" y="602.0"/>
      <point x="100.0" y="605.0"/>
      <point x="102.0" y="607.0" type="curve" smooth="yes"/>
      <point x="431.0" y="936.0" type="line" smooth="yes"/>
      <point x="433.0" y="938.0"/>
      <point x="436.0" y="938.0"/>
      <point x="438.0" y="936.0" type="curve" smooth="yes"/>
      <point x="548.0" y="825.0" type="line" smooth="yes"/>
      <point x="550.0" y="823.0"/>
      <point x="550.0" y="820.0"/>
      <point x="548.0" y="818.0" type="curve" smooth="yes"/>
      <point x="220.0" y="489.0" type="line" smooth="yes"/>
      <point x="218.0" y="487.0"/>
      <point x="215.0" y="487.0"/>
    </contour>
  </outline>
</glyph>
<glyph name="germandbls" format="2">
  <advance height="1920" width="685"/>
  <unicode hex="00DF"/>
  <outline>
    <contour>
      <point x="35.0" y="1218.0" type="line" smooth="yes"/>
      <point x="35.0" y="1390.0"/>
      <point x="149.0" y="1467.0"/>
      <point x="319.0" y="1467.0" type="curve" smooth="yes"/>
      <point x="511.0" y="1467.0"/>
      <point x="567.0" y="1355.0"/>
      <point x="567.0" y="1261.0" type="curve" smooth="yes"/>
      <point x="567.0" y="1103.0"/>
      <point x="541.0" y="1061.0"/>
      <point x="541.0" y="931.0" type="curve" smooth="yes"/>
      <point x="541.0" y="771.0"/>
      <point x="677.0" y="641.0"/>
      <point x="677.0" y="391.0" type="curve" smooth="yes"/>
      <point x="677.0" y="95.0"/>
      <point x="567.0" y="-17.0"/>
      <point x="332.0" y="-17.0" type="curve" smooth="yes"/>
      <point x="328.0" y="-17.0"/>
      <point x="327.0" y="-17.0"/>
      <point x="327.0" y="-13.0" type="curve" smooth="yes"/>
      <point x="327.0" y="143.0" type="line" smooth="yes"/>
      <point x="327.0" y="147.0"/>
      <point x="328.0" y="147.0"/>
      <point x="332.0" y="147.0" type="curve" smooth="yes"/>
      <point x="400.0" y="147.0"/>
      <point x="427.0" y="245.0"/>
      <point x="427.0" y="409.0" type="curve" smooth="yes"/>
      <point x="427.0" y="611.0"/>
      <point x="307.0" y="698.0"/>
      <point x="307.0" y="878.0" type="curve" smooth="yes"/>
      <point x="307.0" y="1034.0"/>
      <point x="321.0" y="1113.0"/>
      <point x="321.0" y="1208.0" type="curve" smooth="yes"/>
      <point x="321.0" y="1278.0"/>
      <point x="316.0" y="1304.0"/>
      <point x="300.0" y="1304.0" type="curve" smooth="yes"/>
      <point x="284.0" y="1304.0"/>
      <point x="278.0" y="1279.0"/>
      <point x="278.0" y="1193.0" type="curve" smooth="yes"/>
      <point x="278.0" y="5.0" type="line" smooth="yes"/>
      <point x="278.0" y="1.0"/>
      <point x="277.0" y="0.0"/>
      <point x="273.0" y="0.0" type="curve" smooth="yes"/>
      <point x="41.0" y="0.0" type="line" smooth="yes"/>
      <point x="37.0" y="0.0"/>
      <point x="35.0" y="1.0"/>
      <point x="35.0" y="5.0" type="curve" smooth="yes"/>
    </contour>
  </outline>
</glyph>
<glyph name="ae" format="2">
  <advance height="960" width="836"/>
  <unicode hex="00E6"/>
  <outline>
    <contour>
      <point x="246.0" y="330.0" type="curve" smooth="yes"/>
      <point x="246.0" y="198.0"/>
      <point x="259.0" y="158.0"/>
      <point x="273.0" y="158.0" type="curve" smooth="yes"/>
      <point x="290.0" y="158.0"/>
      <point x="292.0" y="186.0"/>
      <point x="292.0" y="234.0" type="curve"/>
      <point x="412.0" y="234.0" type="line"/>
      <point x="412.0" y="132.0"/>
      <point x="367.0" y="-18.0"/>
      <point x="231.0" y="-18.0" type="curve" smooth="yes"/>
      <point x="106.0" y="-18.0"/>
      <point x="8.0" y="28.0"/>
      <point x="8.0" y="255.0" type="curve" smooth="yes"/>
      <point x="8.0" y="491.0"/>
      <point x="77.0" y="566.0"/>
      <point x="208.0" y="627.0" type="curve" smooth="yes"/>
      <point x="264.0" y="653.0"/>
      <point x="292.0" y="678.0"/>
      <point x="292.0" y="734.0" type="curve"/>
      <point x="312.0" y="584.0" type="line"/>
      <point x="305.0" y="562.0"/>
      <point x="292.0" y="548.0"/>
      <point x="281.0" y="535.0" type="curve" smooth="yes"/>
      <point x="257.0" y="507.0"/>
      <point x="246.0" y="460.0"/>
    </contour>
    <contour>
      <point x="292.0" y="204.0" type="line"/>
      <point x="292.0" y="814.0" type="line" smooth="yes"/>
      <point x="292.0" y="874.0"/>
      <point x="294.0" y="907.0"/>
      <point x="277.0" y="907.0" type="curve" smooth="yes"/>
      <point x="258.0" y="907.0"/>
      <point x="257.0" y="872.0"/>
      <point x="255.0" y="696.0" type="curve" smooth="yes"/>
      <point x="255.0" y="693.0"/>
      <point x="253.0" y="691.0"/>
      <point x="250.0" y="691.0" type="curve" smooth="yes"/>
      <point x="47.0" y="691.0" type="line" smooth="yes"/>
      <point x="43.0" y="691.0"/>
      <point x="42.0" y="693.0"/>
      <point x="42.0" y="696.0" type="curve" smooth="yes"/>
      <point x="49.0" y="942.0"/>
      <point x="114.0" y="1067.0"/>
      <point x="267.0" y="1067.0" type="curve" smooth="yes"/>
      <point x="407.0" y="1067.0"/>
      <point x="462.0" y="975.0"/>
      <point x="462.0" y="761.0" type="curve" smooth="yes"/>
      <point x="462.0" y="194.0" type="line"/>
    </contour>
    <contour>
      <point x="816.0" y="414.0" type="curve" smooth="yes"/>
      <point x="816.0" y="167.0"/>
      <point x="816.0" y="-18.0"/>
      <point x="554.0" y="-18.0" type="curve" smooth="yes"/>
      <point x="370.0" y="-18.0"/>
      <point x="366.0" y="69.0"/>
      <point x="366.0" y="274.0" type="curve" smooth="yes"/>
      <point x="366.0" y="777.0" type="line" smooth="yes"/>
      <point x="366.0" y="977.0"/>
      <point x="426.0" y="1067.0"/>
      <point x="584.0" y="1067.0" type="curve" smooth="yes"/>
      <point x="771.0" y="1067.0"/>
      <point x="810.0" y="956.0"/>
      <point x="818.0" y="707.0" type="curve" smooth="yes"/>
      <point x="820.0" y="642.0"/>
      <point x="820.0" y="569.0"/>
      <point x="820.0" y="485.0" type="curve" smooth="yes"/>
      <point x="820.0" y="483.0"/>
      <point x="820.0" y="481.0"/>
      <point x="816.0" y="481.0" type="curve" smooth="yes"/>
      <point x="424.0" y="481.0" type="line"/>
      <point x="424.0" y="565.0" type="line"/>
      <point x="578.0" y="565.0" type="line"/>
      <point x="576.0" y="906.0"/>
      <point x="578.0" y="927.0"/>
      <point x="554.0" y="927.0" type="curve" smooth="yes"/>
      <point x="536.0" y="927.0"/>
      <point x="532.0" y="901.0"/>
      <point x="532.0" y="841.0" type="curve" smooth="yes"/>
      <point x="532.0" y="209.0" type="line" smooth="yes"/>
      <point x="532.0" y="134.0"/>
      <point x="537.0" y="122.0"/>
      <point x="553.0" y="122.0" type="curve" smooth="yes"/>
      <point x="572.0" y="122.0"/>
      <point x="580.0" y="185.0"/>
      <point x="581.0" y="414.0" type="curve" smooth="yes"/>
      <point x="581.0" y="416.0"/>
      <point x="583.0" y="418.0"/>
      <point x="586.0" y="418.0" type="curve" smooth="yes"/>
      <point x="812.0" y="418.0" type="line" smooth="yes"/>
      <point x="816.0" y="418.0"/>
      <point x="816.0" y="417.0"/>
    </contour>
  </outline>
</glyph>
<glyph name="eth" format="2">
  <advance height="1920" width="593"/>
  <unicode hex="00F0"/>
  <outline>
    <contour>
      <point x="210.0" y="1235.0" type="curve" smooth="yes"/>
      <point x="190.0" y="1277.0" type="line" smooth="yes"/>
      <point x="188.0" y="1280.0"/>
      <point x="189.0" y="1282.0"/>
      <point x="192.0" y="1284.0" type="curve" smooth="yes"/>
      <point x="485.0" y="1494.0" type="line" smooth="yes"/>
      <point x="488.0" y="1496.0"/>
      <point x="490.0" y="1495.0"/>
      <point x="492.0" y="1492.0" type="curve" smooth="yes"/>
      <point x="511.0" y="1450.0" type="line" smooth="yes"/>
      <point x="513.0" y="1447.0"/>
      <point x="511.0" y="1445.0"/>
      <point x="508.0" y="1443.0" type="curve" smooth="yes"/>
      <point x="216.0" y="1233.0" type="line" smooth="yes"/>
      <point x="213.0" y="1231.0"/>
      <point x="212.0" y="1232.0"/>
    </contour>
    <contour>
      <point x="295.0" y="917.0" type="curve" smooth="yes"/>
      <point x="270.0" y="917.0"/>
      <point x="266.0" y="879.0"/>
      <point x="266.0" y="793.0" type="curve" smooth="yes"/>
      <point x="266.0" y="249.0" type="line" smooth="yes"/>
      <point x="266.0" y="164.0"/>
      <point x="266.0" y="133.0"/>
      <point x="290.0" y="133.0" type="curve" smooth="yes"/>
      <point x="324.0" y="133.0"/>
      <point x="325.0" y="172.0"/>
      <point x="325.0" y="237.0" type="curve" smooth="yes"/>
      <point x="325.0" y="874.0" type="line" smooth="yes"/>
      <point x="325.0" y="1207.0"/>
      <point x="267.0" y="1410.0"/>
      <point x="126.0" y="1470.0" type="curve" smooth="yes"/>
      <point x="121.0" y="1472.0"/>
      <point x="118.267578125" y="1476.56445312"/>
      <point x="121.0" y="1480.0" type="curve" smooth="yes"/>
      <point x="222.0" y="1607.0" type="line" smooth="yes"/>
      <point x="224.732421875" y="1610.43554688"/>
      <point x="228.0" y="1612.0"/>
      <point x="234.0" y="1609.0" type="curve" smooth="yes"/>
      <point x="446.0" y="1513.0"/>
      <point x="568.0" y="1279.0"/>
      <point x="568.0" y="896.0" type="curve" smooth="yes"/>
      <point x="568.0" y="269.0" type="line" smooth="yes"/>
      <point x="568.0" y="104.0"/>
      <point x="500.0" y="-17.0"/>
      <point x="286.0" y="-17.0" type="curve" smooth="yes"/>
      <point x="75.0" y="-17.0"/>
      <point x="20.0" y="90.0"/>
      <point x="20.0" y="229.0" type="curve" smooth="yes"/>
      <point x="20.0" y="808.0" type="line" smooth="yes"/>
      <point x="20.0" y="945.0"/>
      <point x="47.0" y="1067.0"/>
      <point x="195.0" y="1067.0" type="curve" smooth="yes"/>
      <point x="299.0" y="1067.0"/>
      <point x="345.0" y="953.0"/>
      <point x="345.0" y="856.0" type="curve"/>
      <point x="325.0" y="761.0" type="line"/>
      <point x="325.0" y="826.0" type="line" smooth="yes"/>
      <point x="325.0" y="898.0"/>
      <point x="320.0" y="917.0"/>
    </contour>
  </outline>
</glyph>
<glyph name="divide" format="2">
  <advance height="2048" width="960"/>
  <unicode hex="00F7"/>
  <outline>
    <contour>
      <point x="5.0" y="634.0" type="curve" smooth="yes"/>
      <point x="5.0" y="751.0" type="line" smooth="yes"/>
      <point x="5.0" y="755.0"/>
      <point x="5.0" y="756.0"/>
      <point x="9.0" y="756.0" type="curve" smooth="yes"/>
      <point x="949.0" y="756.0" type="line" smooth="yes"/>
      <point x="953.0" y="756.0"/>
      <point x="955.0" y="755.0"/>
      <point x="955.0" y="751.0" type="curve" smooth="yes"/>
      <point x="955.0" y="634.0" type="line" smooth="yes"/>
      <point x="955.0" y="630.0"/>
      <point x="953.0" y="629.0"/>
      <point x="949.0" y="629.0" type="curve" smooth="yes"/>
      <point x="9.0" y="629.0" type="line" smooth="yes"/>
      <point x="5.0" y="629.0"/>
      <point x="5.0" y="630.0"/>
    </contour>
    <component base="period" xOffset="280.0" yOffset="119.0"/>
    <component base="period" xOffset="280.0" yOffset="906.0"/>
  </outline>
</glyph>
<glyph name="Dcroat" format="2">
  <advance height="1920" width="620"/>
  <unicode hex="0110"/>
  <outline>
    <contour>
      <point x="-42.0" y="629.0" type="curve" smooth="yes"/>
      <point x="-42.0" y="796.0" type="line" smooth="yes"/>
      <point x="-42.0" y="800.0"/>
      <point x="-42.0" y="801.0"/>
      <point x="-38.0" y="801.0" type="curve" smooth="yes"/>
      <point x="318.0" y="801.0" type="line" smooth="yes"/>
      <point x="322.0" y="801.0"/>
      <point x="322.0" y="800.0"/>
      <point x="322.0" y="796.0" type="curve" smooth="yes"/>
      <point x="322.0" y="629.0" type="line" smooth="yes"/>
      <point x="322.0" y="625.0"/>
      <point x="322.0" y="624.0"/>
      <point x="318.0" y="624.0" type="curve" smooth="yes"/>
      <point x="-38.0" y="624.0" type="line" smooth="yes"/>
      <point x="-42.0" y="624.0"/>
      <point x="-42.0" y="625.0"/>
    </contour>
    <component base="D"/>
  </outline>
</glyph>
<glyph name="dcroat" format="2">
  <advance height="1920" width="590"/>
  <unicode hex="0111"/>
  <outline>
    <contour>
      <point x="235.5" y="1171.25" type="curve" smooth="yes"/>
      <point x="235.5" y="1303.75" type="line" smooth="yes"/>
      <point x="235.5" y="1307.25"/>
      <point x="237.0" y="1308.75"/>
      <point x="240.5" y="1308.75" type="curve" smooth="yes"/>
      <point x="665.5" y="1308.75" type="line" smooth="yes"/>
      <point x="669.0" y="1308.75"/>
      <point x="670.5" y="1307.25"/>
      <point x="670.5" y="1303.75" type="curve" smooth="yes"/>
      <point x="670.5" y="1171.25" type="line" smooth="yes"/>
      <point x="670.5" y="1167.75"/>
      <point x="669.0" y="1166.25"/>
      <point x="665.5" y="1166.25" type="curve" smooth="yes"/>
      <point x="240.5" y="1166.25" type="line" smooth="yes"/>
      <point x="237.0" y="1166.25"/>
      <point x="235.5" y="1167.75"/>
    </contour>
    <component base="d"/>
  </outline>
</glyph>
<glyph name="Hbar" format="2">
  <advance height="1920" width="610"/>
  <unicode hex="0126"/>
  <outline>
    <contour>
      <point x="-30.0" y="1038.75" type="curve" smooth="yes"/>
      <point x="-30.0" y="1196.25" type="line" smooth="yes"/>
      <point x="-30.0" y="1199.75"/>
      <point x="-28.5" y="1201.25"/>
      <point x="-25.0" y="1201.25" type="curve" smooth="yes"/>
      <point x="635.0" y="1201.25" type="line" smooth="yes"/>
      <point x="638.5" y="1201.25"/>
      <point x="640.0" y="1199.75"/>
      <point x="640.0" y="1196.25" type="curve" smooth="yes"/>
      <point x="640.0" y="1038.75" type="line" smooth="yes"/>
      <point x="640.0" y="1035.25"/>
      <point x="638.5" y="1033.75"/>
      <point x="635.0" y="1033.75" type="curve" smooth="yes"/>
      <point x="-25.0" y="1033.75" type="line" smooth="yes"/>
      <point x="-28.5" y="1033.75"/>
      <point x="-30.0" y="1035.25"/>
    </contour>
    <component base="H"/>
  </outline>
</glyph>
<glyph name="hbar" format="2">
  <advance height="1920" width="580"/>
  <unicode hex="0127"/>
  <outline>
    <contour>
      <point x="-30.0" y="1158.75" type="curve" smooth="yes"/>
      <point x="-30.0" y="1316.25" type="line" smooth="yes"/>
      <point x="-30.0" y="1319.75"/>
      <point x="-28.5" y="1321.25"/>
      <point x="-25.0" y="1321.25" type="curve" smooth="yes"/>
      <point x="345.0" y="1321.25" type="line" smooth="yes"/>
      <point x="348.5" y="1321.25"/>
      <point x="350.0" y="1319.75"/>
      <point x="350.0" y="1316.25" type="curve" smooth="yes"/>
      <point x="350.0" y="1158.75" type="line" smooth="yes"/>
      <point x="350.0" y="1155.25"/>
      <point x="348.5" y="1153.75"/>
      <point x="345.0" y="1153.75" type="curve" smooth="yes"/>
      <point x="-25.0" y="1153.75" type="line" smooth="yes"/>
      <point x="-28.5" y="1153.75"/>
      <point x="-30.0" y="1155.25"/>
    </contour>
    <component base="h"/>
  </outline>
</glyph>
<glyph name="dotlessi" format="2">
  <advance height="960" width="295"/>
  <unicode hex="0131"/>
  <anchor x="150.0" y="1050.0" name="top"/>
  <outline>
    <contour>
      <point x="270.0" y="1045.0" type="curve" smooth="yes"/>
      <point x="270.0" y="5.0" type="line" smooth="yes"/>
      <point x="270.0" y="1.0"/>
      <point x="269.0" y="0.0"/>
      <point x="265.0" y="0.0" type="curve" smooth="yes"/>
      <point x="30.0" y="0.0" type="line" smooth="yes"/>
      <point x="26.0" y="0.0"/>
      <point x="25.0" y="1.0"/>
      <point x="25.0" y="5.0" type="curve" smooth="yes"/>
      <point x="25.0" y="1045.0" type="line" smooth="yes"/>
      <point x="25.0" y="1049.0"/>
      <point x="26.0" y="1050.0"/>
      <point x="30.0" y="1050.0" type="curve" smooth="yes"/>
      <point x="265.0" y="1050.0" type="line" smooth="yes"/>
      <point x="269.0" y="1050.0"/>
      <point x="270.0" y="1049.0"/>
    </contour>
  </outline>
</glyph>
<glyph name="lslash" format="2">
  <advance height="1920" width="295"/>
  <unicode hex="0142"/>
  <outline>
    <contour>
      <point x="351.578125" y="1024.24023438" type="curve" smooth="yes"/>
      <point x="366.578125" y="998.259765625" type="line" smooth="yes"/>
      <point x="368.328125" y="995.228515625"/>
      <point x="367.779296875" y="993.1796875"/>
      <point x="364.748046875" y="991.4296875" type="curve" smooth="yes"/>
      <point x="-44.748046875" y="753.9296875" type="line" smooth="yes"/>
      <point x="-47.779296875" y="752.1796875"/>
      <point x="-49.828125" y="752.728515625"/>
      <point x="-51.578125" y="755.759765625" type="curve" smooth="yes"/>
      <point x="-66.578125" y="781.740234375" type="line" smooth="yes"/>
      <point x="-68.328125" y="784.771484375"/>
      <point x="-67.779296875" y="786.8203125"/>
      <point x="-64.748046875" y="788.5703125" type="curve" smooth="yes"/>
      <point x="344.748046875" y="1026.0703125" type="line" smooth="yes"/>
      <point x="347.779296875" y="1027.8203125"/>
      <point x="349.828125" y="1027.27148438"/>
    </contour>
    <component base="l"/>
  </outline>
</glyph>
<glyph name="Eng" format="2">
  <advance height="960" width="590"/>
  <unicode hex="014A"/>
  <outline>
    <contour>
      <point x="385.0" y="1400.0" type="curve" smooth="yes"/>
      <point x="560.0" y="1400.0" type="line" smooth="yes"/>
      <point x="564.0" y="1400.0"/>
      <point x="565.0" y="1399.0"/>
      <point x="565.0" y="1395.0" type="curve"/>
      <point x="565.0" y="-179.0" type="line" smooth="yes"/>
      <point x="565.0" y="-358.0"/>
      <point x="445.0" y="-370.0"/>
      <point x="251.0" y="-356.0" type="curve" smooth="yes"/>
      <point x="247.0" y="-356.0"/>
      <point x="245.0" y="-354.0"/>
      <point x="245.0" y="-350.0" type="curve" smooth="yes"/>
      <point x="245.0" y="-220.0" type="line" smooth="yes"/>
      <point x="245.0" y="-217.0"/>
      <point x="247.0" y="-215.0"/>
      <point x="250.0" y="-216.0" type="curve" smooth="yes"/>
      <point x="295.0" y="-225.0"/>
      <point x="320.0" y="-208.0"/>
      <point x="320.0" y="-144.0" type="curve" smooth="yes"/>
      <point x="320.0" y="271.25" type="line"/>
      <point x="210.0" y="715.0" type="line"/>
      <point x="210.0" y="5.0" type="line" smooth="yes"/>
      <point x="210.0" y="1.0"/>
      <point x="209.0" y="0.0"/>
      <point x="205.0" y="0.0" type="curve" smooth="yes"/>
      <point x="30.0" y="0.0" type="line" smooth="yes"/>
      <point x="26.0" y="0.0"/>
      <point x="25.0" y="1.0"/>
      <point x="25.0" y="5.0" type="curve" smooth="yes"/>
      <point x="25.0" y="1395.0" type="line" smooth="yes"/>
      <point x="25.0" y="1399.0"/>
      <point x="26.0" y="1400.0"/>
      <point x="30.0" y="1400.0" type="curve" smooth="yes"/>
      <point x="245.0" y="1400.0" type="line" smooth="yes"/>
      <point x="249.0" y="1400.0"/>
      <point x="251.0" y="1399.0"/>
      <point x="254.0" y="1395.0" type="curve" smooth="yes"/>
      <point x="380.0" y="734.0" type="line"/>
      <point x="380.0" y="1395.0" type="line" smooth="yes"/>
      <point x="380.0" y="1399.0"/>
      <point x="381.0" y="1400.0"/>
    </contour>
  </outline>
</glyph>
<glyph name="eng" format="2">
  <advance height="960" width="580"/>
  <unicode hex="014B"/>
  <outline>
    <contour>
      <point x="30.0" y="1050.0" type="curve" smooth="yes"/>
      <point x="260.0" y="1050.0" type="line" smooth="yes"/>
      <point x="264.0" y="1050.0"/>
      <point x="265.0" y="1049.0"/>
      <point x="265.0" y="1045.0" type="curve" smooth="yes"/>
      <point x="265.0" y="869.0" type="line"/>
      <point x="270.0" y="855.0" type="line"/>
      <point x="270.0" y="5.0" type="line" smooth="yes"/>
      <point x="270.0" y="1.0"/>
      <point x="269.0" y="0.0"/>
      <point x="265.0" y="0.0" type="curve" smooth="yes"/>
      <point x="30.0" y="0.0" type="line" smooth="yes"/>
      <point x="26.0" y="0.0"/>
      <point x="25.0" y="1.0"/>
      <point x="25.0" y="5.0" type="curve" smooth="yes"/>
      <point x="25.0" y="1045.0" type="line" smooth="yes"/>
      <point x="25.0" y="1049.0"/>
      <point x="26.0" y="1050.0"/>
    </contour>
    <contour>
      <point x="558.0" y="-179.0" type="line" smooth="yes"/>
      <point x="558.0" y="-358.0"/>
      <point x="438.0" y="-370.0"/>
      <point x="244.0" y="-356.0" type="curve" smooth="yes"/>
      <point x="240.0" y="-356.0"/>
      <point x="238.0" y="-354.0"/>
      <point x="238.0" y="-350.0" type="curve" smooth="yes"/>
      <point x="238.0" y="-220.0" type="line" smooth="yes"/>
      <point x="238.0" y="-217.0"/>
      <point x="240.0" y="-215.0"/>
      <point x="243.0" y="-216.0" type="curve" smooth="yes"/>
      <point x="288.0" y="-225.0"/>
      <point x="313.0" y="-208.0"/>
      <point x="313.0" y="-144.0" type="curve" smooth="yes"/>
      <point x="313.0" y="831.0" type="line" smooth="yes"/>
      <point x="313.0" y="881.0"/>
      <point x="309.0" y="903.0"/>
      <point x="295.0" y="903.0" type="curve" smooth="yes"/>
      <point x="277.0" y="903.0"/>
      <point x="270.0" y="866.0"/>
      <point x="270.0" y="761.0" type="curve"/>
      <point x="245.0" y="877.0" type="line"/>
      <point x="245.0" y="997.0"/>
      <point x="317.0" y="1067.0"/>
      <point x="411.0" y="1067.0" type="curve" smooth="yes"/>
      <point x="515.0" y="1067.0"/>
      <point x="558.0" y="1012.0"/>
      <point x="558.0" y="857.0" type="curve" smooth="yes"/>
    </contour>
  </outline>
</glyph>
